<?xml version="1.0" encoding="UTF-8" standalone="no"?>
<!DOCTYPE svg PUBLIC "-//W3C//DTD SVG 1.1//EN" "http://www.w3.org/Graphics/SVG/1.1/DTD/svg11.dtd">
<svg xmlns="http://www.w3.org/2000/svg" version="1.1" viewBox="0.00 0.00 512.00 512.00">
<g stroke-width="2.00" fill="none" stroke-linecap="butt">
<path stroke="#c8efd5" vector-effect="non-scaling-stroke" d="
  M 133.55 98.28
  L 126.91 98.59"
/>
<path stroke="#afdac5" vector-effect="non-scaling-stroke" d="
  M 126.91 98.59
  L 124.31 98.20
  L 122.27 98.17
  L 120.72 98.48
  L 119.61 99.13
  L 118.80 100.24
  L 118.33 101.74
  L 118.09 103.93
  L 118.05 107.33"
/>
<path stroke="#c8efd5" vector-effect="non-scaling-stroke" d="
  M 118.05 107.33
  L 118.05 405.65"
/>
<path stroke="#afdac5" vector-effect="non-scaling-stroke" d="
  M 118.05 405.65
  L 118.07 408.94
  L 118.28 411.19
  L 118.72 412.75
  L 119.45 413.79
  L 120.40 414.36
  L 121.66 414.67
  L 126.30 414.77
  L 128.50 414.74"
/>
<path stroke="#c8efd5" vector-effect="non-scaling-stroke" d="
  M 128.50 414.74
  L 341.74 414.75"
/>
<path stroke="#bbe4cc" vector-effect="non-scaling-stroke" d="
  M 341.74 414.75
  L 344.97 415.07
  L 345.99 414.95
  L 346.61 414.64"
/>
<path stroke="#afdac5" vector-effect="non-scaling-stroke" d="
  M 346.61 414.64
  L 391.42 414.71
  L 392.98 414.49
  L 394.09 413.83
  L 394.09 413.83
  L 394.09 413.83
  L 394.76 412.72
  L 394.98 411.16
  L 394.99 366.55"
/>
<path stroke="#bbe4cc" vector-effect="non-scaling-stroke" d="
  M 394.99 366.55
  L 394.98 365.92"
/>
<path stroke="#c8efd5" vector-effect="non-scaling-stroke" d="
  M 394.98 365.92
  L 394.96 107.14"
/>
<path stroke="#afdac5" vector-effect="non-scaling-stroke" d="
  M 394.96 107.14
  L 394.98 104.11
  L 394.76 101.93
  L 394.28 100.35
  L 393.47 99.24
  L 392.29 98.54
  L 390.67 98.20
  L 388.51 98.19
  L 385.53 98.50"
/>
<path stroke="#c8efd5" vector-effect="non-scaling-stroke" d="
  M 385.53 98.50
  L 379.51 98.41"
/>
<path stroke="#619584" vector-effect="non-scaling-stroke" d="
  M 379.51 98.41
  L 379.51 83.52
  L 379.36 83.15
  L 378.99 83.00
  L 369.26 83.00
  L 368.92 83.14
  L 368.78 83.48
  L 368.76 98.14"
/>
<path stroke="#c8efd5" vector-effect="non-scaling-stroke" d="
  M 368.76 98.14
  L 346.01 98.16"
/>
<path stroke="#619584" vector-effect="non-scaling-stroke" d="
  M 346.01 98.16
  L 346.01 83.52
  L 345.86 83.15
  L 345.49 83.00
  L 335.51 83.00
  L 335.17 83.14
  L 335.03 83.48
  L 335.01 98.13"
/>
<path stroke="#c8efd5" vector-effect="non-scaling-stroke" d="
  M 335.01 98.13
  L 312.26 98.17"
/>
<path stroke="#619584" vector-effect="non-scaling-stroke" d="
  M 312.26 98.17
  L 312.26 83.52
  L 312.11 83.15
  L 311.74 83.00
  L 302.01 83.00
  L 301.67 83.14
  L 301.53 83.48
  L 301.51 98.31"
/>
<path stroke="#c8efd5" vector-effect="non-scaling-stroke" d="
  M 301.51 98.31
  L 278.76 98.27"
/>
<path stroke="#619584" vector-effect="non-scaling-stroke" d="
  M 278.76 98.27
  L 278.76 83.52
  L 278.61 83.15
  L 278.24 83.00
  L 268.51 83.00
  L 268.17 83.14
  L 268.03 83.48
  L 268.01 98.17"
/>
<path stroke="#c8efd5" vector-effect="non-scaling-stroke" d="
  M 268.01 98.17
  L 245.02 98.13"
/>
<path stroke="#619584" vector-effect="non-scaling-stroke" d="
  M 245.02 98.13
  L 245.06 83.58
  L 244.92 83.15
  L 244.47 83.00
  L 234.79 83.00
  L 234.42 83.12
  L 234.29 83.51
  L 234.26 98.22"
/>
<path stroke="#c8efd5" vector-effect="non-scaling-stroke" d="
  M 234.26 98.22
  L 211.41 98.30"
/>
<path stroke="#619584" vector-effect="non-scaling-stroke" d="
  M 211.41 98.30
  L 211.44 83.67
  L 211.27 83.17
  L 210.77 83.00
  L 201.29 83.00
  L 200.92 83.13
  L 200.79 83.50
  L 200.76 98.14"
/>
<path stroke="#c8efd5" vector-effect="non-scaling-stroke" d="
  M 200.76 98.14
  L 178.01 98.16"
/>
<path stroke="#619584" vector-effect="non-scaling-stroke" d="
  M 178.01 98.16
  L 178.01 83.52
  L 177.86 83.15
  L 177.49 83.00
  L 167.51 83.00
  L 167.17 83.14
  L 167.03 83.48
  L 167.01 98.14"
/>
<path stroke="#c8efd5" vector-effect="non-scaling-stroke" d="
  M 167.01 98.14
  L 144.26 98.22"
/>
<path stroke="#619584" vector-effect="non-scaling-stroke" d="
  M 144.26 98.22
  L 144.26 83.53
  L 144.10 83.16
  L 143.73 83.00
  L 134.04 83.00
  L 133.67 83.13
  L 133.54 83.50
  L 133.55 98.28"
/>
<path stroke="#99a5af" vector-effect="non-scaling-stroke" d="
  M 144.26 98.22
  L 144.26 112.32"
/>
<path stroke="#80909f" vector-effect="non-scaling-stroke" d="
  M 144.26 112.32
  L 144.24 115.76
  L 144.11 116.13
  L 143.74 116.25
  L 134.20 116.25
  L 133.70 116.09
  L 133.53 115.59
  L 133.51 111.77"
/>
<path stroke="#99a5af" vector-effect="non-scaling-stroke" d="
  M 133.51 111.77
  L 133.55 98.28"
/>
<path stroke="#e7eaf0" vector-effect="non-scaling-stroke" d="
  M 167.01 112.29
  L 164.73 111.99
  L 164.27 112.09
  L 164.11 112.52
  L 163.95 119.22
  L 163.95 119.23
  L 164.17 119.77
  L 164.72 120.00
  L 180.00 120.00
  L 180.56 119.81
  L 180.75 119.25
  L 180.75 112.93
  L 180.62 112.44
  L 180.21 112.13
  L 179.23 111.93
  L 177.99 112.05"
/>
<path stroke="#e7eaf0" vector-effect="non-scaling-stroke" d="
  M 200.75 112.01
  L 198.41 112.02
  L 198.00 112.15
  L 197.86 112.56
  L 197.71 119.34
  L 197.89 119.80
  L 198.34 120.00
  L 198.35 120.00
  L 214.00 120.00
  L 214.38 119.88
  L 214.50 119.50
  L 214.51 112.72
  L 214.36 112.24
  L 213.90 112.02
  L 212.73 112.01
  L 211.40 112.32"
/>
<path stroke="#e7eaf0" vector-effect="non-scaling-stroke" d="
  M 234.25 112.02
  L 231.91 112.03
  L 231.42 112.20
  L 231.25 112.69
  L 231.25 119.50
  L 231.38 119.88
  L 231.75 120.00
  L 247.50 120.00
  L 247.88 119.88
  L 248.00 119.50
  L 248.00 112.99
  L 247.86 112.46
  L 247.46 112.11
  L 246.53 111.87
  L 246.53 111.87
  L 245.83 111.97
  L 245.13 112.31"
/>
<path stroke="#e7eaf0" vector-effect="non-scaling-stroke" d="
  M 268.00 112.30
  L 265.57 111.99
  L 265.17 112.07
  L 265.02 112.47
  L 264.95 119.47
  L 265.10 119.84
  L 265.47 120.00
  L 265.47 120.00
  L 281.00 120.00
  L 281.56 119.81
  L 281.75 119.25
  L 281.75 112.96
  L 281.55 112.38
  L 281.05 112.05
  L 279.98 111.99
  L 278.76 112.33"
/>
<path stroke="#e7eaf0" vector-effect="non-scaling-stroke" d="
  M 301.50 112.03
  L 299.14 112.07
  L 298.65 112.24
  L 298.50 112.71
  L 298.50 119.13
  L 298.50 119.13
  L 298.76 119.75
  L 299.38 120.00
  L 314.75 120.00
  L 315.13 119.88
  L 315.25 119.50
  L 315.25 112.77
  L 315.13 112.38
  L 314.80 112.18
  L 314.63 112.14
  L 314.63 112.14
  L 313.48 112.06
  L 312.26 112.31"
/>
<path stroke="#e7eaf0" vector-effect="non-scaling-stroke" d="
  M 335.01 111.79
  L 332.69 112.02
  L 332.28 112.20
  L 332.14 112.60
  L 331.94 119.21
  L 332.16 119.76
  L 332.70 120.00
  L 332.70 120.00
  L 332.71 120.00
  L 348.00 120.00
  L 348.56 119.81
  L 348.75 119.25
  L 348.75 112.90
  L 348.58 112.36
  L 348.08 112.11
  L 345.99 111.77"
/>
<path stroke="#e7eaf0" vector-effect="non-scaling-stroke" d="
  M 368.75 112.01
  L 366.23 112.01
  L 365.87 112.13
  L 365.75 112.50
  L 365.75 119.25
  L 365.97 119.78
  L 366.50 120.00
  L 382.00 120.00
  L 382.38 119.88
  L 382.50 119.50
  L 382.50 112.72
  L 382.34 112.23
  L 381.89 112.02
  L 381.42 111.98
  L 379.51 112.31"
/>
<path stroke="#e7eaf0" vector-effect="non-scaling-stroke" d="
  M 385.53 98.50
  L 386.43 98.84
  L 386.43 98.84
  L 388.88 100.17
  L 391.12 101.99
  L 393.14 104.31
  L 394.96 107.14"
/>
<path stroke="#f3f4f7" vector-effect="non-scaling-stroke" d="
  M 394.98 365.92
  L 377.13 365.71
  L 359.31 365.90
  L 356.31 366.17
  L 353.72 366.83
  L 351.50 367.87
  L 349.68 369.28
  L 348.05 371.34
  L 346.89 373.85
  L 346.21 376.80
  L 345.99 380.17
  L 345.99 414.08
  L 345.84 414.52
  L 345.40 414.68
  L 341.74 414.75"
/>
<path stroke="#e7eaf0" vector-effect="non-scaling-stroke" d="
  M 128.50 414.74
  L 125.25 413.41
  L 125.25 413.41
  L 125.25 413.41
  L 123.15 412.02
  L 121.25 410.26
  L 119.55 408.14
  L 118.05 405.65"
/>
<path stroke="#e7eaf0" vector-effect="non-scaling-stroke" d="
  M 118.05 107.33
  L 119.66 104.59
  L 121.49 102.31
  L 123.54 100.47
  L 125.81 99.07
  L 126.91 98.59"
/>
<path stroke="#e7eaf0" vector-effect="non-scaling-stroke" d="
  M 133.51 111.77
  L 131.15 112.03
  L 130.67 112.24
  L 130.50 112.76
  L 130.50 119.34
  L 130.69 119.81
  L 131.16 120.00
  L 146.75 120.00
  L 147.13 119.88
  L 147.25 119.50
  L 147.25 112.73
  L 147.09 112.29
  L 146.68 112.05
  L 145.53 112.02
  L 144.26 112.32"
/>
<path stroke="#99a5af" vector-effect="non-scaling-stroke" d="
  M 178.01 98.16
  L 177.99 112.05"
/>
<path stroke="#80909f" vector-effect="non-scaling-stroke" d="
  M 177.99 112.05
  L 177.89 115.71
  L 177.74 116.12
  L 177.33 116.25
  L 167.69 116.25
  L 167.27 116.11
  L 167.11 115.68
  L 167.01 112.29"
/>
<path stroke="#99a5af" vector-effect="non-scaling-stroke" d="
  M 167.01 112.29
  L 167.01 98.14"
/>
<path stroke="#99a5af" vector-effect="non-scaling-stroke" d="
  M 211.41 98.30
  L 211.40 112.32"
/>
<path stroke="#80909f" vector-effect="non-scaling-stroke" d="
  M 211.40 112.32
  L 211.48 115.76
  L 211.36 116.13
  L 211.00 116.25
  L 201.26 116.25
  L 200.89 116.13
  L 200.76 115.76
  L 200.75 112.01"
/>
<path stroke="#99a5af" vector-effect="non-scaling-stroke" d="
  M 200.75 112.01
  L 200.76 98.14"
/>
<path stroke="#99a5af" vector-effect="non-scaling-stroke" d="
  M 312.26 98.17
  L 312.26 112.31"
/>
<path stroke="#80909f" vector-effect="non-scaling-stroke" d="
  M 312.26 112.31
  L 312.24 115.76
  L 312.11 116.13
  L 311.74 116.25
  L 302.01 116.25
  L 301.64 116.13
  L 301.51 115.76
  L 301.50 112.03"
/>
<path stroke="#99a5af" vector-effect="non-scaling-stroke" d="
  M 301.50 112.03
  L 301.51 98.31"
/>
<path stroke="#99a5af" vector-effect="non-scaling-stroke" d="
  M 379.51 98.41
  L 379.51 112.31"
/>
<path stroke="#80909f" vector-effect="non-scaling-stroke" d="
  M 379.51 112.31
  L 379.49 115.76
  L 379.36 116.13
  L 378.99 116.25
  L 369.26 116.25
  L 368.89 116.13
  L 368.76 115.76
  L 368.75 112.01"
/>
<path stroke="#99a5af" vector-effect="non-scaling-stroke" d="
  M 368.75 112.01
  L 368.76 98.14"
/>
<path stroke="#99a5af" vector-effect="non-scaling-stroke" d="
  M 346.01 98.16
  L 345.99 111.77"
/>
<path stroke="#80909f" vector-effect="non-scaling-stroke" d="
  M 345.99 111.77
  L 345.89 115.71
  L 345.74 116.12
  L 345.33 116.25
  L 335.69 116.25
  L 335.26 116.11
  L 335.11 115.68
  L 335.01 111.79"
/>
<path stroke="#99a5af" vector-effect="non-scaling-stroke" d="
  M 335.01 111.79
  L 335.01 98.13"
/>
<path stroke="#99a5af" vector-effect="non-scaling-stroke" d="
  M 245.02 98.13
  L 245.13 112.31"
/>
<path stroke="#80909f" vector-effect="non-scaling-stroke" d="
  M 245.13 112.31
  L 245.00 115.75
  L 244.86 116.13
  L 244.48 116.25
  L 234.76 116.25
  L 234.39 116.13
  L 234.26 115.76
  L 234.25 112.02"
/>
<path stroke="#99a5af" vector-effect="non-scaling-stroke" d="
  M 234.25 112.02
  L 234.26 98.22"
/>
<path stroke="#dadfe7" vector-effect="non-scaling-stroke" d="
  M 394.99 366.55
  L 393.82 367.07
  L 393.33 367.72
  L 393.32 367.82
  L 370.07 390.84
  L 346.61 414.64"
/>
<path stroke="#99a5af" vector-effect="non-scaling-stroke" d="
  M 278.76 98.27
  L 278.76 112.33"
/>
<path stroke="#80909f" vector-effect="non-scaling-stroke" d="
  M 278.76 112.33
  L 278.74 115.76
  L 278.61 116.13
  L 278.24 116.25
  L 268.50 116.25
  L 268.14 116.13
  L 268.01 115.76
  L 268.00 112.30"
/>
<path stroke="#99a5af" vector-effect="non-scaling-stroke" d="
  M 268.00 112.30
  L 268.01 98.17"
/>
<path stroke="#f3f4f7" vector-effect="non-scaling-stroke" d="
  M 184.24 172.12
  L 182.18 170.51
  L 181.29 170.10
  L 180.50 169.97
  L 149.18 170.03
  L 146.79 170.19
  L 144.70 170.67
  L 143.03 171.45
  L 141.69 172.57
  L 140.91 173.64
  L 140.34 174.92
  L 139.97 176.43
  L 139.83 178.18
  L 139.77 206.07
  L 139.97 209.22
  L 140.54 211.78
  L 141.48 213.77
  L 142.76 215.23
  L 144.58 216.29
  L 146.75 216.80
  L 150.94 217.07
  L 157.38 217.16
  L 177.06 216.85
  L 179.46 216.64
  L 181.45 216.16
  L 183.14 215.38
  L 184.46 214.35
  L 185.75 212.56
  L 186.59 210.16
  L 187.01 207.06
  L 187.09 202.75
  L 186.87 192.63
  L 186.39 182.26"
/>
<path stroke="#ffb8ac" vector-effect="non-scaling-stroke" d="
  M 186.39 182.26
  L 207.68 160.87
  L 209.35 158.87
  L 210.10 157.16
  L 210.16 156.67
  L 210.07 155.67
  L 209.73 154.74
  L 209.11 153.83
  L 208.30 153.08
  L 207.35 152.53
  L 206.32 152.21
  L 205.35 152.17
  L 204.40 152.39
  L 203.19 153.19
  L 184.24 172.12"
/>
<path stroke="#f3ada3" vector-effect="non-scaling-stroke" d="
  M 186.39 182.26
  L 177.57 191.12"
/>
<path stroke="#ffb8ac" vector-effect="non-scaling-stroke" d="
  M 177.57 191.12
  L 167.78 200.77
  L 166.61 201.65
  L 165.43 202.05
  L 164.25 202.03
  L 163.07 201.64
  L 161.78 200.86
  L 160.50 199.78
  L 157.69 196.49
  L 154.10 191.12
  L 152.85 189.16
  L 152.26 188.05
  L 151.96 186.99
  L 151.91 185.91
  L 152.13 184.92
  L 152.81 183.75
  L 153.82 182.87
  L 155.07 182.36
  L 156.45 182.26
  L 157.41 182.48
  L 158.36 182.94
  L 159.16 183.59
  L 159.90 184.48
  L 161.78 187.11
  L 164.29 190.69
  L 164.81 191.04
  L 165.42 190.89
  L 165.49 190.83
  L 177.69 178.53"
/>
<path stroke="#f3ada3" vector-effect="non-scaling-stroke" d="
  M 177.69 178.53
  L 184.24 172.12"
/>
<path stroke="#f3f4f7" vector-effect="non-scaling-stroke" d="
  M 177.69 178.53
  L 148.61 178.42
  L 148.34 178.51
  L 148.25 178.78
  L 148.25 207.74
  L 148.39 208.09
  L 148.74 208.24
  L 177.31 208.27
  L 177.74 208.13
  L 177.88 207.69
  L 177.57 191.12"
/>
<path stroke="#c2edff" vector-effect="non-scaling-stroke" d="
  M 336.99 177.26
  L 336.73 177.00
  L 218.77 177.00
  L 218.51 177.26
  L 218.51 186.68
  L 218.77 186.94
  L 336.73 186.94
  L 336.99 186.68
  L 336.99 177.26"
/>
<path stroke="#c2edff" vector-effect="non-scaling-stroke" d="
  M 290.26 200.60
  L 290.08 200.18
  L 289.66 200.00
  L 219.10 200.00
  L 218.68 200.18
  L 218.50 200.60
  L 218.50 209.40
  L 218.68 209.82
  L 219.10 210.00
  L 289.66 210.00
  L 290.08 209.82
  L 290.26 209.40
  L 290.26 200.60"
/>
<path stroke="#f3f4f7" vector-effect="non-scaling-stroke" d="
  M 184.26 246.86
  L 182.64 245.80
  L 180.45 245.01
  L 178.00 244.75
  L 150.68 244.73
  L 147.73 244.87
  L 145.37 245.31
  L 143.46 246.08
  L 142.05 247.16
  L 140.93 248.84
  L 140.21 251.17
  L 139.87 254.17
  L 139.77 259.14
  L 139.77 259.31
  L 139.77 280.40
  L 139.94 283.74
  L 140.46 286.38
  L 141.35 288.44
  L 142.60 289.95
  L 143.51 290.62
  L 144.59 291.16
  L 147.08 291.74
  L 151.43 292.01
  L 157.85 292.11
  L 176.95 291.78
  L 179.15 291.57
  L 181.07 291.07
  L 182.72 290.30
  L 184.10 289.24
  L 185.32 287.71
  L 186.19 285.83
  L 186.72 283.59
  L 186.91 280.99
  L 186.84 266.18
  L 186.48 256.70"
/>
<path stroke="#ffb8ac" vector-effect="non-scaling-stroke" d="
  M 186.48 256.70
  L 208.82 234.32
  L 209.76 233.04
  L 210.18 231.53
  L 209.97 229.95
  L 209.18 228.58
  L 207.95 227.58
  L 206.41 227.09
  L 205.40 227.11
  L 204.36 227.39
  L 203.40 227.91
  L 202.45 228.70
  L 184.26 246.86"
/>
<path stroke="#f3ada3" vector-effect="non-scaling-stroke" d="
  M 186.48 256.70
  L 177.79 265.42"
/>
<path stroke="#ffb8ac" vector-effect="non-scaling-stroke" d="
  M 177.79 265.42
  L 167.30 275.84
  L 165.94 276.73
  L 164.34 277.01
  L 162.76 276.63
  L 161.46 275.65
  L 161.46 275.65
  L 161.30 275.46
  L 153.73 265.28
  L 152.77 263.81
  L 152.16 262.55
  L 151.88 261.42
  L 151.92 260.29
  L 152.23 259.37
  L 152.85 258.45
  L 154.07 257.37
  L 155.30 256.92
  L 156.19 256.94
  L 157.07 257.19
  L 158.96 258.43
  L 160.98 260.62
  L 163.38 263.98
  L 164.60 265.73
  L 164.95 265.96
  L 165.34 265.78
  L 177.73 253.39"
/>
<path stroke="#f3ada3" vector-effect="non-scaling-stroke" d="
  M 177.73 253.39
  L 184.26 246.86"
/>
<path stroke="#f3f4f7" vector-effect="non-scaling-stroke" d="
  M 177.73 253.39
  L 148.78 253.24
  L 148.38 253.37
  L 148.25 253.76
  L 148.25 282.50
  L 148.40 282.85
  L 148.75 283.00
  L 177.49 283.00
  L 177.84 282.88
  L 177.95 282.55
  L 177.79 265.42"
/>
<path stroke="#c2edff" vector-effect="non-scaling-stroke" d="
  M 336.99 252.18
  L 336.86 251.88
  L 336.56 251.75
  L 218.92 251.75
  L 218.62 251.88
  L 218.49 252.18
  L 218.49 261.06
  L 218.62 261.36
  L 218.92 261.49
  L 336.56 261.49
  L 336.86 261.36
  L 336.99 261.06
  L 336.99 252.18"
/>
<path stroke="#c2edff" vector-effect="non-scaling-stroke" d="
  M 290.24 275.26
  L 289.98 275.00
  L 218.76 275.00
  L 218.50 275.26
  L 218.50 284.50
  L 218.76 284.76
  L 289.98 284.76
  L 290.24 284.50
  L 290.24 275.26"
/>
<path stroke="#f3f4f7" vector-effect="non-scaling-stroke" d="
  M 184.33 321.77
  L 181.76 320.35
  L 181.76 320.35
  L 179.70 319.76
  L 177.50 319.56
  L 149.01 319.63
  L 146.82 319.80
  L 144.93 320.25
  L 143.33 321.00
  L 142.02 322.03
  L 142.02 322.03
  L 142.02 322.03
  L 141.01 323.35
  L 140.29 324.95
  L 139.86 326.84
  L 139.72 329.01
  L 139.76 356.28
  L 139.90 358.85
  L 140.32 360.98
  L 141.02 362.69
  L 142.01 364.03
  L 143.57 365.18
  L 145.56 365.93
  L 148.13 366.37
  L 151.43 366.51
  L 175.04 366.48
  L 178.43 366.33
  L 181.07 365.85
  L 183.13 365.01
  L 184.65 363.82
  L 185.40 362.85
  L 185.99 361.69
  L 186.65 358.93
  L 187.07 353.37
  L 187.19 346.96
  L 187.01 339.71
  L 186.53 331.60"
/>
<path stroke="#ffb8ac" vector-effect="non-scaling-stroke" d="
  M 186.53 331.60
  L 208.50 309.50
  L 209.26 308.54
  L 209.74 307.53
  L 209.98 306.41
  L 209.94 305.31
  L 209.63 304.24
  L 209.09 303.31
  L 208.32 302.57
  L 207.38 302.07
  L 206.23 301.88
  L 204.94 302.08
  L 203.35 302.97
  L 201.29 304.81
  L 184.33 321.77"
/>
<path stroke="#f3ada3" vector-effect="non-scaling-stroke" d="
  M 186.53 331.60
  L 177.65 340.33"
/>
<path stroke="#ffb8ac" vector-effect="non-scaling-stroke" d="
  M 177.65 340.33
  L 166.98 350.74
  L 166.23 351.29
  L 165.45 351.58
  L 164.32 351.61
  L 163.16 351.24
  L 161.94 350.52
  L 160.55 349.35
  L 157.58 345.91
  L 153.82 340.36
  L 152.80 338.78
  L 152.04 337.08
  L 151.99 335.32
  L 152.68 333.70
  L 153.93 332.52
  L 155.52 331.90
  L 157.23 331.99
  L 158.31 332.51
  L 159.29 333.44
  L 164.45 340.49
  L 164.93 340.79
  L 165.46 340.63
  L 165.51 340.59
  L 177.76 328.30"
/>
<path stroke="#f3ada3" vector-effect="non-scaling-stroke" d="
  M 177.76 328.30
  L 184.33 321.77"
/>
<path stroke="#f3f4f7" vector-effect="non-scaling-stroke" d="
  M 177.76 328.30
  L 148.68 328.10
  L 148.36 328.20
  L 148.25 328.52
  L 148.25 357.50
  L 148.40 357.85
  L 148.75 358.00
  L 177.50 358.00
  L 177.82 357.89
  L 177.92 357.57
  L 177.65 340.33"
/>
<path stroke="#c2edff" vector-effect="non-scaling-stroke" d="
  M 337.00 326.83
  L 336.68 326.51
  L 218.82 326.51
  L 218.50 326.83
  L 218.50 335.93
  L 218.82 336.25
  L 336.68 336.25
  L 337.00 335.93
  L 337.00 326.83"
/>
<path stroke="#c2edff" vector-effect="non-scaling-stroke" d="
  M 290.26 350.01
  L 290.00 349.75
  L 218.76 349.75
  L 218.50 350.01
  L 218.50 359.25
  L 218.76 359.51
  L 290.00 359.51
  L 290.26 359.25
  L 290.26 350.01"
/>
</g>
<path fill="#90dfaa" d="
  M 252.07 0.00
  L 261.30 0.00
  L 277.57 1.06
  L 289.24 2.26
  L 299.05 3.77
  L 308.72 5.63
  L 318.35 7.86
  L 327.82 10.42
  L 337.17 13.34
  L 346.35 16.58
  L 355.46 20.19
  L 364.37 24.12
  L 373.14 28.39
  L 381.71 32.97
  L 390.16 37.91
  L 398.39 43.15
  L 406.41 48.70
  L 414.20 54.55
  L 421.74 60.67
  L 429.05 67.07
  L 437.66 75.29
  L 445.88 83.90
  L 453.69 92.89
  L 461.08 102.24
  L 468.04 111.94
  L 474.55 121.98
  L 480.55 132.25
  L 486.09 142.83
  L 491.13 153.64
  L 495.68 164.73
  L 499.71 175.98
  L 503.23 187.48
  L 506.21 199.07
  L 508.68 210.87
  L 510.60 222.76
  L 512.00 234.84
  L 512.00 276.59
  L 511.20 284.52
  L 510.17 292.37
  L 508.90 300.24
  L 507.40 308.03
  L 505.67 315.74
  L 503.73 323.35
  L 501.53 330.96
  L 499.12 338.47
  L 496.47 345.93
  L 493.60 353.28
  L 490.52 360.52
  L 487.23 367.64
  L 483.71 374.69
  L 479.99 381.61
  L 476.06 388.40
  L 471.93 395.06
  L 467.58 401.63
  L 463.03 408.05
  L 458.30 414.32
  L 453.38 420.44
  L 448.28 426.41
  L 443.00 432.20
  L 437.54 437.84
  L 431.92 443.30
  L 426.13 448.59
  L 420.18 453.70
  L 414.07 458.63
  L 407.80 463.37
  L 401.43 467.90
  L 394.91 472.23
  L 388.25 476.37
  L 381.45 480.30
  L 369.32 486.65
  L 356.82 492.37
  L 344.06 497.38
  L 330.96 501.73
  L 317.73 505.35
  L 304.21 508.29
  L 290.48 510.51
  L 276.69 512.00
  L 233.95 512.00
  L 217.04 509.54
  L 209.23 508.19
  L 201.52 506.61
  L 193.79 504.79
  L 186.16 502.74
  L 178.64 500.48
  L 171.22 497.99
  L 163.81 495.26
  L 156.52 492.31
  L 149.29 489.12
  L 142.19 485.73
  L 135.21 482.13
  L 128.37 478.32
  L 121.61 474.29
  L 114.99 470.06
  L 108.51 465.64
  L 102.18 461.02
  L 95.97 456.19
  L 89.91 451.18
  L 84.01 445.98
  L 78.28 440.61
  L 72.72 435.07
  L 67.33 429.37
  L 62.12 423.49
  L 57.09 417.46
  L 52.26 411.29
  L 47.61 404.96
  L 43.16 398.49
  L 38.90 391.87
  L 34.87 385.16
  L 31.04 378.32
  L 27.41 371.35
  L 24.00 364.25
  L 19.52 353.96
  L 15.48 343.44
  L 11.92 332.79
  L 8.82 321.93
  L 6.22 311.02
  L 4.08 299.93
  L 2.44 288.78
  L 1.27 277.48
  L 0.00 260.43
  L 0.00 252.20
  L 0.96 236.87
  L 2.02 225.75
  L 4.16 211.69
  L 7.06 197.72
  L 10.71 183.99
  L 15.08 170.59
  L 20.20 157.36
  L 26.01 144.51
  L 32.54 131.97
  L 39.73 119.85
  L 47.59 108.12
  L 56.07 96.85
  L 65.14 86.09
  L 74.78 75.86
  L 84.97 66.16
  L 95.68 57.04
  L 106.90 48.50
  L 118.59 40.58
  L 130.64 33.34
  L 143.12 26.75
  L 155.91 20.87
  L 169.07 15.67
  L 182.42 11.22
  L 196.09 7.48
  L 209.91 4.50
  L 224.00 2.24
  L 235.98 1.02
  L 252.07 0.00
  Z
  M 133.55 98.28
  L 126.91 98.59
  L 124.31 98.20
  L 122.27 98.17
  L 120.72 98.48
  L 119.61 99.13
  L 118.80 100.24
  L 118.33 101.74
  L 118.09 103.93
  L 118.05 107.33
  L 118.05 405.65
  L 118.07 408.94
  L 118.28 411.19
  L 118.72 412.75
  L 119.45 413.79
  L 120.40 414.36
  L 121.66 414.67
  L 126.30 414.77
  L 128.50 414.74
  L 341.74 414.75
  L 344.97 415.07
  L 345.99 414.95
  L 346.61 414.64
  L 391.42 414.71
  L 392.98 414.49
  L 394.09 413.83
  L 394.09 413.83
  L 394.09 413.83
  L 394.76 412.72
  L 394.98 411.16
  L 394.99 366.55
  L 394.98 365.92
  L 394.96 107.14
  L 394.98 104.11
  L 394.76 101.93
  L 394.28 100.35
  L 393.47 99.24
  L 392.29 98.54
  L 390.67 98.20
  L 388.51 98.19
  L 385.53 98.50
  L 379.51 98.41
  L 379.51 83.52
  L 379.36 83.15
  L 378.99 83.00
  L 369.26 83.00
  L 368.92 83.14
  L 368.78 83.48
  L 368.76 98.14
  L 346.01 98.16
  L 346.01 83.52
  L 345.86 83.15
  L 345.49 83.00
  L 335.51 83.00
  L 335.17 83.14
  L 335.03 83.48
  L 335.01 98.13
  L 312.26 98.17
  L 312.26 83.52
  L 312.11 83.15
  L 311.74 83.00
  L 302.01 83.00
  L 301.67 83.14
  L 301.53 83.48
  L 301.51 98.31
  L 278.76 98.27
  L 278.76 83.52
  L 278.61 83.15
  L 278.24 83.00
  L 268.51 83.00
  L 268.17 83.14
  L 268.03 83.48
  L 268.01 98.17
  L 245.02 98.13
  L 245.06 83.58
  L 244.92 83.15
  L 244.47 83.00
  L 234.79 83.00
  L 234.42 83.12
  L 234.29 83.51
  L 234.26 98.22
  L 211.41 98.30
  L 211.44 83.67
  L 211.27 83.17
  L 210.77 83.00
  L 201.29 83.00
  L 200.92 83.13
  L 200.79 83.50
  L 200.76 98.14
  L 178.01 98.16
  L 178.01 83.52
  L 177.86 83.15
  L 177.49 83.00
  L 167.51 83.00
  L 167.17 83.14
  L 167.03 83.48
  L 167.01 98.14
  L 144.26 98.22
  L 144.26 83.53
  L 144.10 83.16
  L 143.73 83.00
  L 134.04 83.00
  L 133.67 83.13
  L 133.54 83.50
  L 133.55 98.28
  Z"
/>
<path fill="#324a5e" d="
  M 144.26 98.22
  L 144.26 112.32
  L 144.24 115.76
  L 144.11 116.13
  L 143.74 116.25
  L 134.20 116.25
  L 133.70 116.09
  L 133.53 115.59
  L 133.51 111.77
  L 133.55 98.28
  L 133.54 83.50
  L 133.67 83.13
  L 134.04 83.00
  L 143.73 83.00
  L 144.02 83.09
  L 144.26 83.53
  L 144.26 98.22
  Z"
/>
<path fill="#324a5e" d="
  M 178.01 98.16
  L 177.99 112.05
  L 177.89 115.71
  L 177.74 116.12
  L 177.33 116.25
  L 167.69 116.25
  L 167.27 116.11
  L 167.11 115.68
  L 167.01 112.29
  L 167.01 98.14
  L 167.03 83.48
  L 167.17 83.14
  L 167.51 83.00
  L 177.49 83.00
  L 177.86 83.15
  L 178.01 83.52
  L 178.01 98.16
  Z"
/>
<path fill="#324a5e" d="
  M 211.41 98.30
  L 211.40 112.32
  L 211.48 115.76
  L 211.36 116.13
  L 211.00 116.25
  L 201.26 116.25
  L 200.89 116.13
  L 200.76 115.76
  L 200.75 112.01
  L 200.76 98.14
  L 200.79 83.50
  L 200.92 83.13
  L 201.29 83.00
  L 210.77 83.00
  L 211.27 83.17
  L 211.44 83.67
  L 211.41 98.30
  Z"
/>
<path fill="#324a5e" d="
  M 245.02 98.13
  L 245.13 112.31
  L 245.00 115.75
  L 244.86 116.13
  L 244.48 116.25
  L 234.76 116.25
  L 234.39 116.13
  L 234.26 115.76
  L 234.25 112.02
  L 234.26 98.22
  L 234.29 83.51
  L 234.42 83.12
  L 234.79 83.00
  L 244.47 83.00
  L 244.92 83.15
  L 245.06 83.58
  L 245.02 98.13
  Z"
/>
<path fill="#324a5e" d="
  M 278.76 98.27
  L 278.76 112.33
  L 278.74 115.76
  L 278.61 116.13
  L 278.24 116.25
  L 268.50 116.25
  L 268.14 116.13
  L 268.01 115.76
  L 268.00 112.30
  L 268.01 98.17
  L 268.03 83.48
  L 268.17 83.14
  L 268.51 83.00
  L 278.24 83.00
  L 278.61 83.15
  L 278.76 83.52
  L 278.76 98.27
  Z"
/>
<path fill="#324a5e" d="
  M 312.26 98.17
  L 312.26 112.31
  L 312.24 115.76
  L 312.11 116.13
  L 311.74 116.25
  L 302.01 116.25
  L 301.64 116.13
  L 301.51 115.76
  L 301.50 112.03
  L 301.51 98.31
  L 301.53 83.48
  L 301.67 83.14
  L 302.01 83.00
  L 311.74 83.00
  L 312.11 83.15
  L 312.26 83.52
  L 312.26 98.17
  Z"
/>
<path fill="#324a5e" d="
  M 346.01 98.16
  L 345.99 111.77
  L 345.89 115.71
  L 345.74 116.12
  L 345.33 116.25
  L 335.69 116.25
  L 335.26 116.11
  L 335.11 115.68
  L 335.01 111.79
  L 335.01 98.13
  L 335.03 83.48
  L 335.17 83.14
  L 335.51 83.00
  L 345.49 83.00
  L 345.86 83.15
  L 346.01 83.52
  L 346.01 98.16
  Z"
/>
<path fill="#324a5e" d="
  M 379.51 98.41
  L 379.51 112.31
  L 379.49 115.76
  L 379.36 116.13
  L 378.99 116.25
  L 369.26 116.25
  L 368.89 116.13
  L 368.76 115.76
  L 368.75 112.01
  L 368.76 98.14
  L 368.78 83.48
  L 368.92 83.14
  L 369.26 83.00
  L 378.99 83.00
  L 379.36 83.15
  L 379.51 83.52
  L 379.51 98.41
  Z"
/>
<path fill="#ffffff" d="
  M 167.01 98.14
  L 167.01 112.29
  L 164.73 111.99
  L 164.27 112.09
  L 164.11 112.52
  L 163.95 119.22
  L 163.95 119.23
  L 164.17 119.77
  L 164.72 120.00
  L 180.00 120.00
  L 180.56 119.81
  L 180.75 119.25
  L 180.75 112.93
  L 180.62 112.44
  L 180.21 112.13
  L 179.23 111.93
  L 177.99 112.05
  L 178.01 98.16
  L 200.76 98.14
  L 200.75 112.01
  L 198.41 112.02
  L 198.00 112.15
  L 197.86 112.56
  L 197.71 119.34
  L 197.89 119.80
  L 198.34 120.00
  L 198.35 120.00
  L 214.00 120.00
  L 214.38 119.88
  L 214.50 119.50
  L 214.51 112.72
  L 214.36 112.24
  L 213.90 112.02
  L 212.73 112.01
  L 211.40 112.32
  L 211.41 98.30
  L 234.26 98.22
  L 234.25 112.02
  L 231.91 112.03
  L 231.42 112.20
  L 231.25 112.69
  L 231.25 119.50
  L 231.38 119.88
  L 231.75 120.00
  L 247.50 120.00
  L 247.88 119.88
  L 248.00 119.50
  L 248.00 112.99
  L 247.86 112.46
  L 247.46 112.11
  L 246.53 111.87
  L 246.53 111.87
  L 245.83 111.97
  L 245.13 112.31
  L 245.02 98.13
  L 268.01 98.17
  L 268.00 112.30
  L 265.57 111.99
  L 265.17 112.07
  L 265.02 112.47
  L 264.95 119.47
  L 265.10 119.84
  L 265.47 120.00
  L 265.47 120.00
  L 281.00 120.00
  L 281.56 119.81
  L 281.75 119.25
  L 281.75 112.96
  L 281.55 112.38
  L 281.05 112.05
  L 279.98 111.99
  L 278.76 112.33
  L 278.76 98.27
  L 301.51 98.31
  L 301.50 112.03
  L 299.14 112.07
  L 298.65 112.24
  L 298.50 112.71
  L 298.50 119.13
  L 298.50 119.13
  L 298.76 119.75
  L 299.38 120.00
  L 314.75 120.00
  L 315.13 119.88
  L 315.25 119.50
  L 315.25 112.77
  L 315.13 112.38
  L 314.80 112.18
  L 314.63 112.14
  L 314.63 112.14
  L 313.48 112.06
  L 312.26 112.31
  L 312.26 98.17
  L 335.01 98.13
  L 335.01 111.79
  L 332.69 112.02
  L 332.28 112.20
  L 332.14 112.60
  L 331.94 119.21
  L 332.16 119.76
  L 332.70 120.00
  L 332.70 120.00
  L 332.71 120.00
  L 348.00 120.00
  L 348.56 119.81
  L 348.75 119.25
  L 348.75 112.90
  L 348.58 112.36
  L 348.08 112.11
  L 345.99 111.77
  L 346.01 98.16
  L 368.76 98.14
  L 368.75 112.01
  L 366.23 112.01
  L 365.87 112.13
  L 365.75 112.50
  L 365.75 119.25
  L 365.97 119.78
  L 366.50 120.00
  L 382.00 120.00
  L 382.38 119.88
  L 382.50 119.50
  L 382.50 112.72
  L 382.34 112.23
  L 381.89 112.02
  L 381.42 111.98
  L 379.51 112.31
  L 379.51 98.41
  L 385.53 98.50
  L 386.43 98.84
  L 386.43 98.84
  L 388.88 100.17
  L 391.12 101.99
  L 393.14 104.31
  L 394.96 107.14
  L 394.98 365.92
  L 377.13 365.71
  L 359.31 365.90
  L 356.31 366.17
  L 353.72 366.83
  L 351.50 367.87
  L 349.68 369.28
  L 348.05 371.34
  L 346.89 373.85
  L 346.21 376.80
  L 345.99 380.17
  L 345.99 414.08
  L 345.84 414.52
  L 345.40 414.68
  L 341.74 414.75
  L 128.50 414.74
  L 125.25 413.41
  L 125.25 413.41
  L 125.25 413.41
  L 123.15 412.02
  L 121.25 410.26
  L 119.55 408.14
  L 118.05 405.65
  L 118.05 107.33
  L 119.66 104.59
  L 121.49 102.31
  L 123.54 100.47
  L 125.81 99.07
  L 126.91 98.59
  L 133.55 98.28
  L 133.51 111.77
  L 131.15 112.03
  L 130.67 112.24
  L 130.50 112.76
  L 130.50 119.34
  L 130.69 119.81
  L 131.16 120.00
  L 146.75 120.00
  L 147.13 119.88
  L 147.25 119.50
  L 147.25 112.73
  L 147.09 112.29
  L 146.68 112.05
  L 145.53 112.02
  L 144.26 112.32
  L 144.26 98.22
  L 167.01 98.14
  Z
  M 184.24 172.12
  L 182.18 170.51
  L 181.29 170.10
  L 180.50 169.97
  L 149.18 170.03
  L 146.79 170.19
  L 144.70 170.67
  L 143.03 171.45
  L 141.69 172.57
  L 140.91 173.64
  L 140.34 174.92
  L 139.97 176.43
  L 139.83 178.18
  L 139.77 206.07
  L 139.97 209.22
  L 140.54 211.78
  L 141.48 213.77
  L 142.76 215.23
  L 144.58 216.29
  L 146.75 216.80
  L 150.94 217.07
  L 157.38 217.16
  L 177.06 216.85
  L 179.46 216.64
  L 181.45 216.16
  L 183.14 215.38
  L 184.46 214.35
  L 185.75 212.56
  L 186.59 210.16
  L 187.01 207.06
  L 187.09 202.75
  L 186.87 192.63
  L 186.39 182.26
  L 207.68 160.87
  L 209.35 158.87
  L 210.10 157.16
  L 210.16 156.67
  L 210.07 155.67
  L 209.73 154.74
  L 209.11 153.83
  L 208.30 153.08
  L 207.35 152.53
  L 206.32 152.21
  L 205.35 152.17
  L 204.40 152.39
  L 203.19 153.19
  L 184.24 172.12
  Z
  M 336.99 177.26
  L 336.73 177.00
  L 218.77 177.00
  L 218.51 177.26
  L 218.51 186.68
  L 218.77 186.94
  L 336.73 186.94
  L 336.99 186.68
  L 336.99 177.26
  Z
  M 290.26 200.60
  L 290.08 200.18
  L 289.66 200.00
  L 219.10 200.00
  L 218.68 200.18
  L 218.50 200.60
  L 218.50 209.40
  L 218.68 209.82
  L 219.10 210.00
  L 289.66 210.00
  L 290.08 209.82
  L 290.26 209.40
  L 290.26 200.60
  Z
  M 184.26 246.86
  L 182.64 245.80
  L 180.45 245.01
  L 178.00 244.75
  L 150.68 244.73
  L 147.73 244.87
  L 145.37 245.31
  L 143.46 246.08
  L 142.05 247.16
  L 140.93 248.84
  L 140.21 251.17
  L 139.87 254.17
  L 139.77 259.14
  L 139.77 259.31
  L 139.77 280.40
  L 139.94 283.74
  L 140.46 286.38
  L 141.35 288.44
  L 142.60 289.95
  L 143.51 290.62
  L 144.59 291.16
  L 147.08 291.74
  L 151.43 292.01
  L 157.85 292.11
  L 176.95 291.78
  L 179.15 291.57
  L 181.07 291.07
  L 182.72 290.30
  L 184.10 289.24
  L 185.32 287.71
  L 186.19 285.83
  L 186.72 283.59
  L 186.91 280.99
  L 186.84 266.18
  L 186.48 256.70
  L 208.82 234.32
  L 209.76 233.04
  L 210.18 231.53
  L 209.97 229.95
  L 209.18 228.58
  L 207.95 227.58
  L 206.41 227.09
  L 205.40 227.11
  L 204.36 227.39
  L 203.40 227.91
  L 202.45 228.70
  L 184.26 246.86
  Z
  M 336.99 252.18
  L 336.86 251.88
  L 336.56 251.75
  L 218.92 251.75
  L 218.62 251.88
  L 218.49 252.18
  L 218.49 261.06
  L 218.62 261.36
  L 218.92 261.49
  L 336.56 261.49
  L 336.86 261.36
  L 336.99 261.06
  L 336.99 252.18
  Z
  M 290.24 275.26
  L 289.98 275.00
  L 218.76 275.00
  L 218.50 275.26
  L 218.50 284.50
  L 218.76 284.76
  L 289.98 284.76
  L 290.24 284.50
  L 290.24 275.26
  Z
  M 184.33 321.77
  L 181.76 320.35
  L 181.76 320.35
  L 179.70 319.76
  L 177.50 319.56
  L 149.01 319.63
  L 146.82 319.80
  L 144.93 320.25
  L 143.33 321.00
  L 142.02 322.03
  L 142.02 322.03
  L 142.02 322.03
  L 141.01 323.35
  L 140.29 324.95
  L 139.86 326.84
  L 139.72 329.01
  L 139.76 356.28
  L 139.90 358.85
  L 140.32 360.98
  L 141.02 362.69
  L 142.01 364.03
  L 143.57 365.18
  L 145.56 365.93
  L 148.13 366.37
  L 151.43 366.51
  L 175.04 366.48
  L 178.43 366.33
  L 181.07 365.85
  L 183.13 365.01
  L 184.65 363.82
  L 185.40 362.85
  L 185.99 361.69
  L 186.65 358.93
  L 187.07 353.37
  L 187.19 346.96
  L 187.01 339.71
  L 186.53 331.60
  L 208.50 309.50
  L 209.26 308.54
  L 209.74 307.53
  L 209.98 306.41
  L 209.94 305.31
  L 209.63 304.24
  L 209.09 303.31
  L 208.32 302.57
  L 207.38 302.07
  L 206.23 301.88
  L 204.94 302.08
  L 203.35 302.97
  L 201.29 304.81
  L 184.33 321.77
  Z
  M 337.00 326.83
  L 336.68 326.51
  L 218.82 326.51
  L 218.50 326.83
  L 218.50 335.93
  L 218.82 336.25
  L 336.68 336.25
  L 337.00 335.93
  L 337.00 326.83
  Z
  M 290.26 350.01
  L 290.00 349.75
  L 218.76 349.75
  L 218.50 350.01
  L 218.50 359.25
  L 218.76 359.51
  L 290.00 359.51
  L 290.26 359.25
  L 290.26 350.01
  Z"
/>
<path fill="#ced5e0" d="
  M 126.91 98.59
  L 125.81 99.07
  L 125.81 99.07
  L 123.54 100.47
  L 121.49 102.31
  L 119.66 104.59
  L 118.05 107.33
  L 118.09 103.93
  L 118.33 101.74
  L 118.80 100.24
  L 119.61 99.13
  L 120.72 98.48
  L 122.27 98.17
  L 124.31 98.20
  L 126.91 98.59
  Z"
/>
<path fill="#ced5e0" d="
  M 394.96 107.14
  L 393.14 104.31
  L 391.12 101.99
  L 388.88 100.17
  L 386.43 98.84
  L 386.43 98.84
  L 385.53 98.50
  L 388.51 98.19
  L 390.67 98.20
  L 392.29 98.54
  L 393.47 99.24
  L 394.28 100.35
  L 394.76 101.93
  L 394.98 104.11
  L 394.96 107.14
  Z"
/>
<path fill="#ced5e0" d="
  M 133.51 111.77
  L 133.53 115.59
  L 133.70 116.09
  L 134.20 116.25
  L 143.74 116.25
  L 144.11 116.13
  L 144.24 115.76
  L 144.26 112.32
  L 145.53 112.02
  L 146.68 112.05
  L 147.09 112.29
  L 147.25 112.73
  L 147.25 119.50
  L 147.13 119.88
  L 146.75 120.00
  L 131.16 120.00
  L 130.79 119.89
  L 130.50 119.34
  L 130.50 112.76
  L 130.67 112.24
  L 131.15 112.03
  L 133.51 111.77
  Z"
/>
<path fill="#ced5e0" d="
  M 234.25 112.02
  L 234.26 115.76
  L 234.39 116.13
  L 234.76 116.25
  L 244.48 116.25
  L 244.86 116.13
  L 245.00 115.75
  L 245.13 112.31
  L 245.83 111.97
  L 246.53 111.87
  L 246.53 111.87
  L 247.46 112.11
  L 247.86 112.46
  L 248.00 112.99
  L 248.00 119.50
  L 247.88 119.88
  L 247.50 120.00
  L 231.75 120.00
  L 231.38 119.88
  L 231.25 119.50
  L 231.25 112.69
  L 231.42 112.20
  L 231.91 112.03
  L 234.25 112.02
  Z"
/>
<path fill="#ced5e0" d="
  M 335.01 111.79
  L 335.11 115.68
  L 335.26 116.11
  L 335.69 116.25
  L 345.33 116.25
  L 345.74 116.12
  L 345.89 115.71
  L 345.99 111.77
  L 348.08 112.11
  L 348.58 112.36
  L 348.75 112.90
  L 348.75 119.25
  L 348.56 119.81
  L 348.00 120.00
  L 332.71 120.00
  L 332.70 120.00
  L 332.16 119.76
  L 331.94 119.21
  L 332.14 112.60
  L 332.28 112.20
  L 332.69 112.02
  L 335.01 111.79
  Z"
/>
<path fill="#ced5e0" d="
  M 167.01 112.29
  L 167.11 115.68
  L 167.27 116.11
  L 167.69 116.25
  L 177.33 116.25
  L 177.74 116.12
  L 177.89 115.71
  L 177.99 112.05
  L 179.23 111.93
  L 180.21 112.13
  L 180.62 112.44
  L 180.75 112.93
  L 180.75 119.25
  L 180.56 119.81
  L 180.00 120.00
  L 164.72 120.00
  L 164.17 119.77
  L 163.95 119.23
  L 163.95 119.22
  L 164.11 112.52
  L 164.27 112.09
  L 164.73 111.99
  L 167.01 112.29
  Z"
/>
<path fill="#ced5e0" d="
  M 200.75 112.01
  L 200.76 115.76
  L 200.89 116.13
  L 201.26 116.25
  L 211.00 116.25
  L 211.36 116.13
  L 211.48 115.76
  L 211.40 112.32
  L 212.73 112.01
  L 213.90 112.02
  L 214.36 112.24
  L 214.51 112.72
  L 214.50 119.50
  L 214.38 119.88
  L 214.00 120.00
  L 198.35 120.00
  L 198.34 120.00
  L 197.89 119.80
  L 197.71 119.34
  L 197.86 112.56
  L 198.00 112.15
  L 198.41 112.02
  L 200.75 112.01
  Z"
/>
<path fill="#ced5e0" d="
  M 268.00 112.30
  L 268.01 115.76
  L 268.14 116.13
  L 268.50 116.25
  L 278.24 116.25
  L 278.61 116.13
  L 278.74 115.76
  L 278.76 112.33
  L 279.98 111.99
  L 281.05 112.05
  L 281.55 112.38
  L 281.75 112.96
  L 281.75 119.25
  L 281.56 119.81
  L 281.00 120.00
  L 265.47 120.00
  L 265.10 119.84
  L 264.95 119.47
  L 265.02 112.47
  L 265.17 112.07
  L 265.57 111.99
  L 268.00 112.30
  Z"
/>
<path fill="#ced5e0" d="
  M 301.50 112.03
  L 301.51 115.76
  L 301.64 116.13
  L 302.01 116.25
  L 311.74 116.25
  L 312.11 116.13
  L 312.24 115.76
  L 312.26 112.31
  L 313.48 112.06
  L 314.63 112.14
  L 314.80 112.18
  L 315.13 112.38
  L 315.25 112.77
  L 315.25 119.50
  L 315.13 119.88
  L 314.75 120.00
  L 299.38 120.00
  L 298.76 119.75
  L 298.50 119.13
  L 298.50 112.71
  L 298.65 112.24
  L 299.14 112.07
  L 301.50 112.03
  Z"
/>
<path fill="#ced5e0" d="
  M 368.75 112.01
  L 368.76 115.76
  L 368.89 116.13
  L 369.26 116.25
  L 378.99 116.25
  L 379.36 116.13
  L 379.49 115.76
  L 379.51 112.31
  L 381.42 111.98
  L 381.89 112.02
  L 382.34 112.23
  L 382.50 112.72
  L 382.50 119.50
  L 382.38 119.88
  L 382.00 120.00
  L 366.50 120.00
  L 365.97 119.78
  L 365.75 119.25
  L 365.75 112.50
  L 365.87 112.13
  L 366.23 112.01
  L 368.75 112.01
  Z"
/>
<path fill="#ff7058" d="
  M 186.39 182.26
  L 177.57 191.12
  L 167.78 200.77
  L 166.61 201.65
  L 165.43 202.05
  L 164.25 202.03
  L 163.07 201.64
  L 161.78 200.86
  L 160.50 199.78
  L 157.69 196.49
  L 154.10 191.12
  L 152.85 189.16
  L 152.26 188.05
  L 151.96 186.99
  L 151.91 185.91
  L 152.13 184.92
  L 152.81 183.75
  L 153.82 182.87
  L 155.07 182.36
  L 156.45 182.26
  L 157.41 182.48
  L 158.36 182.94
  L 159.16 183.59
  L 159.90 184.48
  L 161.78 187.11
  L 164.29 190.69
  L 164.81 191.04
  L 165.42 190.89
  L 165.49 190.83
  L 177.69 178.53
  L 184.24 172.12
  L 203.19 153.19
  L 204.40 152.39
  L 205.35 152.17
  L 206.32 152.21
  L 207.35 152.53
  L 208.30 153.08
  L 209.11 153.83
  L 209.73 154.74
  L 210.07 155.67
  L 210.16 156.67
  L 210.10 157.16
  L 209.35 158.87
  L 207.68 160.87
  L 186.39 182.26
  Z"
/>
<path fill="#e6e9ee" d="
  M 184.24 172.12
  L 177.69 178.53
  L 148.61 178.42
  L 148.34 178.51
  L 148.25 178.78
  L 148.25 207.74
  L 148.39 208.09
  L 148.74 208.24
  L 177.31 208.27
  L 177.74 208.13
  L 177.88 207.69
  L 177.57 191.12
  L 186.39 182.26
  L 186.87 192.63
  L 187.09 202.75
  L 187.01 207.06
  L 186.59 210.16
  L 185.75 212.56
  L 184.46 214.35
  L 183.14 215.38
  L 181.45 216.16
  L 179.46 216.64
  L 177.06 216.85
  L 157.38 217.16
  L 150.94 217.07
  L 146.75 216.80
  L 144.58 216.29
  L 142.76 215.23
  L 141.48 213.77
  L 140.54 211.78
  L 139.97 209.22
  L 139.77 206.07
  L 139.83 178.18
  L 139.97 176.43
  L 140.34 174.92
  L 140.91 173.64
  L 141.69 172.57
  L 143.03 171.45
  L 144.70 170.67
  L 146.79 170.19
  L 149.18 170.03
  L 180.50 169.97
  L 181.29 170.10
  L 182.18 170.51
  L 184.24 172.12
  Z"
/>
<rect fill="#84dbff" x="218.51" y="177.00" width="118.48" height="9.94" rx="0.26"/>
<path fill="#ffffff" d="
  M 177.69 178.53
  L 165.49 190.83
  L 165.42 190.89
  L 164.81 191.04
  L 164.29 190.69
  L 161.78 187.11
  L 159.90 184.48
  L 159.16 183.59
  L 158.36 182.94
  L 157.41 182.48
  L 156.45 182.26
  L 155.07 182.36
  L 153.82 182.87
  L 152.81 183.75
  L 152.13 184.92
  L 151.91 185.91
  L 151.96 186.99
  L 152.26 188.05
  L 152.85 189.16
  L 154.10 191.12
  L 157.69 196.49
  L 160.50 199.78
  L 161.78 200.86
  L 163.07 201.64
  L 164.25 202.03
  L 165.43 202.05
  L 166.61 201.65
  L 167.78 200.77
  L 177.57 191.12
  L 177.88 207.69
  L 177.74 208.13
  L 177.31 208.27
  L 148.74 208.24
  L 148.39 208.09
  L 148.25 207.74
  L 148.25 178.78
  L 148.34 178.51
  L 148.61 178.42
  L 177.69 178.53
  Z"
/>
<rect fill="#84dbff" x="218.50" y="200.00" width="71.76" height="10.00" rx="0.60"/>
<path fill="#ff7058" d="
  M 186.48 256.70
  L 177.79 265.42
  L 167.30 275.84
  L 165.94 276.73
  L 164.34 277.01
  L 162.76 276.63
  L 161.46 275.65
  L 161.46 275.65
  L 161.30 275.46
  L 153.73 265.28
  L 152.77 263.81
  L 152.16 262.55
  L 151.88 261.42
  L 151.92 260.29
  L 152.23 259.37
  L 152.85 258.45
  L 154.07 257.37
  L 155.30 256.92
  L 156.19 256.94
  L 157.07 257.19
  L 158.96 258.43
  L 160.98 260.62
  L 163.38 263.98
  L 164.60 265.73
  L 164.95 265.96
  L 165.34 265.78
  L 177.73 253.39
  L 184.26 246.86
  L 202.45 228.70
  L 203.40 227.91
  L 204.36 227.39
  L 205.40 227.11
  L 206.41 227.09
  L 207.95 227.58
  L 209.18 228.58
  L 209.97 229.95
  L 210.18 231.53
  L 209.76 233.04
  L 208.82 234.32
  L 186.48 256.70
  Z"
/>
<path fill="#e6e9ee" d="
  M 184.26 246.86
  L 177.73 253.39
  L 148.78 253.24
  L 148.38 253.37
  L 148.25 253.76
  L 148.25 282.50
  L 148.40 282.85
  L 148.75 283.00
  L 177.49 283.00
  L 177.84 282.88
  L 177.95 282.55
  L 177.79 265.42
  L 186.48 256.70
  L 186.84 266.18
  L 186.91 280.99
  L 186.72 283.59
  L 186.19 285.83
  L 185.32 287.71
  L 184.10 289.24
  L 184.10 289.24
  L 184.10 289.24
  L 184.10 289.24
  L 184.10 289.24
  L 182.72 290.30
  L 181.07 291.07
  L 179.15 291.57
  L 176.95 291.78
  L 157.85 292.11
  L 151.43 292.01
  L 147.08 291.74
  L 144.59 291.16
  L 143.51 290.62
  L 142.60 289.95
  L 141.35 288.44
  L 140.46 286.38
  L 139.94 283.74
  L 139.77 280.40
  L 139.77 259.31
  L 139.77 259.14
  L 139.87 254.17
  L 140.21 251.17
  L 140.93 248.84
  L 142.05 247.16
  L 143.46 246.08
  L 145.37 245.31
  L 147.73 244.87
  L 150.68 244.73
  L 178.00 244.75
  L 180.45 245.01
  L 182.64 245.80
  L 184.26 246.86
  Z"
/>
<rect fill="#84dbff" x="218.49" y="251.75" width="118.50" height="9.74" rx="0.43"/>
<path fill="#ffffff" d="
  M 177.73 253.39
  L 165.34 265.78
  L 164.95 265.96
  L 164.60 265.73
  L 163.38 263.98
  L 160.98 260.62
  L 158.96 258.43
  L 157.07 257.19
  L 156.19 256.94
  L 155.30 256.92
  L 154.07 257.37
  L 152.85 258.45
  L 152.23 259.37
  L 151.92 260.29
  L 151.88 261.42
  L 152.16 262.55
  L 152.77 263.81
  L 153.73 265.28
  L 161.30 275.46
  L 161.46 275.65
  L 162.76 276.63
  L 164.34 277.01
  L 165.94 276.73
  L 167.30 275.84
  L 177.79 265.42
  L 177.95 282.55
  L 177.84 282.88
  L 177.49 283.00
  L 148.75 283.00
  L 148.40 282.85
  L 148.25 282.50
  L 148.25 253.76
  L 148.38 253.37
  L 148.78 253.24
  L 177.73 253.39
  Z"
/>
<rect fill="#84dbff" x="218.50" y="275.00" width="71.74" height="9.76" rx="0.26"/>
<path fill="#ff7058" d="
  M 186.53 331.60
  L 177.65 340.33
  L 166.98 350.74
  L 166.23 351.29
  L 165.45 351.58
  L 164.32 351.61
  L 163.16 351.24
  L 161.94 350.52
  L 160.55 349.35
  L 157.58 345.91
  L 153.82 340.36
  L 152.80 338.78
  L 152.04 337.08
  L 151.99 335.32
  L 152.68 333.70
  L 153.93 332.52
  L 155.52 331.90
  L 157.23 331.99
  L 158.31 332.51
  L 159.29 333.44
  L 164.45 340.49
  L 164.93 340.79
  L 165.46 340.63
  L 165.51 340.59
  L 177.76 328.30
  L 184.33 321.77
  L 201.29 304.81
  L 203.35 302.97
  L 204.94 302.08
  L 206.23 301.88
  L 207.38 302.07
  L 208.32 302.57
  L 209.09 303.31
  L 209.63 304.24
  L 209.94 305.31
  L 209.98 306.41
  L 209.74 307.53
  L 209.26 308.54
  L 208.50 309.50
  L 186.53 331.60
  Z"
/>
<path fill="#e6e9ee" d="
  M 184.33 321.77
  L 177.76 328.30
  L 148.68 328.10
  L 148.36 328.20
  L 148.25 328.52
  L 148.25 357.50
  L 148.40 357.85
  L 148.75 358.00
  L 177.50 358.00
  L 177.82 357.89
  L 177.92 357.57
  L 177.65 340.33
  L 186.53 331.60
  L 187.01 339.71
  L 187.19 346.96
  L 187.07 353.37
  L 186.65 358.93
  L 185.99 361.69
  L 185.40 362.85
  L 184.65 363.82
  L 183.13 365.01
  L 181.07 365.85
  L 178.43 366.33
  L 175.04 366.48
  L 151.43 366.51
  L 148.13 366.37
  L 145.56 365.93
  L 143.57 365.18
  L 142.01 364.03
  L 141.02 362.69
  L 140.32 360.98
  L 139.90 358.85
  L 139.76 356.28
  L 139.72 329.01
  L 139.86 326.84
  L 140.29 324.95
  L 141.01 323.35
  L 142.02 322.03
  L 142.02 322.03
  L 142.02 322.03
  L 143.33 321.00
  L 144.93 320.25
  L 146.82 319.80
  L 149.01 319.63
  L 177.50 319.56
  L 179.70 319.76
  L 181.76 320.35
  L 181.76 320.35
  L 184.33 321.77
  Z"
/>
<rect fill="#84dbff" x="218.50" y="326.51" width="118.50" height="9.74" rx="0.32"/>
<path fill="#ffffff" d="
  M 177.76 328.30
  L 165.51 340.59
  L 165.46 340.63
  L 164.93 340.79
  L 164.45 340.49
  L 159.29 333.44
  L 158.31 332.51
  L 157.23 331.99
  L 155.52 331.90
  L 153.93 332.52
  L 152.68 333.70
  L 151.99 335.32
  L 152.04 337.08
  L 152.80 338.78
  L 153.82 340.36
  L 157.58 345.91
  L 160.55 349.35
  L 161.94 350.52
  L 163.16 351.24
  L 164.32 351.61
  L 165.45 351.58
  L 166.23 351.29
  L 166.98 350.74
  L 177.65 340.33
  L 177.92 357.57
  L 177.82 357.89
  L 177.50 358.00
  L 148.75 358.00
  L 148.40 357.85
  L 148.25 357.50
  L 148.25 328.52
  L 148.36 328.20
  L 148.68 328.10
  L 177.76 328.30
  Z"
/>
<rect fill="#84dbff" x="218.50" y="349.75" width="71.76" height="9.76" rx="0.26"/>
<path fill="#e6e9ee" d="
  M 394.98 365.92
  L 394.99 366.55
  L 393.82 367.07
  L 393.33 367.72
  L 393.32 367.82
  L 370.07 390.84
  L 346.61 414.64
  L 345.99 414.95
  L 344.97 415.07
  L 341.74 414.75
  L 345.40 414.68
  L 345.84 414.52
  L 345.99 414.08
  L 345.99 380.17
  L 346.21 376.80
  L 346.89 373.85
  L 348.05 371.34
  L 349.68 369.28
  L 351.50 367.87
  L 353.72 366.83
  L 356.31 366.17
  L 359.31 365.90
  L 377.13 365.71
  L 394.98 365.92
  Z"
/>
<path fill="#ced5e0" d="
  M 394.99 366.55
  L 394.98 411.16
  L 394.76 412.72
  L 394.09 413.83
  L 392.98 414.49
  L 391.42 414.71
  L 346.61 414.64
  L 370.07 390.84
  L 393.32 367.82
  L 393.33 367.72
  L 393.33 367.72
  L 393.82 367.07
  L 394.99 366.55
  Z"
/>
<path fill="#ced5e0" d="
  M 118.05 405.65
  L 119.55 408.14
  L 121.25 410.26
  L 123.15 412.02
  L 125.25 413.41
  L 125.25 413.41
  L 125.25 413.41
  L 128.50 414.74
  L 126.30 414.77
  L 121.66 414.67
  L 120.40 414.36
  L 119.45 413.79
  L 118.72 412.75
  L 118.28 411.19
  L 118.07 408.94
  L 118.05 405.65
  Z"
/>
</svg>
