<?xml version="1.0" encoding="UTF-8" standalone="no"?>
<!DOCTYPE svg PUBLIC "-//W3C//DTD SVG 1.1//EN" "http://www.w3.org/Graphics/SVG/1.1/DTD/svg11.dtd">
<svg xmlns="http://www.w3.org/2000/svg" version="1.1" viewBox="0.00 0.00 1068.00 1083.00">
<g stroke-width="2.00" fill="none" stroke-linecap="butt">
<path stroke="#ebcebf" vector-effect="non-scaling-stroke" d="
  M 169.92 133.21
  L 171.46 119.42
  Q 171.52 118.84 170.96 118.97
  C 159.85 121.56 157.17 138.72 157.67 148.37
  Q 157.69 148.86 157.46 149.30
  C 152.89 157.91 145.38 166.36 139.63 174.31"
/>
<path stroke="#7a6f6a" vector-effect="non-scaling-stroke" d="
  M 166.03 164.26
  L 143.52 177.10"
/>
<path stroke="#2f4776" vector-effect="non-scaling-stroke" d="
  M 329.66 301.54
  Q 291.41 332.75 267.12 375.97"
/>
<path stroke="#a0a6cb" vector-effect="non-scaling-stroke" d="
  M 349.51 312.42
  C 348.77 312.97 348.16 313.59 347.32 313.99
  Q 331.49 321.59 319.26 334.23
  Q 318.89 334.62 318.33 335.37
  Q 317.74 336.17 317.30 336.43"
/>
<path stroke="#2f4776" vector-effect="non-scaling-stroke" d="
  M 317.30 336.43
  C 286.28 367.79 264.26 408.79 250.59 450.40
  Q 250.52 450.61 249.92 450.44"
/>
<path stroke="#1e2c64" vector-effect="non-scaling-stroke" d="
  M 258.87 576.97
  L 257.29 582.08"
/>
<path stroke="#4b2966" vector-effect="non-scaling-stroke" d="
  M 257.29 582.08
  L 254.93 589.05
  A 0.74 0.73 -69.7 0 1 253.96 589.50
  L 236.26 582.42"
/>
<path stroke="#768893" vector-effect="non-scaling-stroke" d="
  M 394.80 321.11
  C 368.49 394.02 361.92 474.76 370.48 551.48"
/>
<path stroke="#eb9b87" vector-effect="non-scaling-stroke" d="
  M 370.48 551.48
  C 346.67 548.08 317.97 560.45 297.34 571.86"
/>
<path stroke="#8e8bb9" vector-effect="non-scaling-stroke" d="
  M 297.34 571.86
  C 283.32 578.66 274.04 586.26 258.87 576.97"
/>
<path stroke="#768893" vector-effect="non-scaling-stroke" d="
  M 258.87 576.97
  C 274.97 525.63 287.26 473.15 293.60 419.57
  Q 298.42 378.89 317.30 336.43"
/>
<path stroke="#4b2966" vector-effect="non-scaling-stroke" d="
  M 471.08 810.67
  L 476.88 810.45"
/>
<path stroke="#632c8c" vector-effect="non-scaling-stroke" d="
  M 476.88 810.45
  Q 478.37 835.09 478.39 859.68"
/>
<path stroke="#632c8c" vector-effect="non-scaling-stroke" d="
  M 212.55 860.79
  C 207.28 874.10 197.99 886.42 183.55 889.87
  A 0.58 0.57 -16.2 0 0 183.14 890.61
  L 185.94 898.73"
/>
<path stroke="#632c8c" vector-effect="non-scaling-stroke" d="
  M 375.84 588.99
  C 334.62 595.35 297.37 593.24 257.29 582.08"
/>
<path stroke="#4b2966" vector-effect="non-scaling-stroke" d="
  M 405.14 600.36
  Q 391.30 600.53 377.96 597.89
  Q 377.43 597.79 377.34 597.25
  L 375.84 588.99"
/>
<path stroke="#1e2c64" vector-effect="non-scaling-stroke" d="
  M 375.84 588.99
  L 373.01 571.46"
/>
<path stroke="#7a6f6a" vector-effect="non-scaling-stroke" d="
  M 373.01 571.46
  L 370.84 555.27"
/>
<path stroke="#7b3c32" vector-effect="non-scaling-stroke" d="
  M 370.84 555.27
  L 370.48 551.48"
/>
<path stroke="#f0825e" vector-effect="non-scaling-stroke" d="
  M 389.89 303.10
  Q 378.53 309.74 365.26 307.89
  Q 364.58 307.80 365.03 308.32
  C 371.72 315.98 380.30 317.03 389.87 314.64"
/>
<path stroke="#ebcebf" vector-effect="non-scaling-stroke" d="
  M 389.97 318.90
  C 389.42 321.77 390.81 324.21 388.15 326.38
  Q 382.14 331.26 377.13 333.31
  C 369.21 336.55 358.94 336.67 351.61 331.74
  Q 351.16 331.44 351.17 330.91
  L 351.51 312.51"
/>
<path stroke="#f0825e" vector-effect="non-scaling-stroke" d="
  M 370.84 555.27
  C 348.70 554.54 328.51 561.74 309.66 572.75"
/>
<path stroke="#933f58" vector-effect="non-scaling-stroke" d="
  M 309.66 572.75
  L 297.34 571.86"
/>
<path stroke="#1e2c64" vector-effect="non-scaling-stroke" d="
  M 498.78 796.23
  C 503.71 808.96 515.43 855.02 497.85 862.25"
/>
<path stroke="#1e2c64" vector-effect="non-scaling-stroke" d="
  M 476.88 810.45
  L 475.34 802.00"
/>
<path stroke="#1e2c64" vector-effect="non-scaling-stroke" d="
  M 232.12 878.15
  C 227.64 891.59 215.29 908.52 201.63 913.83"
/>
<path stroke="#937290" vector-effect="non-scaling-stroke" d="
  M 373.01 571.46
  Q 341.21 574.42 309.66 572.75"
/>
<path stroke="#2f4776" vector-effect="non-scaling-stroke" d="
  M 423.24 561.74
  L 426.66 503.37
  Q 426.69 502.87 426.32 502.54
  C 390.99 470.29 380.01 425.61 388.11 379.27
  C 391.86 357.82 398.76 338.78 407.35 319.14"
/>
<path stroke="#f0825e" vector-effect="non-scaling-stroke" d="
  M 411.92 240.67
  L 408.11 253.90
  Q 407.16 257.18 406.87 253.78
  Q 405.38 236.88 403.49 221.31
  Q 403.29 219.67 402.35 218.45
  Q 402.04 218.04 401.54 218.02
  C 397.30 217.83 394.36 219.01 391.86 222.67
  Q 383.74 234.59 368.38 232.12
  Q 368.29 232.10 368.26 232.04
  Q 368.23 231.96 368.26 231.77
  Q 368.29 231.66 368.41 231.66
  Q 376.03 231.61 382.09 227.57
  C 385.41 225.37 387.58 221.15 390.61 218.28
  Q 392.03 216.95 390.23 217.69
  C 386.90 219.06 384.14 220.51 380.88 222.88
  Q 367.33 232.69 350.19 230.56
  Q 349.68 230.50 349.39 230.91
  Q 346.35 235.16 343.55 239.61
  C 342.74 240.91 342.11 241.11 340.63 241.01
  Q 340.22 240.98 340.12 241.37
  Q 337.43 251.29 338.25 261.51
  A 0.15 0.15 0.0 0 1 337.96 261.57
  L 330.32 241.83"
/>
<path stroke="#1e2c64" vector-effect="non-scaling-stroke" d="
  M 653.99 264.81
  Q 632.34 261.76 610.57 262.47
  A 0.40 0.40 0.0 0 0 610.54 263.27
  L 651.42 268.34"
/>
<path stroke="#2f4776" vector-effect="non-scaling-stroke" d="
  M 475.68 402.66
  Q 451.95 414.16 427.19 423.64
  Q 426.84 423.77 426.84 424.15
  L 427.31 477.92
  A 0.51 0.51 0.0 0 1 426.41 478.25
  C 407.38 455.40 409.29 415.44 412.39 388.82
  Q 416.53 353.23 425.34 320.13"
/>
<path stroke="#484a9c" vector-effect="non-scaling-stroke" d="
  M 881.14 285.98
  C 878.62 300.91 882.83 311.62 889.97 324.29
  C 901.03 343.88 895.93 366.28 879.19 380.68
  Q 873.43 385.64 861.95 389.34"
/>
<path stroke="#986a5f" vector-effect="non-scaling-stroke" d="
  M 845.63 389.59
  L 828.92 380.56"
/>
<path stroke="#937290" vector-effect="non-scaling-stroke" d="
  M 828.92 380.56
  Q 826.93 374.49 828.23 368.14
  A 1.16 1.12 33.9 0 0 828.04 367.25
  C 822.81 359.75 823.50 349.27 826.15 340.95
  Q 826.34 340.33 826.73 340.86
  Q 829.29 344.37 832.67 347.01
  C 839.04 351.99 850.31 349.24 855.83 345.05
  Q 861.31 340.89 865.81 331.09
  C 872.01 317.60 875.24 301.66 869.98 287.50
  A 0.48 0.48 0.0 0 0 869.20 287.32
  C 857.94 298.27 841.54 309.43 825.06 307.72
  C 819.74 307.17 817.07 306.94 812.77 308.04
  C 803.10 310.52 815.91 320.89 818.87 322.79
  C 821.62 324.57 823.22 326.70 820.45 329.46
  Q 812.81 337.07 803.42 331.51
  Q 802.99 331.26 802.93 331.76
  C 801.88 341.34 794.46 349.55 787.38 355.43"
/>
<path stroke="#986a5f" vector-effect="non-scaling-stroke" d="
  M 787.38 355.43
  C 785.06 354.07 783.38 352.28 780.64 351.90
  C 756.04 348.47 731.95 367.69 723.20 389.74"
/>
<path stroke="#933f58" vector-effect="non-scaling-stroke" d="
  M 723.20 389.74
  Q 719.53 399.17 719.48 408.65"
/>
<path stroke="#933f58" vector-effect="non-scaling-stroke" d="
  M 719.18 411.33
  Q 718.51 424.57 720.12 438.96"
/>
<path stroke="#986a5f" vector-effect="non-scaling-stroke" d="
  M 720.12 438.96
  Q 720.46 446.56 720.87 455.32
  Q 721.35 465.72 719.96 476.05
  Q 716.49 501.90 700.66 520.83"
/>
<path stroke="#933f58" vector-effect="non-scaling-stroke" d="
  M 700.66 520.83
  Q 694.01 528.17 686.98 532.61
  A 1.03 1.02 61.5 0 0 686.60 533.91
  Q 690.65 542.53 691.68 552.01
  A 0.71 0.69 73.2 0 1 691.31 552.72
  L 671.14 563.25"
/>
<path stroke="#484a9c" vector-effect="non-scaling-stroke" d="
  M 659.61 486.02
  Q 659.83 487.96 661.05 488.78"
/>
<path stroke="#933f58" vector-effect="non-scaling-stroke" d="
  M 677.80 517.35
  L 684.92 529.85
  Q 685.21 530.37 685.70 530.02
  Q 694.93 523.35 700.88 514.22"
/>
<path stroke="#986a5f" vector-effect="non-scaling-stroke" d="
  M 700.88 514.22
  C 714.37 494.63 718.03 472.47 715.65 449.05"
/>
<path stroke="#933f58" vector-effect="non-scaling-stroke" d="
  M 715.65 449.05
  L 714.06 421.17"
/>
<path stroke="#933f58" vector-effect="non-scaling-stroke" d="
  M 715.38 400.47
  Q 717.27 391.43 720.80 383.87"
/>
<path stroke="#986a5f" vector-effect="non-scaling-stroke" d="
  M 720.80 383.87
  C 731.68 363.26 755.08 345.01 779.83 350.45
  A 0.10 0.10 0.0 0 0 779.91 350.28
  Q 760.47 336.00 745.96 317.21"
/>
<path stroke="#986a5f" vector-effect="non-scaling-stroke" d="
  M 726.80 287.58
  Q 707.11 249.92 702.32 207.11
  Q 702.22 206.21 701.82 206.06
  Q 701.31 205.87 700.39 206.52"
/>
<path stroke="#937290" vector-effect="non-scaling-stroke" d="
  M 700.39 206.52
  L 696.73 191.48
  Q 696.61 191.00 696.72 190.51
  Q 698.11 184.34 697.94 178.00
  A 0.56 0.56 0.0 0 0 696.93 177.69
  L 694.21 181.47
  A 0.56 0.55 60.0 0 1 693.21 181.20
  C 692.76 177.17 694.24 172.35 690.74 169.65
  C 685.94 165.94 676.17 171.55 675.16 177.06
  C 674.41 181.11 675.27 185.78 676.20 190.28
  C 677.74 197.80 678.19 204.50 678.80 211.79"
/>
<path stroke="#986a5f" vector-effect="non-scaling-stroke" d="
  M 678.80 211.79
  L 678.16 211.74
  Q 677.63 211.70 677.65 212.24
  Q 678.69 237.98 681.60 263.01"
/>
<path stroke="#933f58" vector-effect="non-scaling-stroke" d="
  M 681.60 263.01
  L 681.69 270.00"
/>
<path stroke="#1e2c64" vector-effect="non-scaling-stroke" d="
  M 657.14 260.11
  Q 640.50 252.30 626.34 241.73"
/>
<path stroke="#933f58" vector-effect="non-scaling-stroke" d="
  M 681.93 271.97
  L 682.78 277.44"
/>
<path stroke="#f5792d" vector-effect="non-scaling-stroke" d="
  M 715.65 449.05
  C 706.60 469.65 700.91 491.77 700.88 514.22"
/>
<path stroke="#a5596a" vector-effect="non-scaling-stroke" d="
  M 686.64 485.19
  L 688.47 479.83"
/>
<path stroke="#f5ad65" vector-effect="non-scaling-stroke" d="
  M 700.39 206.52
  C 695.00 209.68 684.93 213.77 678.80 211.79"
/>
<path stroke="#f5ad65" vector-effect="non-scaling-stroke" d="
  M 828.92 380.56
  C 823.62 388.53 816.53 397.47 808.10 402.37
  C 800.94 406.53 794.41 401.85 791.56 395.44
  C 786.48 383.97 785.86 367.71 787.38 355.43"
/>
<path stroke="#f5792d" vector-effect="non-scaling-stroke" d="
  M 720.80 383.87
  Q 718.81 380.68 717.38 377.33
  Q 707.52 354.23 699.96 330.26
  Q 689.54 297.20 681.60 263.01"
/>
<path stroke="#f0825e" vector-effect="non-scaling-stroke" d="
  M 711.13 565.38
  L 697.22 570.79"
/>
<path stroke="#7b3c32" vector-effect="non-scaling-stroke" d="
  M 697.22 570.79
  L 671.12 579.61"
/>
<path stroke="#f5ad65" vector-effect="non-scaling-stroke" d="
  M 1029.74 401.98
  L 1039.18 417.96"
/>
<path stroke="#f5792d" vector-effect="non-scaling-stroke" d="
  M 988.48 454.07
  Q 988.55 453.59 988.29 453.38
  Q 988.09 453.23 987.69 453.34
  C 943.79 464.21 895.49 460.84 851.99 449.05
  Q 851.51 448.92 851.15 449.26
  Q 839.56 460.27 832.80 475.02"
/>
<path stroke="#aa8471" vector-effect="non-scaling-stroke" d="
  M 817.14 535.07
  L 812.39 538.28"
/>
<path stroke="#806739" vector-effect="non-scaling-stroke" d="
  M 812.39 538.28
  Q 794.36 532.24 775.94 537.10"
/>
<path stroke="#f5ad65" vector-effect="non-scaling-stroke" d="
  M 775.94 537.10
  Q 766.39 539.66 755.44 545.44
  Q 736.30 555.53 711.13 565.38"
/>
<path stroke="#f5792d" vector-effect="non-scaling-stroke" d="
  M 711.13 565.38
  Q 702.12 544.52 700.66 520.83"
/>
<path stroke="#f5792d" vector-effect="non-scaling-stroke" d="
  M 720.12 438.96
  Q 727.55 424.25 736.46 411.55
  Q 736.75 411.14 736.45 410.74
  Q 729.26 400.98 723.20 389.74"
/>
<path stroke="#7a6f6a" vector-effect="non-scaling-stroke" d="
  M 697.53 579.00
  L 697.22 570.79"
/>
<path stroke="#484a9c" vector-effect="non-scaling-stroke" d="
  M 858.32 701.47
  Q 857.26 701.63 857.02 702.21
  Q 856.85 702.62 856.82 702.67
  Q 837.13 733.02 809.58 756.69"
/>
<path stroke="#a48da2" vector-effect="non-scaling-stroke" d="
  M 809.58 756.69
  Q 802.22 753.95 794.12 748.60"
/>
<path stroke="#484a9c" vector-effect="non-scaling-stroke" d="
  M 794.12 748.60
  C 791.62 712.23 804.04 673.48 820.94 641.65
  Q 822.15 639.37 820.45 641.31
  C 800.09 664.54 772.70 687.05 742.17 693.80"
/>
<path stroke="#a48da2" vector-effect="non-scaling-stroke" d="
  M 698.76 590.25
  Q 699.47 590.31 699.17 590.15
  C 717.82 569.65 749.78 558.96 776.04 553.13"
/>
<path stroke="#2f4776" vector-effect="non-scaling-stroke" d="
  M 793.96 551.25
  L 812.39 538.28"
/>
<path stroke="#7a6f6a" vector-effect="non-scaling-stroke" d="
  M 776.00 551.78
  L 775.94 537.10"
/>
<path stroke="#937290" vector-effect="non-scaling-stroke" d="
  M 794.12 748.60
  L 793.21 753.83"
/>
<path stroke="#1e2c64" vector-effect="non-scaling-stroke" d="
  M 793.21 753.83
  Q 790.87 755.33 791.37 756.68"
/>
<path stroke="#937290" vector-effect="non-scaling-stroke" d="
  M 791.37 756.68
  L 786.16 765.51"
/>
<path stroke="#1e2c64" vector-effect="non-scaling-stroke" d="
  M 786.16 765.51
  Q 778.11 776.19 779.00 790.00
  Q 779.08 791.28 778.12 790.97"
/>
<path stroke="#933f58" vector-effect="non-scaling-stroke" d="
  M 833.95 1000.22
  L 812.38 1000.31
  Q 812.09 1000.31 811.88 1000.51
  Q 811.71 1000.68 811.60 1000.67"
/>
<path stroke="#1e2c64" vector-effect="non-scaling-stroke" d="
  M 785.91 817.15
  L 792.70 799.67"
/>
<path stroke="#937290" vector-effect="non-scaling-stroke" d="
  M 792.70 799.67
  L 805.54 767.36"
/>
<path stroke="#1e2c64" vector-effect="non-scaling-stroke" d="
  M 805.54 767.36
  Q 807.67 767.20 808.54 763.01
  Q 808.75 762.02 807.66 761.79"
/>
<path stroke="#937290" vector-effect="non-scaling-stroke" d="
  M 807.66 761.79
  Q 809.52 758.71 809.58 756.69"
/>
<path stroke="#7a6f6a" vector-effect="non-scaling-stroke" d="
  M 807.66 761.79
  L 793.21 753.83"
/>
<path stroke="#7a6f6a" vector-effect="non-scaling-stroke" d="
  M 792.70 799.67
  L 788.85 804.88
  A 1.42 1.42 0.0 0 1 786.35 804.44
  Q 785.21 800.60 785.11 796.24
  Q 784.78 781.21 786.16 765.51"
/>
<path stroke="#7a6f6a" vector-effect="non-scaling-stroke" d="
  M 805.54 767.36
  L 791.37 756.68"
/>
<path stroke="#7b3c32" vector-effect="non-scaling-stroke" d="
  M 834.03 1000.79
  Q 833.83 1001.22 833.50 1001.25
  Q 822.30 1002.23 811.38 1003.39"
/>
<path stroke="#7b3c32" vector-effect="non-scaling-stroke" d="
  M 834.93 1008.12
  L 827.10 1007.89"
/>
<path stroke="#7a6f6a" vector-effect="non-scaling-stroke" d="
  M 827.10 1007.89
  L 811.57 1007.24"
/>
<path stroke="#f0825e" vector-effect="non-scaling-stroke" d="
  M 827.10 1007.89
  L 835.44 1011.15"
/>
<path stroke="#7a6f6a" vector-effect="non-scaling-stroke" d="
  M 842.57 1050.20
  Q 841.85 1053.91 841.15 1057.48
  C 840.76 1059.46 839.19 1059.73 837.68 1058.62
  Q 834.13 1056.01 832.03 1053.21
  Q 821.18 1038.70 811.44 1019.86"
/>
<path stroke="#8e8bb9" vector-effect="non-scaling-stroke" d="
  M 754.76 141.80
  C 745.05 114.98 721.15 95.28 691.98 93.82
  Q 687.21 93.58 682.45 93.27
  Q 682.30 93.26 682.26 93.39
  Q 682.25 93.47 682.26 93.52
  Q 682.29 93.61 682.46 93.63
  Q 731.03 100.22 754.37 141.98
  Q 755.66 144.28 754.76 141.80"
/>
<path stroke="#a0a6cb" vector-effect="non-scaling-stroke" d="
  M 297.58 335.09
  Q 282.40 352.09 272.26 372.51
  Q 272.13 372.77 272.30 372.92
  Q 272.56 373.15 272.73 372.85
  Q 285.91 348.94 304.44 328.93
  Q 305.39 327.91 304.28 328.76
  Q 300.88 331.39 297.58 335.09"
/>
<path stroke="#a0a6cb" vector-effect="non-scaling-stroke" d="
  M 393.34 364.25
  C 386.15 385.10 385.20 409.75 392.17 431.31
  Q 392.19 431.40 392.28 431.43
  Q 392.43 431.48 392.58 431.53
  Q 392.73 431.59 392.69 431.43
  C 387.49 410.76 389.13 384.29 393.97 364.43
  Q 395.66 357.52 393.34 364.25"
/>
</g>
<g fill="#362f8a">
<path d="
  M 881.14 285.98
  C 878.62 300.91 882.83 311.62 889.97 324.29
  C 901.03 343.88 895.93 366.28 879.19 380.68
  Q 873.43 385.64 861.95 389.34
  Q 854.50 390.42 845.63 389.59
  L 828.92 380.56
  Q 826.93 374.49 828.23 368.14
  A 1.16 1.12 33.9 0 0 828.04 367.25
  C 822.81 359.75 823.50 349.27 826.15 340.95
  Q 826.34 340.33 826.73 340.86
  Q 829.29 344.37 832.67 347.01
  C 839.04 351.99 850.31 349.24 855.83 345.05
  Q 861.31 340.89 865.81 331.09
  C 872.01 317.60 875.24 301.66 869.98 287.50
  A 0.48 0.48 0.0 0 0 869.20 287.32
  C 857.94 298.27 841.54 309.43 825.06 307.72
  C 819.74 307.17 817.07 306.94 812.77 308.04
  C 803.10 310.52 815.91 320.89 818.87 322.79
  C 821.62 324.57 823.22 326.70 820.45 329.46
  Q 812.81 337.07 803.42 331.51
  Q 802.99 331.26 802.93 331.76
  C 801.88 341.34 794.46 349.55 787.38 355.43
  C 785.06 354.07 783.38 352.28 780.64 351.90
  C 756.04 348.47 731.95 367.69 723.20 389.74
  Q 719.53 399.17 719.48 408.65
  Q 718.71 410.23 719.18 411.33
  Q 718.51 424.57 720.12 438.96
  Q 720.46 446.56 720.87 455.32
  Q 721.35 465.72 719.96 476.05
  Q 716.49 501.90 700.66 520.83
  Q 694.01 528.17 686.98 532.61
  A 1.03 1.02 61.5 0 0 686.60 533.91
  Q 690.65 542.53 691.68 552.01
  A 0.71 0.69 73.2 0 1 691.31 552.72
  L 671.14 563.25
  Q 670.55 563.19 669.91 563.54
  Q 668.86 564.11 668.85 564.12
  Q 633.16 579.78 591.99 583.44
  C 574.67 584.98 568.04 578.05 565.24 561.75
  Q 559.04 525.64 559.17 489.00
  Q 559.20 481.44 566.28 481.53
  Q 568.41 481.56 576.53 482.73
  C 604.25 486.74 628.21 479.00 654.34 471.49
  Q 654.87 471.33 655.04 471.87
  L 659.61 486.02
  Q 659.83 487.96 661.05 488.78
  Q 660.88 489.34 661.06 489.69
  Q 668.62 503.80 677.80 517.35
  L 684.92 529.85
  Q 685.21 530.37 685.70 530.02
  Q 694.93 523.35 700.88 514.22
  C 714.37 494.63 718.03 472.47 715.65 449.05
  L 714.06 421.17
  L 715.38 400.47
  Q 717.27 391.43 720.80 383.87
  C 731.68 363.26 755.08 345.01 779.83 350.45
  A 0.10 0.10 0.0 0 0 779.91 350.28
  Q 760.47 336.00 745.96 317.21
  Q 742.61 306.67 739.44 300.05
  Q 735.55 291.93 726.80 287.58
  Q 707.11 249.92 702.32 207.11
  Q 702.22 206.21 701.82 206.06
  Q 701.31 205.87 700.39 206.52
  L 696.73 191.48
  Q 696.61 191.00 696.72 190.51
  Q 698.11 184.34 697.94 178.00
  A 0.56 0.56 0.0 0 0 696.93 177.69
  L 694.21 181.47
  A 0.56 0.55 60.0 0 1 693.21 181.20
  C 692.76 177.17 694.24 172.35 690.74 169.65
  C 685.94 165.94 676.17 171.55 675.16 177.06
  C 674.41 181.11 675.27 185.78 676.20 190.28
  C 677.74 197.80 678.19 204.50 678.80 211.79
  L 678.16 211.74
  Q 677.63 211.70 677.65 212.24
  Q 678.69 237.98 681.60 263.01
  L 681.69 270.00
  L 657.14 260.11
  Q 640.50 252.30 626.34 241.73
  C 608.26 228.84 596.24 212.50 593.96 190.01
  C 590.06 151.50 617.04 105.53 653.14 90.76
  C 693.74 74.16 730.54 82.89 753.32 121.44
  Q 756.16 126.25 762.90 140.82
  Q 773.10 162.87 788.77 181.35
  Q 790.21 183.04 792.31 183.91
  C 810.15 191.25 830.06 197.99 845.69 208.06
  C 863.88 219.79 874.12 240.13 878.98 261.76
  Q 880.07 266.58 881.14 285.98
  Z
  M 754.76 141.80
  C 745.05 114.98 721.15 95.28 691.98 93.82
  Q 687.21 93.58 682.45 93.27
  Q 682.30 93.26 682.26 93.39
  Q 682.25 93.47 682.26 93.52
  Q 682.29 93.61 682.46 93.63
  Q 731.03 100.22 754.37 141.98
  Q 755.66 144.28 754.76 141.80
  Z
  M 859.25 228.83
  C 844.85 210.48 824.06 203.02 803.45 194.26
  A 0.13 0.13 0.0 0 0 803.32 194.49
  C 821.53 207.02 842.53 215.28 858.87 229.20
  A 0.27 0.27 0.0 0 0 859.25 228.83
  Z"
/>
<path d="
  M 653.99 264.81
  Q 668.44 266.91 681.93 271.97
  L 682.78 277.44
  Q 667.07 271.04 651.42 268.34
  L 610.54 263.27
  A 0.40 0.40 0.0 0 1 610.57 262.47
  Q 632.34 261.76 653.99 264.81
  Z"
/>
<path d="
  M 373.01 571.46
  L 375.84 588.99
  C 334.62 595.35 297.37 593.24 257.29 582.08
  L 258.87 576.97
  C 274.04 586.26 283.32 578.66 297.34 571.86
  L 309.66 572.75
  Q 341.21 574.42 373.01 571.46
  Z"
/>
<path d="
  M 794.12 748.60
  L 793.21 753.83
  Q 790.87 755.33 791.37 756.68
  L 786.16 765.51
  Q 778.11 776.19 779.00 790.00
  Q 779.08 791.28 778.12 790.97
  Q 762.21 741.67 742.17 693.80
  C 772.70 687.05 800.09 664.54 820.45 641.31
  Q 822.15 639.37 820.94 641.65
  C 804.04 673.48 791.62 712.23 794.12 748.60
  Z"
/>
<path d="
  M 858.32 701.47
  C 861.88 740.13 861.80 779.05 859.80 818.43
  Q 855.18 909.56 840.52 999.10
  A 1.45 1.44 -84.9 0 1 839.07 1000.32
  L 833.95 1000.22
  L 812.38 1000.31
  Q 812.09 1000.31 811.88 1000.51
  Q 811.71 1000.68 811.60 1000.67
  L 809.90 1000.17
  Q 809.40 1000.02 809.45 999.49
  C 815.17 939.15 802.84 875.40 785.91 817.15
  L 792.70 799.67
  L 805.54 767.36
  Q 807.67 767.20 808.54 763.01
  Q 808.75 762.02 807.66 761.79
  Q 809.52 758.71 809.58 756.69
  Q 837.13 733.02 856.82 702.67
  Q 856.85 702.62 857.02 702.21
  Q 857.26 701.63 858.32 701.47
  Z"
/>
<path d="
  M 498.78 796.23
  C 503.71 808.96 515.43 855.02 497.85 862.25
  C 491.46 864.41 482.46 866.54 478.39 859.68
  Q 478.37 835.09 476.88 810.45
  L 475.34 802.00
  L 474.15 797.35
  A 0.52 0.52 0.0 0 1 474.49 796.72
  C 480.57 794.69 494.41 790.26 498.78 796.23
  Z"
/>
<path d="
  M 232.12 878.15
  C 227.64 891.59 215.29 908.52 201.63 913.83
  C 193.70 914.50 189.33 904.40 185.94 898.73
  L 183.14 890.61
  A 0.58 0.57 -16.2 0 1 183.55 889.87
  C 197.99 886.42 207.28 874.10 212.55 860.79
  L 214.02 857.53
  Q 214.20 857.11 214.61 857.31
  Q 229.11 864.43 232.12 878.15
  Z"
/>
</g>
<g fill="#faa434">
<path d="
  M 726.80 287.58
  Q 735.03 303.38 745.96 317.21
  Q 760.47 336.00 779.91 350.28
  A 0.10 0.10 0.0 0 1 779.83 350.45
  C 755.08 345.01 731.68 363.26 720.80 383.87
  Q 718.81 380.68 717.38 377.33
  Q 707.52 354.23 699.96 330.26
  Q 689.54 297.20 681.60 263.01
  Q 678.69 237.98 677.65 212.24
  Q 677.63 211.70 678.16 211.74
  L 678.80 211.79
  C 684.93 213.77 695.00 209.68 700.39 206.52
  Q 701.31 205.87 701.82 206.06
  Q 702.22 206.21 702.32 207.11
  Q 707.11 249.92 726.80 287.58
  Z"
/>
<path d="
  M 787.38 355.43
  C 785.86 367.71 786.48 383.97 791.56 395.44
  C 794.41 401.85 800.94 406.53 808.10 402.37
  C 816.53 397.47 823.62 388.53 828.92 380.56
  L 845.63 389.59
  C 902.69 418.08 969.54 428.36 1029.74 401.98
  L 1039.18 417.96
  Q 1017.32 440.63 988.48 454.07
  Q 988.55 453.59 988.29 453.38
  Q 988.09 453.23 987.69 453.34
  C 943.79 464.21 895.49 460.84 851.99 449.05
  Q 851.51 448.92 851.15 449.26
  Q 839.56 460.27 832.80 475.02
  Q 820.68 503.40 817.14 535.07
  L 812.39 538.28
  Q 794.36 532.24 775.94 537.10
  Q 766.39 539.66 755.44 545.44
  Q 736.30 555.53 711.13 565.38
  Q 702.12 544.52 700.66 520.83
  Q 716.49 501.90 719.96 476.05
  Q 721.35 465.72 720.87 455.32
  Q 720.46 446.56 720.12 438.96
  Q 727.55 424.25 736.46 411.55
  Q 736.75 411.14 736.45 410.74
  Q 729.26 400.98 723.20 389.74
  C 731.95 367.69 756.04 348.47 780.64 351.90
  C 783.38 352.28 785.06 354.07 787.38 355.43
  Z"
/>
<path d="
  M 715.65 449.05
  C 718.03 472.47 714.37 494.63 700.88 514.22
  C 700.91 491.77 706.60 469.65 715.65 449.05
  Z"
/>
</g>
<g fill="#e6e7e7">
<path d="
  M 169.92 133.21
  L 171.46 119.42
  Q 171.52 118.84 170.96 118.97
  C 159.85 121.56 157.17 138.72 157.67 148.37
  Q 157.69 148.86 157.46 149.30
  C 152.89 157.91 145.38 166.36 139.63 174.31
  L 110.19 214.08
  A 0.83 0.83 0.0 0 1 108.99 214.23
  L 0.94 126.59
  A 0.66 0.65 -49.5 0 1 0.87 125.65
  L 114.51 0.95
  A 0.66 0.65 40.3 0 1 115.40 0.88
  L 210.66 77.34
  Q 211.08 77.67 210.76 78.10
  L 169.92 133.21
  Z"
/>
<path d="
  M 691.98 93.82
  C 721.15 95.28 745.05 114.98 754.76 141.80
  Q 755.66 144.28 754.37 141.98
  Q 731.03 100.22 682.46 93.63
  Q 682.29 93.61 682.26 93.52
  Q 682.25 93.47 682.26 93.39
  Q 682.30 93.26 682.45 93.27
  Q 687.21 93.58 691.98 93.82
  Z"
/>
<path d="
  M 349.51 312.42
  L 351.51 312.51
  L 351.17 330.91
  Q 351.16 331.44 351.61 331.74
  C 358.94 336.67 369.21 336.55 377.13 333.31
  Q 382.14 331.26 388.15 326.38
  C 390.81 324.21 389.42 321.77 389.97 318.90
  L 394.80 321.11
  C 368.49 394.02 361.92 474.76 370.48 551.48
  C 346.67 548.08 317.97 560.45 297.34 571.86
  C 283.32 578.66 274.04 586.26 258.87 576.97
  C 274.97 525.63 287.26 473.15 293.60 419.57
  Q 298.42 378.89 317.30 336.43
  Q 317.74 336.17 318.33 335.37
  Q 318.89 334.62 319.26 334.23
  Q 331.49 321.59 347.32 313.99
  C 348.16 313.59 348.77 312.97 349.51 312.42
  Z"
/>
<path d="
  M 297.58 335.09
  Q 300.88 331.39 304.28 328.76
  Q 305.39 327.91 304.44 328.93
  Q 285.91 348.94 272.73 372.85
  Q 272.56 373.15 272.30 372.92
  Q 272.13 372.77 272.26 372.51
  Q 282.40 352.09 297.58 335.09
  Z"
/>
<path d="
  M 393.34 364.25
  Q 395.66 357.52 393.97 364.43
  C 389.13 384.29 387.49 410.76 392.69 431.43
  Q 392.73 431.59 392.58 431.53
  Q 392.43 431.48 392.28 431.43
  Q 392.19 431.40 392.17 431.31
  C 385.20 409.75 386.15 385.10 393.34 364.25
  Z"
/>
</g>
<path fill="#90288d" d="
  M 257.29 582.08
  C 297.37 593.24 334.62 595.35 375.84 588.99
  L 377.34 597.25
  Q 377.43 597.79 377.96 597.89
  Q 391.30 600.53 405.14 600.36
  C 394.70 648.50 384.41 699.39 379.73 749.21
  Q 378.28 764.56 378.80 769.15
  C 383.13 807.51 442.61 811.71 471.08 810.67
  L 476.88 810.45
  Q 478.37 835.09 478.39 859.68
  C 445.62 874.11 407.39 885.17 371.51 884.56
  Q 353.79 884.26 339.57 877.70
  C 323.96 870.48 316.22 857.83 310.62 842.21
  Q 303.67 822.81 299.97 800.75
  C 292.87 758.38 290.22 716.87 289.71 674.78
  A 0.39 0.38 83.7 0 0 289.25 674.41
  C 252.92 681.43 171.57 703.63 168.09 750.56
  C 166.71 769.27 173.60 790.09 182.01 808.00
  Q 195.00 835.64 212.55 860.79
  C 207.28 874.10 197.99 886.42 183.55 889.87
  A 0.58 0.57 -16.2 0 0 183.14 890.61
  L 185.94 898.73
  Q 151.94 870.46 126.17 835.32
  C 98.82 798.01 74.28 744.01 93.04 697.51
  C 106.56 664.01 137.62 637.77 167.36 618.63
  Q 199.95 597.65 236.26 582.42
  L 253.96 589.50
  A 0.74 0.73 -69.7 0 0 254.93 589.05
  L 257.29 582.08
  Z"
/>
<g fill="#5964ae">
<path d="
  M 881.14 285.98
  Q 883.43 294.82 887.19 302.55
  C 891.03 310.46 897.86 316.34 901.28 324.17
  C 916.35 358.63 900.02 387.54 861.95 389.34
  Q 873.43 385.64 879.19 380.68
  C 895.93 366.28 901.03 343.88 889.97 324.29
  C 882.83 311.62 878.62 300.91 881.14 285.98
  Z"
/>
<path d="
  M 349.51 312.42
  C 348.77 312.97 348.16 313.59 347.32 313.99
  Q 331.49 321.59 319.26 334.23
  Q 318.89 334.62 318.33 335.37
  Q 317.74 336.17 317.30 336.43
  C 286.28 367.79 264.26 408.79 250.59 450.40
  Q 250.52 450.61 249.92 450.44
  C 247.90 424.74 255.08 398.72 267.12 375.97
  Q 291.41 332.75 329.66 301.54
  C 335.52 297.02 349.82 305.67 349.51 312.42
  Z
  M 297.58 335.09
  Q 282.40 352.09 272.26 372.51
  Q 272.13 372.77 272.30 372.92
  Q 272.56 373.15 272.73 372.85
  Q 285.91 348.94 304.44 328.93
  Q 305.39 327.91 304.28 328.76
  Q 300.88 331.39 297.58 335.09
  Z"
/>
<path d="
  M 425.34 320.13
  Q 416.53 353.23 412.39 388.82
  C 409.29 415.44 407.38 455.40 426.41 478.25
  A 0.51 0.51 0.0 0 0 427.31 477.92
  L 426.84 424.15
  Q 426.84 423.77 427.19 423.64
  Q 451.95 414.16 475.68 402.66
  C 481.14 415.51 486.24 428.39 487.97 442.30
  C 488.79 448.89 484.97 453.74 484.47 459.98
  C 483.29 474.63 486.14 490.50 487.47 505.18
  C 488.45 516.03 488.13 528.71 483.92 538.67
  C 480.06 547.82 473.37 551.22 463.52 554.26
  Q 446.65 559.46 429.06 561.59
  Q 426.54 561.89 423.24 561.74
  L 426.66 503.37
  Q 426.69 502.87 426.32 502.54
  C 390.99 470.29 380.01 425.61 388.11 379.27
  C 391.86 357.82 398.76 338.78 407.35 319.14
  Q 410.18 312.76 419.99 310.71
  Q 425.11 309.63 426.82 313.63
  Q 427.04 314.12 426.89 314.65
  L 425.34 320.13
  Z
  M 393.34 364.25
  C 386.15 385.10 385.20 409.75 392.17 431.31
  Q 392.19 431.40 392.28 431.43
  Q 392.43 431.48 392.58 431.53
  Q 392.73 431.59 392.69 431.43
  C 387.49 410.76 389.13 384.29 393.97 364.43
  Q 395.66 357.52 393.34 364.25
  Z"
/>
<path d="
  M 688.47 479.83
  L 686.64 485.19
  Q 673.82 488.68 661.05 488.78
  Q 659.83 487.96 659.61 486.02
  Q 674.64 484.49 688.47 479.83
  Z"
/>
<path d="
  M 858.32 701.47
  Q 857.26 701.63 857.02 702.21
  Q 856.85 702.62 856.82 702.67
  Q 837.13 733.02 809.58 756.69
  Q 802.22 753.95 794.12 748.60
  C 791.62 712.23 804.04 673.48 820.94 641.65
  Q 822.15 639.37 820.45 641.31
  C 800.09 664.54 772.70 687.05 742.17 693.80
  L 741.97 693.60
  Q 741.85 693.48 741.68 693.50
  Q 725.69 695.93 712.28 687.19
  C 681.13 666.88 688.16 620.85 698.67 591.57
  C 698.82 591.15 698.73 590.69 698.76 590.25
  Q 699.47 590.31 699.17 590.15
  C 717.82 569.65 749.78 558.96 776.04 553.13
  L 776.10 563.14
  Q 776.11 563.80 776.65 563.42
  L 793.96 551.25
  L 812.39 538.28
  L 817.14 535.07
  Q 853.40 509.77 863.28 503.78
  C 872.00 498.49 884.83 492.77 894.58 498.48
  C 896.24 499.45 896.00 500.25 896.28 501.94
  C 907.70 571.48 896.67 639.53 859.12 699.14
  Q 858.34 700.38 858.32 701.47
  Z"
/>
</g>
<g fill="#05293e">
<path d="
  M 166.03 164.26
  C 199.14 230.81 257.99 281.03 329.66 301.54
  Q 291.41 332.75 267.12 375.97
  Q 267.02 375.84 266.97 375.72
  Q 266.89 375.55 266.77 375.43
  C 209.73 320.90 166.62 252.70 143.52 177.10
  L 166.03 164.26
  Z"
/>
<path d="
  M 626.34 241.73
  Q 640.50 252.30 657.14 260.11
  L 653.99 264.81
  Q 632.34 261.76 610.57 262.47
  A 0.40 0.40 0.0 0 0 610.54 263.27
  L 651.42 268.34
  C 633.29 293.88 611.04 315.84 586.21 335.22
  C 552.01 361.91 514.70 384.11 475.68 402.66
  Q 451.95 414.16 427.19 423.64
  Q 426.84 423.77 426.84 424.15
  L 427.31 477.92
  A 0.51 0.51 0.0 0 1 426.41 478.25
  C 407.38 455.40 409.29 415.44 412.39 388.82
  Q 416.53 353.23 425.34 320.13
  Q 474.69 319.41 520.02 302.52
  Q 577.52 281.09 626.34 241.73
  Z"
/>
<path d="
  M 407.35 319.14
  C 398.76 338.78 391.86 357.82 388.11 379.27
  C 380.01 425.61 390.99 470.29 426.32 502.54
  Q 426.69 502.87 426.66 503.37
  L 423.24 561.74
  L 419.77 597.35
  A 0.83 0.83 0.0 0 1 419.23 598.05
  Q 412.41 600.60 405.14 600.36
  Q 391.30 600.53 377.96 597.89
  Q 377.43 597.79 377.34 597.25
  L 375.84 588.99
  L 373.01 571.46
  L 370.84 555.27
  L 370.48 551.48
  C 361.92 474.76 368.49 394.02 394.80 321.11
  L 395.99 318.78
  Q 396.23 318.31 396.76 318.35
  L 407.35 319.14
  Z"
/>
<path d="
  M 317.30 336.43
  Q 298.42 378.89 293.60 419.57
  C 287.26 473.15 274.97 525.63 258.87 576.97
  L 257.29 582.08
  L 254.93 589.05
  A 0.74 0.73 -69.7 0 1 253.96 589.50
  L 236.26 582.42
  L 227.83 578.87
  Q 227.33 578.66 227.36 578.13
  C 229.76 535.50 237.52 491.23 249.92 450.44
  Q 250.52 450.61 250.59 450.40
  C 264.26 408.79 286.28 367.79 317.30 336.43
  Z"
/>
<path d="
  M 812.39 538.28
  L 793.96 551.25
  Q 785.19 550.46 776.83 551.22
  Q 776.46 551.25 776.21 551.53
  L 776.00 551.78
  L 775.94 537.10
  Q 794.36 532.24 812.39 538.28
  Z"
/>
<path d="
  M 697.22 570.79
  L 697.53 579.00
  C 688.27 581.28 680.20 582.07 671.12 579.61
  L 697.22 570.79
  Z"
/>
<path d="
  M 793.21 753.83
  L 807.66 761.79
  Q 808.75 762.02 808.54 763.01
  Q 807.67 767.20 805.54 767.36
  L 791.37 756.68
  Q 790.87 755.33 793.21 753.83
  Z"
/>
<path d="
  M 786.16 765.51
  Q 784.78 781.21 785.11 796.24
  Q 785.21 800.60 786.35 804.44
  A 1.42 1.42 0.0 0 0 788.85 804.88
  L 792.70 799.67
  L 785.91 817.15
  Q 783.89 821.32 781.21 823.64
  A 0.67 0.66 -44.6 0 1 780.34 823.64
  C 776.18 819.91 778.50 796.84 778.12 790.97
  Q 779.08 791.28 779.00 790.00
  Q 778.11 776.19 786.16 765.51
  Z"
/>
<path d="
  M 497.85 862.25
  C 515.43 855.02 503.71 808.96 498.78 796.23
  C 503.69 795.55 511.92 794.96 514.81 799.91
  Q 517.18 803.97 518.23 806.54
  Q 533.77 844.23 541.02 884.34
  C 543.43 897.69 546.91 920.86 539.17 932.91
  C 531.16 945.40 516.44 896.80 515.54 893.70
  A 0.40 0.40 0.0 0 0 514.75 893.78
  Q 514.37 899.25 513.39 904.67
  C 512.49 909.59 506.64 919.07 500.55 912.69
  C 494.37 906.21 498.82 893.24 504.01 887.32
  A 0.16 0.16 0.0 0 0 503.94 887.06
  Q 503.81 887.02 503.67 886.97
  Q 503.52 886.92 503.41 887.05
  C 501.31 889.39 498.87 893.27 495.85 893.87
  Q 492.06 894.62 490.21 890.47
  C 486.41 882.00 497.78 873.41 504.52 871.30
  A 0.60 0.60 0.0 0 0 504.79 870.33
  L 497.85 862.25
  Z
  M 506.35 874.50
  C 501.56 876.85 495.09 881.88 494.46 887.70
  A 0.54 0.54 0.0 0 0 495.37 888.14
  L 507.68 876.41
  A 1.18 1.18 0.0 0 0 506.35 874.50
  Z
  M 506.94 883.67
  Q 508.69 882.15 510.28 880.45
  Q 510.65 880.05 510.19 879.76
  Q 509.99 879.63 509.72 879.70
  Q 509.41 879.78 509.09 880.20
  Q 507.79 881.88 506.69 883.44
  Q 505.85 884.63 506.94 883.67
  Z
  M 505.20 908.66
  C 509.43 906.98 511.40 889.44 512.46 884.34
  A 0.84 0.84 0.0 0 0 510.95 883.68
  C 505.68 891.08 501.16 897.62 502.97 907.42
  A 1.65 1.65 0.0 0 0 505.20 908.66
  Z"
/>
<path d="
  M 475.34 802.00
  L 476.88 810.45
  L 471.08 810.67
  L 471.53 804.09
  Q 471.56 803.58 471.95 803.25
  Q 473.15 802.19 475.34 802.00
  Z"
/>
<path d="
  M 232.12 878.15
  L 250.06 891.46
  Q 250.98 892.14 250.68 893.24
  Q 241.37 927.18 230.25 959.75
  C 225.44 973.84 217.90 995.48 207.65 1010.05
  C 204.91 1013.95 201.44 1016.20 197.26 1012.73
  Q 190.78 1007.36 192.44 998.63
  C 195.16 984.32 200.32 970.05 204.81 956.16
  A 0.32 0.32 0.0 0 0 204.33 955.79
  C 199.44 958.95 182.00 965.68 180.71 955.72
  C 179.98 950.14 187.04 946.37 191.60 945.89
  A 0.59 0.59 0.0 0 0 191.70 944.73
  C 187.40 943.51 176.75 939.37 179.15 933.13
  C 182.90 923.42 201.96 937.49 205.94 941.23
  A 0.34 0.34 0.0 0 0 206.51 940.98
  Q 206.53 926.95 201.63 913.83
  C 215.29 908.52 227.64 891.59 232.12 878.15
  Z
  M 186.10 936.70
  Q 192.15 940.73 199.16 941.98
  A 0.29 0.29 0.0 0 0 199.35 941.44
  Q 192.84 937.76 185.75 935.42
  A 0.34 0.34 0.0 0 0 185.33 935.89
  Q 185.54 936.33 186.10 936.70
  Z
  M 185.96 955.00
  C 190.43 956.98 201.50 952.74 205.54 950.36
  Q 205.90 950.15 205.94 949.74
  L 206.29 946.53
  A 1.17 1.17 0.0 0 0 204.26 945.62
  C 203.94 945.97 203.40 946.55 202.85 946.72
  C 197.07 948.61 190.32 949.96 185.83 954.29
  A 0.44 0.44 0.0 0 0 185.96 955.00
  Z"
/>
<path d="
  M 834.03 1000.79
  L 835.03 1001.04
  Q 835.57 1001.17 835.65 1001.72
  L 836.48 1007.24
  Q 836.55 1007.70 836.09 1007.72
  Q 835.28 1007.75 834.93 1008.12
  L 827.10 1007.89
  L 811.57 1007.24
  Q 809.72 1007.24 811.38 1003.39
  Q 822.30 1002.23 833.50 1001.25
  Q 833.83 1001.22 834.03 1000.79
  Z"
/>
<path d="
  M 811.44 1019.86
  Q 821.18 1038.70 832.03 1053.21
  Q 834.13 1056.01 837.68 1058.62
  C 839.19 1059.73 840.76 1059.46 841.15 1057.48
  Q 841.85 1053.91 842.57 1050.20
  Q 844.98 1061.13 845.97 1072.18
  C 846.27 1075.60 846.94 1087.05 839.61 1080.09
  Q 838.47 1079.01 837.10 1077.21
  Q 828.00 1065.24 820.53 1052.21
  C 813.31 1039.63 809.22 1032.97 811.44 1019.86
  Z"
/>
</g>
<g fill="#f04e26">
<path d="
  M 411.92 240.67
  L 408.11 253.90
  Q 407.16 257.18 406.87 253.78
  Q 405.38 236.88 403.49 221.31
  Q 403.29 219.67 402.35 218.45
  Q 402.04 218.04 401.54 218.02
  C 397.30 217.83 394.36 219.01 391.86 222.67
  Q 383.74 234.59 368.38 232.12
  Q 368.29 232.10 368.26 232.04
  Q 368.23 231.96 368.26 231.77
  Q 368.29 231.66 368.41 231.66
  Q 376.03 231.61 382.09 227.57
  C 385.41 225.37 387.58 221.15 390.61 218.28
  Q 392.03 216.95 390.23 217.69
  C 386.90 219.06 384.14 220.51 380.88 222.88
  Q 367.33 232.69 350.19 230.56
  Q 349.68 230.50 349.39 230.91
  Q 346.35 235.16 343.55 239.61
  C 342.74 240.91 342.11 241.11 340.63 241.01
  Q 340.22 240.98 340.12 241.37
  Q 337.43 251.29 338.25 261.51
  A 0.15 0.15 0.0 0 1 337.96 261.57
  L 330.32 241.83
  C 327.99 232.21 327.97 225.14 332.77 216.95
  A 0.98 0.96 48.2 0 0 332.81 216.06
  C 323.67 196.09 340.12 188.86 356.63 192.19
  C 358.70 192.61 363.48 192.91 365.40 192.06
  C 373.19 188.57 384.88 182.96 393.76 187.76
  C 399.99 191.13 402.84 200.62 403.27 207.18
  A 0.85 0.85 0.0 0 0 404.02 207.96
  C 419.91 209.74 414.09 231.06 411.92 240.67
  Z"
/>
<path d="
  M 681.60 263.01
  Q 689.54 297.20 699.96 330.26
  Q 707.52 354.23 717.38 377.33
  Q 718.81 380.68 720.80 383.87
  Q 717.27 391.43 715.38 400.47
  C 698.45 361.49 688.25 319.13 682.78 277.44
  L 681.93 271.97
  Q 682.20 270.41 681.69 270.00
  L 681.60 263.01
  Z"
/>
<path d="
  M 389.89 303.10
  L 389.87 314.64
  C 380.30 317.03 371.72 315.98 365.03 308.32
  Q 364.58 307.80 365.26 307.89
  Q 378.53 309.74 389.89 303.10
  Z"
/>
<path d="
  M 723.20 389.74
  Q 729.26 400.98 736.45 410.74
  Q 736.75 411.14 736.46 411.55
  Q 727.55 424.25 720.12 438.96
  Q 718.51 424.57 719.18 411.33
  Q 720.86 410.17 719.48 408.65
  Q 719.53 399.17 723.20 389.74
  Z"
/>
<path d="
  M 714.06 421.17
  L 715.65 449.05
  C 706.60 469.65 700.91 491.77 700.88 514.22
  Q 694.93 523.35 685.70 530.02
  Q 685.21 530.37 684.92 529.85
  L 677.80 517.35
  L 686.64 485.19
  L 688.47 479.83
  Q 698.92 449.62 714.06 421.17
  Z"
/>
<path d="
  M 988.48 454.07
  C 940.24 476.98 882.57 481.07 832.80 475.02
  Q 839.56 460.27 851.15 449.26
  Q 851.51 448.92 851.99 449.05
  C 895.49 460.84 943.79 464.21 987.69 453.34
  Q 988.09 453.23 988.29 453.38
  Q 988.55 453.59 988.48 454.07
  Z"
/>
<path d="
  M 700.66 520.83
  Q 702.12 544.52 711.13 565.38
  L 697.22 570.79
  L 671.12 579.61
  L 671.14 563.25
  L 691.31 552.72
  A 0.71 0.69 73.2 0 0 691.68 552.01
  Q 690.65 542.53 686.60 533.91
  A 1.03 1.02 61.5 0 1 686.98 532.61
  Q 694.01 528.17 700.66 520.83
  Z"
/>
<path d="
  M 370.48 551.48
  L 370.84 555.27
  C 348.70 554.54 328.51 561.74 309.66 572.75
  L 297.34 571.86
  C 317.97 560.45 346.67 548.08 370.48 551.48
  Z"
/>
<path d="
  M 833.95 1000.22
  L 834.03 1000.79
  Q 833.83 1001.22 833.50 1001.25
  Q 822.30 1002.23 811.38 1003.39
  L 811.60 1000.67
  Q 811.71 1000.68 811.88 1000.51
  Q 812.09 1000.31 812.38 1000.31
  L 833.95 1000.22
  Z"
/>
<path d="
  M 827.10 1007.89
  L 834.93 1008.12
  L 835.44 1011.15
  L 827.10 1007.89
  Z"
/>
</g>
<g fill="#efb596">
<path d="
  M 169.92 133.21
  L 166.03 164.26
  L 143.52 177.10
  L 139.63 174.31
  C 145.38 166.36 152.89 157.91 157.46 149.30
  Q 157.69 148.86 157.67 148.37
  C 157.17 138.72 159.85 121.56 170.96 118.97
  Q 171.52 118.84 171.46 119.42
  L 169.92 133.21
  Z"
/>
<path d="
  M 700.39 206.52
  C 695.00 209.68 684.93 213.77 678.80 211.79
  C 678.19 204.50 677.74 197.80 676.20 190.28
  C 675.27 185.78 674.41 181.11 675.16 177.06
  C 676.17 171.55 685.94 165.94 690.74 169.65
  C 694.24 172.35 692.76 177.17 693.21 181.20
  A 0.56 0.55 60.0 0 0 694.21 181.47
  L 696.93 177.69
  A 0.56 0.56 0.0 0 1 697.94 178.00
  Q 698.11 184.34 696.72 190.51
  Q 696.61 191.00 696.73 191.48
  L 700.39 206.52
  Z"
/>
<path d="
  M 411.92 240.67
  C 431.76 247.94 412.00 271.56 406.79 265.78
  Q 406.27 265.20 406.26 265.98
  C 406.22 270.74 406.54 275.94 405.62 280.25
  Q 402.52 294.72 389.89 303.10
  Q 378.53 309.74 365.26 307.89
  Q 364.58 307.80 365.03 308.32
  C 371.72 315.98 380.30 317.03 389.87 314.64
  L 389.97 318.90
  C 389.42 321.77 390.81 324.21 388.15 326.38
  Q 382.14 331.26 377.13 333.31
  C 369.21 336.55 358.94 336.67 351.61 331.74
  Q 351.16 331.44 351.17 330.91
  L 351.51 312.51
  L 351.66 302.89
  Q 351.67 302.38 351.25 302.08
  C 339.21 293.35 335.63 281.37 336.32 267.13
  A 0.69 0.69 0.0 0 0 335.86 266.44
  C 325.46 262.63 319.73 249.17 330.32 241.83
  L 337.96 261.57
  A 0.15 0.15 0.0 0 0 338.25 261.51
  Q 337.43 251.29 340.12 241.37
  Q 340.22 240.98 340.63 241.01
  C 342.11 241.11 342.74 240.91 343.55 239.61
  Q 346.35 235.16 349.39 230.91
  Q 349.68 230.50 350.19 230.56
  Q 367.33 232.69 380.88 222.88
  C 384.14 220.51 386.90 219.06 390.23 217.69
  Q 392.03 216.95 390.61 218.28
  C 387.58 221.15 385.41 225.37 382.09 227.57
  Q 376.03 231.61 368.41 231.66
  Q 368.29 231.66 368.26 231.77
  Q 368.23 231.96 368.26 232.04
  Q 368.29 232.10 368.38 232.12
  Q 383.74 234.59 391.86 222.67
  C 394.36 219.01 397.30 217.83 401.54 218.02
  Q 402.04 218.04 402.35 218.45
  Q 403.29 219.67 403.49 221.31
  Q 405.38 236.88 406.87 253.78
  Q 407.16 257.18 408.11 253.90
  L 411.92 240.67
  Z"
/>
<path d="
  M 828.92 380.56
  C 823.62 388.53 816.53 397.47 808.10 402.37
  C 800.94 406.53 794.41 401.85 791.56 395.44
  C 786.48 383.97 785.86 367.71 787.38 355.43
  C 794.46 349.55 801.88 341.34 802.93 331.76
  Q 802.99 331.26 803.42 331.51
  Q 812.81 337.07 820.45 329.46
  C 823.22 326.70 821.62 324.57 818.87 322.79
  C 815.91 320.89 803.10 310.52 812.77 308.04
  C 817.07 306.94 819.74 307.17 825.06 307.72
  C 841.54 309.43 857.94 298.27 869.20 287.32
  A 0.48 0.48 0.0 0 1 869.98 287.50
  C 875.24 301.66 872.01 317.60 865.81 331.09
  Q 861.31 340.89 855.83 345.05
  C 850.31 349.24 839.04 351.99 832.67 347.01
  Q 829.29 344.37 826.73 340.86
  Q 826.34 340.33 826.15 340.95
  C 823.50 349.27 822.81 359.75 828.04 367.25
  A 1.16 1.12 33.9 0 1 828.23 368.14
  Q 826.93 374.49 828.92 380.56
  Z"
/>
<path d="
  M 1039.18 417.96
  L 1029.74 401.98
  L 1035.22 399.18
  A 0.42 0.40 88.7 0 0 1035.43 398.95
  L 1040.46 385.54
  A 0.94 0.94 0.0 0 1 1042.28 385.89
  L 1042.15 392.00
  Q 1042.12 393.19 1042.76 392.18
  Q 1047.70 384.32 1054.21 377.65
  A 0.98 0.98 0.0 0 1 1055.86 378.58
  Q 1054.37 384.26 1051.13 389.17
  Q 1049.37 391.84 1051.96 389.97
  C 1054.80 387.93 1061.75 384.70 1065.32 386.24
  C 1070.06 388.30 1066.81 394.90 1064.36 398.09
  Q 1058.13 406.18 1048.62 409.39
  Q 1046.62 410.07 1045.32 411.40
  Q 1042.12 414.70 1039.18 417.96
  Z"
/>
<path d="
  M 775.94 537.10
  L 776.00 551.78
  L 776.04 553.13
  C 749.78 558.96 717.82 569.65 699.17 590.15
  Q 699.47 590.31 698.76 590.25
  L 697.53 579.00
  L 697.22 570.79
  L 711.13 565.38
  Q 736.30 555.53 755.44 545.44
  Q 766.39 539.66 775.94 537.10
  Z"
/>
<path d="
  M 370.84 555.27
  L 373.01 571.46
  Q 341.21 574.42 309.66 572.75
  C 328.51 561.74 348.70 554.54 370.84 555.27
  Z"
/>
<path d="
  M 794.12 748.60
  Q 802.22 753.95 809.58 756.69
  Q 809.52 758.71 807.66 761.79
  L 793.21 753.83
  L 794.12 748.60
  Z"
/>
<path d="
  M 791.37 756.68
  L 805.54 767.36
  L 792.70 799.67
  L 788.85 804.88
  A 1.42 1.42 0.0 0 1 786.35 804.44
  Q 785.21 800.60 785.11 796.24
  Q 784.78 781.21 786.16 765.51
  L 791.37 756.68
  Z"
/>
<path d="
  M 811.57 1007.24
  L 827.10 1007.89
  L 835.44 1011.15
  L 842.57 1050.20
  Q 841.85 1053.91 841.15 1057.48
  C 840.76 1059.46 839.19 1059.73 837.68 1058.62
  Q 834.13 1056.01 832.03 1053.21
  Q 821.18 1038.70 811.44 1019.86
  L 811.57 1007.24
  Z"
/>
</g>
</svg>
