<?xml version="1.0" encoding="UTF-8" standalone="no"?>
<!DOCTYPE svg PUBLIC "-//W3C//DTD SVG 1.1//EN" "http://www.w3.org/Graphics/SVG/1.1/DTD/svg11.dtd">
<svg xmlns="http://www.w3.org/2000/svg" version="1.1" viewBox="0.00 0.00 601.00 592.00">
<g stroke-width="2.00" fill="none" stroke-linecap="butt">
<path stroke="#fae4d4" vector-effect="non-scaling-stroke" d="
  M 136.43 72.88
  C 130.61 79.11 130.66 90.06 129.46 98.07
  C 127.98 108.03 124.16 118.11 121.97 127.50
  Q 109.30 181.81 125.23 235.75
  Q 129.14 248.97 133.67 262.55"
/>
<path stroke="#ffcd96" vector-effect="non-scaling-stroke" d="
  M 133.67 262.55
  C 133.73 272.42 129.77 282.05 123.54 290.18"
/>
<path stroke="#f4c895" vector-effect="non-scaling-stroke" d="
  M 123.54 290.18
  C 118.92 302.01 132.41 304.01 140.15 300.76"
/>
<path stroke="#ffcd96" vector-effect="non-scaling-stroke" d="
  M 140.15 300.76
  Q 140.95 300.84 141.24 300.62"
/>
<path stroke="#fae4d4" vector-effect="non-scaling-stroke" d="
  M 141.24 300.62
  Q 142.41 300.70 142.23 301.25
  Q 141.79 302.62 141.79 303.63"
/>
<path stroke="#9a8c8d" vector-effect="non-scaling-stroke" d="
  M 141.79 303.63
  C 132.77 322.21 126.90 339.50 135.75 359.79
  Q 146.91 385.35 163.48 407.71
  A 0.34 0.34 0.0 0 1 163.24 408.25
  L 136.67 410.82
  Q 136.14 410.87 135.99 411.38
  Q 135.48 413.13 135.77 415.29"
/>
<path stroke="#fae4d4" vector-effect="non-scaling-stroke" d="
  M 135.77 415.29
  L 116.23 414.00"
/>
<path stroke="#a79e96" vector-effect="non-scaling-stroke" d="
  M 116.23 414.00
  C 112.50 407.82 109.51 399.86 101.41 408.41
  Q 96.88 413.19 91.29 416.55
  C 86.88 419.19 80.36 420.75 76.30 422.78
  C 71.96 424.95 76.38 430.54 80.69 429.16
  C 91.53 425.71 100.00 424.77 110.13 423.47
  C 111.25 423.33 112.35 422.53 113.32 421.97"
/>
<path stroke="#fae4d4" vector-effect="non-scaling-stroke" d="
  M 113.32 421.97
  L 117.82 422.85"
/>
<path stroke="#a79e96" vector-effect="non-scaling-stroke" d="
  M 117.82 422.85
  C 114.41 427.13 102.17 444.51 110.18 447.64
  Q 110.79 447.88 111.09 447.82
  A 1.74 1.74 0.0 0 0 112.48 446.08
  Q 112.36 441.27 116.56 438.80
  Q 122.86 435.11 126.56 429.61"
/>
<path stroke="#f7d9c4" vector-effect="non-scaling-stroke" d="
  M 126.56 429.61
  L 137.53 427.69"
/>
<path stroke="#9a8c8d" vector-effect="non-scaling-stroke" d="
  M 137.53 427.69
  C 152.42 432.93 169.08 436.52 184.45 429.66
  C 189.94 427.20 197.37 429.42 201.84 426.00
  C 206.43 422.49 206.36 415.83 205.94 410.81
  C 203.05 376.52 198.13 342.53 193.88 308.34"
/>
<path stroke="#fae4d4" vector-effect="non-scaling-stroke" d="
  M 193.88 308.34
  L 193.29 298.63"
/>
<path stroke="#f7d9c4" vector-effect="non-scaling-stroke" d="
  M 193.29 298.63
  L 193.90 294.72"
/>
<path stroke="#f4c895" vector-effect="non-scaling-stroke" d="
  M 193.90 294.72
  Q 203.59 294.19 209.49 287.96"
/>
<path stroke="#ffcd96" vector-effect="non-scaling-stroke" d="
  M 209.49 287.96
  L 211.39 283.67
  Q 211.61 283.18 211.21 282.81
  Q 200.98 273.31 197.97 259.78
  C 196.78 254.41 197.95 248.55 195.45 243.75
  C 192.57 238.23 185.43 233.72 181.07 230.88"
/>
<path stroke="#fae4d4" vector-effect="non-scaling-stroke" d="
  M 181.07 230.88
  C 181.99 225.66 182.05 220.67 183.69 215.69
  Q 202.39 159.16 187.61 101.98
  Q 187.15 100.19 185.54 100.04"
/>
<path stroke="#c0bca8" vector-effect="non-scaling-stroke" d="
  M 185.54 100.04
  L 184.90 90.24"
/>
<path stroke="#fae4d4" vector-effect="non-scaling-stroke" d="
  M 184.90 90.24
  Q 189.12 87.88 191.27 83.75
  C 192.35 81.68 197.99 66.10 190.49 68.95
  A 1.18 1.18 0.0 0 1 188.95 67.46
  C 190.21 63.74 186.67 60.11 185.32 56.57"
/>
<path stroke="#c0bca8" vector-effect="non-scaling-stroke" d="
  M 185.32 56.57
  Q 186.41 53.06 178.25 54.45"
/>
<path stroke="#ffaa96" vector-effect="non-scaling-stroke" d="
  M 178.25 54.45
  C 178.75 46.36 180.43 30.95 178.05 26.39
  A 1.17 1.16 83.4 0 0 177.31 25.80
  Q 174.87 25.13 172.32 25.07
  Q 151.27 24.58 130.37 25.18
  A 0.54 0.54 0.0 0 0 129.85 25.76
  Q 131.74 49.24 136.43 72.88"
/>
<path stroke="#c0663f" vector-effect="non-scaling-stroke" d="
  M 178.25 54.45
  Q 174.90 53.22 173.66 54.86
  Q 173.36 55.25 172.87 55.25
  L 154.52 55.10
  A 0.96 0.96 0.0 0 0 153.55 55.98
  L 150.30 95.41
  A 2.29 2.28 -74.8 0 0 151.59 97.66
  C 153.85 98.74 155.65 99.08 158.62 99.17
  Q 161.96 99.28 163.89 101.24"
/>
<path stroke="#ffaa96" vector-effect="non-scaling-stroke" d="
  M 163.89 101.24
  Q 154.75 105.06 146.01 107.09
  Q 145.49 107.21 145.28 106.71
  Q 142.06 99.00 139.91 89.79"
/>
<path stroke="#fa8e6b" vector-effect="non-scaling-stroke" d="
  M 139.91 89.79
  Q 140.10 89.43 139.97 88.12
  A 0.74 0.72 -30.3 0 1 140.11 87.61
  L 146.44 79.33
  A 0.99 0.99 0.0 0 0 145.05 77.94
  L 140.20 81.67
  A 0.17 0.17 0.0 0 1 139.96 81.44
  L 147.49 71.11
  A 0.79 0.79 0.0 0 0 146.41 69.98
  L 141.81 73.04
  Q 141.30 73.38 141.51 72.80
  C 142.22 70.86 145.58 67.90 144.74 66.07
  Q 144.45 65.44 143.94 65.91
  L 136.43 72.88"
/>
<path stroke="#fae4d4" vector-effect="non-scaling-stroke" d="
  M 182.64 101.28
  Q 183.52 119.08 184.27 137.00
  Q 184.57 144.29 183.03 152.76
  Q 180.47 166.73 179.03 173.01"
/>
<path stroke="#d3a599" vector-effect="non-scaling-stroke" d="
  M 179.03 173.01
  L 169.15 177.80"
/>
<path stroke="#fae4d4" vector-effect="non-scaling-stroke" d="
  M 169.15 177.80
  L 165.53 170.45"
/>
<path stroke="#d3a599" vector-effect="non-scaling-stroke" d="
  M 165.53 170.45
  C 167.98 169.95 172.66 168.54 172.22 165.47
  Q 172.12 164.80 171.46 164.95
  L 168.51 165.60
  A 0.38 0.38 0.0 0 1 168.23 164.91
  Q 170.14 163.74 171.04 161.69
  A 1.44 1.44 0.0 0 0 169.52 159.69
  Q 165.95 160.20 162.95 162.18
  A 0.47 0.47 0.0 0 1 162.27 161.58
  Q 163.57 159.01 163.38 156.06
  C 163.27 154.28 161.89 153.17 160.21 153.94
  C 158.98 154.51 158.26 156.21 157.31 157.31
  A 0.28 0.28 0.0 0 1 156.83 157.04
  Q 157.52 154.87 156.99 152.71
  A 1.32 1.32 0.0 0 0 154.47 152.57
  C 149.95 164.73 138.81 159.24 132.74 166.72
  C 131.72 167.98 130.88 168.00 129.47 167.42"
/>
<path stroke="#fae4d4" vector-effect="non-scaling-stroke" d="
  M 139.91 89.79
  Q 138.24 93.16 137.65 98.68
  Q 137.04 104.39 133.46 111.54
  Q 132.25 113.95 132.02 116.35
  Q 129.63 141.01 129.02 165.74
  Q 129.01 166.16 129.18 166.59
  Q 129.36 167.03 129.47 167.42"
/>
<path stroke="#ce896d" vector-effect="non-scaling-stroke" d="
  M 129.47 167.42
  Q 129.34 167.46 129.23 167.51
  Q 129.11 167.56 129.11 167.69
  Q 129.11 189.45 133.86 210.20"
/>
<path stroke="#fae4d4" vector-effect="non-scaling-stroke" d="
  M 133.86 210.20
  Q 134.85 215.81 136.56 219.94
  Q 137.51 222.22 141.62 221.87"
/>
<path stroke="#fab26a" vector-effect="non-scaling-stroke" d="
  M 141.62 221.87
  Q 144.13 231.73 143.35 241.82
  C 142.65 250.84 138.10 255.45 133.67 262.55"
/>
<path stroke="#bba07d" vector-effect="non-scaling-stroke" d="
  M 185.32 56.57
  Q 185.33 57.42 184.94 58.17
  Q 184.71 58.60 184.22 58.55
  Q 178.75 58.03 173.75 60.30
  A 0.68 0.67 34.2 0 0 174.00 61.59
  L 179.22 61.83
  Q 179.63 61.85 179.46 62.23
  Q 179.39 62.39 179.19 62.45
  Q 175.63 63.58 172.90 65.47
  A 0.88 0.88 0.0 0 0 173.37 67.07
  L 180.75 67.32
  A 0.22 0.22 0.0 0 1 180.84 67.74
  L 173.98 71.30
  A 1.07 1.07 0.0 0 0 174.42 73.32
  L 184.24 73.77
  Q 185.08 73.80 185.07 74.64
  L 184.90 90.24"
/>
<path stroke="#bba07d" vector-effect="non-scaling-stroke" d="
  M 185.54 100.04
  Q 186.30 100.93 182.64 101.28"
/>
<path stroke="#c0bca8" vector-effect="non-scaling-stroke" d="
  M 182.64 101.28
  L 163.89 101.24"
/>
<path stroke="#c8745a" vector-effect="non-scaling-stroke" d="
  M 142.93 193.59
  L 137.87 190.90
  A 0.91 0.90 -44.0 0 0 137.04 190.89
  Q 135.36 191.73 135.87 193.61
  Q 137.00 197.77 142.46 199.31"
/>
<path stroke="#d3a599" vector-effect="non-scaling-stroke" d="
  M 142.28 205.83
  L 140.71 205.77
  Q 140.15 205.75 140.23 206.31
  C 140.81 210.41 137.27 211.33 133.86 210.20"
/>
<path stroke="#d3a599" vector-effect="non-scaling-stroke" d="
  M 173.33 199.01
  L 171.19 198.94"
/>
<path stroke="#fab26a" vector-effect="non-scaling-stroke" d="
  M 181.07 230.88
  L 171.60 225.41"
/>
<path stroke="#efb395" vector-effect="non-scaling-stroke" d="
  M 171.60 225.41
  Q 170.03 224.62 168.48 223.80
  Q 168.22 223.66 168.02 223.75
  Q 167.68 223.91 168.01 224.09
  L 171.50 225.95"
/>
<path stroke="#fab26a" vector-effect="non-scaling-stroke" d="
  M 171.50 225.95
  C 173.65 227.32 181.41 233.20 178.49 236.28
  Q 172.01 243.13 163.63 237.30
  C 157.74 233.21 154.33 225.65 147.95 222.53"
/>
<path stroke="#fae4d4" vector-effect="non-scaling-stroke" d="
  M 147.95 222.53
  L 148.23 222.06
  Q 148.47 221.67 148.37 221.22
  L 145.85 209.64
  A 2.35 2.33 7.0 0 0 144.58 208.03
  Q 143.16 207.34 142.28 205.83"
/>
<path stroke="#ce896d" vector-effect="non-scaling-stroke" d="
  M 142.28 205.83
  C 144.48 205.52 149.18 203.69 148.75 200.61
  Q 148.68 200.07 148.14 200.00
  L 142.46 199.31"
/>
<path stroke="#efb395" vector-effect="non-scaling-stroke" d="
  M 142.46 199.31
  C 143.03 198.30 143.26 197.76 142.62 196.64
  Q 141.25 194.28 142.93 193.59"
/>
<path stroke="#ce896d" vector-effect="non-scaling-stroke" d="
  M 142.93 193.59
  Q 135.37 183.93 139.65 174.07
  Q 139.87 173.55 140.39 173.78
  Q 145.87 176.16 151.85 175.72
  Q 152.53 175.67 152.50 174.99
  L 152.43 173.10
  Q 152.41 172.64 152.85 172.75
  Q 157.78 173.97 162.86 173.37
  A 0.61 0.60 62.7 0 0 163.19 172.32
  L 162.10 171.34
  Q 161.63 170.91 162.26 170.84
  L 165.53 170.45"
/>
<path stroke="#ce896d" vector-effect="non-scaling-stroke" d="
  M 169.15 177.80
  Q 173.01 188.37 171.19 198.94"
/>
<path stroke="#fae4d4" vector-effect="non-scaling-stroke" d="
  M 171.19 198.94
  Q 169.23 202.68 167.20 206.28
  C 166.23 208.01 164.55 208.72 163.11 209.86
  A 2.54 2.53 63.4 0 0 162.24 212.50
  Q 163.27 216.41 165.52 219.80
  A 0.51 0.50 -49.4 0 0 166.40 219.73
  Q 170.94 209.89 173.33 199.01"
/>
<path stroke="#ce896d" vector-effect="non-scaling-stroke" d="
  M 173.33 199.01
  L 176.44 186.52
  Q 176.59 185.92 175.98 185.91
  L 173.45 185.84
  A 0.81 0.81 0.0 0 1 173.26 184.25
  C 176.07 183.49 177.32 182.35 177.94 179.37
  Q 178.55 176.41 179.03 173.01"
/>
<path stroke="#ffcd96" vector-effect="non-scaling-stroke" d="
  M 147.95 222.53
  L 141.62 221.87"
/>
<path stroke="#f49d57" vector-effect="non-scaling-stroke" d="
  M 171.50 225.95
  Q 171.45 225.73 171.60 225.41"
/>
<path stroke="#f4962c" vector-effect="non-scaling-stroke" d="
  M 209.49 287.96
  C 208.84 286.53 208.16 285.92 206.51 286.04
  Q 200.03 286.48 193.59 285.94
  Q 193.28 285.91 193.04 286.11
  Q 192.80 286.31 192.71 286.23"
/>
<path stroke="#f7a75a" vector-effect="non-scaling-stroke" d="
  M 192.71 286.23
  C 188.04 286.21 181.92 289.92 177.97 292.25
  C 167.22 298.58 157.91 302.89 145.41 301.00"
/>
<path stroke="#fab26a" vector-effect="non-scaling-stroke" d="
  M 145.41 301.00
  Q 143.18 300.06 141.24 300.62"
/>
<path stroke="#f4962c" vector-effect="non-scaling-stroke" d="
  M 140.15 300.76
  Q 139.83 300.45 139.70 299.54
  Q 139.63 299.04 139.23 298.73
  Q 132.27 293.21 123.54 290.18"
/>
<path stroke="#f2bd98" vector-effect="non-scaling-stroke" d="
  M 193.29 298.63
  Q 178.96 299.53 163.03 305.55
  Q 156.12 308.16 148.49 305.03
  Q 148.06 304.85 147.79 304.47
  L 145.41 301.00"
/>
<path stroke="#eca15a" vector-effect="non-scaling-stroke" d="
  M 193.90 294.72
  Q 192.49 291.04 192.71 286.23"
/>
<path stroke="#957161" vector-effect="non-scaling-stroke" d="
  M 193.88 308.34
  C 182.50 319.15 152.21 312.06 141.79 303.63"
/>
<path stroke="#926651" vector-effect="non-scaling-stroke" d="
  M 137.53 427.69
  Q 137.14 427.35 137.25 426.72"
/>
<path stroke="#957161" vector-effect="non-scaling-stroke" d="
  M 137.25 426.72
  L 135.77 415.29"
/>
<path stroke="#f2bd98" vector-effect="non-scaling-stroke" d="
  M 137.25 426.72
  Q 136.21 427.03 135.76 426.10
  Q 135.55 425.68 135.09 425.63
  L 127.36 424.72"
/>
<path stroke="#a2836a" vector-effect="non-scaling-stroke" d="
  M 127.36 424.72
  L 117.82 422.85"
/>
<path stroke="#9f785a" vector-effect="non-scaling-stroke" d="
  M 127.36 424.72
  Q 126.21 427.63 126.56 429.61"
/>
<path stroke="#a2836a" vector-effect="non-scaling-stroke" d="
  M 116.23 414.00
  Q 115.62 418.61 113.32 421.97"
/>
<path stroke="#d3a599" vector-effect="non-scaling-stroke" d="
  M 248.75 65.03
  Q 246.94 62.94 244.25 63.72
  Q 238.64 65.36 233.42 65.08
  A 2.02 2.01 -74.7 0 0 231.52 66.17
  C 227.12 74.63 223.68 84.82 229.65 93.42
  A 1.37 1.35 -60.4 0 1 229.89 94.31
  Q 225.93 143.58 239.28 191.05
  C 240.18 194.23 238.99 196.14 237.98 199.23
  Q 235.19 207.74 237.17 219.87"
/>
<path stroke="#ffaa96" vector-effect="non-scaling-stroke" d="
  M 237.17 219.87
  Q 241.81 224.29 249.38 226.86
  Q 249.94 227.05 249.80 227.62
  L 248.47 232.90"
/>
<path stroke="#fdcda8" vector-effect="non-scaling-stroke" d="
  M 248.47 232.90
  L 247.65 235.09"
/>
<path stroke="#ffaa96" vector-effect="non-scaling-stroke" d="
  M 247.65 235.09
  Q 246.26 239.00 243.84 247.57
  Q 235.21 278.03 230.66 306.56"
/>
<path stroke="#d3a599" vector-effect="non-scaling-stroke" d="
  M 230.66 306.56
  L 237.92 311.42
  Q 238.34 311.70 238.24 312.20
  L 238.04 313.19"
/>
<path stroke="#a79e96" vector-effect="non-scaling-stroke" d="
  M 238.04 313.19
  C 219.52 385.44 205.19 458.90 201.89 533.68
  Q 201.85 534.76 201.16 535.71"
/>
<path stroke="#9a8c8d" vector-effect="non-scaling-stroke" d="
  M 201.16 535.71
  C 198.15 539.13 196.58 550.98 196.29 555.42"
/>
<path stroke="#d2dbe2" vector-effect="non-scaling-stroke" d="
  M 196.29 555.42
  Q 146.30 556.23 96.68 560.34
  Q 78.72 561.83 61.04 565.18
  Q 57.17 565.92 52.62 567.76
  Q 50.48 568.63 52.04 570.33
  C 55.42 574.02 69.74 575.47 74.77 576.07
  Q 108.74 580.16 142.93 581.75
  C 226.96 585.65 311.38 585.51 395.43 582.32
  C 427.48 581.10 460.37 579.76 491.98 574.15
  Q 496.48 573.35 500.78 571.82
  Q 502.56 571.19 502.75 570.88
  Q 504.39 568.26 501.44 567.30
  Q 493.39 564.69 485.24 563.58
  Q 456.20 559.66 426.94 558.04
  C 354.14 554.02 281.13 553.69 208.18 554.93"
/>
<path stroke="#9a8c8d" vector-effect="non-scaling-stroke" d="
  M 208.18 554.93
  C 210.19 548.54 213.98 546.05 210.86 538.31"
/>
<path stroke="#a79e96" vector-effect="non-scaling-stroke" d="
  M 210.86 538.31
  Q 212.79 529.06 215.50 520.25
  Q 239.63 441.78 265.28 363.77
  Q 265.45 363.24 266.00 363.17
  L 279.75 361.53
  A 0.95 0.95 0.0 0 1 280.74 362.10
  L 349.16 523.47"
/>
<path stroke="#9a8c8d" vector-effect="non-scaling-stroke" d="
  M 349.16 523.47
  Q 346.94 525.84 348.51 528.95
  A 1.10 1.10 0.0 0 0 349.24 529.53
  C 358.24 531.60 359.75 537.02 365.77 541.50
  Q 369.21 544.05 375.39 544.23
  Q 375.81 544.24 376.08 543.93
  Q 377.89 541.87 375.96 540.29
  C 371.87 536.94 369.62 535.56 366.97 530.95
  C 364.99 527.50 363.68 523.98 359.58 522.13"
/>
<path stroke="#a79e96" vector-effect="non-scaling-stroke" d="
  M 359.58 522.13
  L 309.48 320.29"
/>
<path stroke="#eca597" vector-effect="non-scaling-stroke" d="
  M 309.48 320.29
  C 313.12 320.89 328.90 323.07 327.33 315.70"
/>
<path stroke="#ffaa96" vector-effect="non-scaling-stroke" d="
  M 327.33 315.70
  Q 326.09 295.65 323.51 276.12
  C 322.24 266.46 318.99 256.71 318.33 246.95
  Q 318.08 243.34 317.93 239.95"
/>
<path stroke="#fdcda8" vector-effect="non-scaling-stroke" d="
  M 317.93 239.95
  L 317.98 238.41"
/>
<path stroke="#ffaa96" vector-effect="non-scaling-stroke" d="
  M 317.98 238.41
  Q 318.10 238.30 318.22 238.19"
/>
<path stroke="#f7d9c4" vector-effect="non-scaling-stroke" d="
  M 318.22 238.19
  Q 319.87 238.44 321.28 238.05"
/>
<path stroke="#ffaa96" vector-effect="non-scaling-stroke" d="
  M 321.28 238.05
  L 334.77 237.98
  Q 335.32 237.98 335.37 237.43
  L 335.58 235.08"
/>
<path stroke="#d3a599" vector-effect="non-scaling-stroke" d="
  M 335.58 235.08
  L 337.04 219.47
  Q 337.09 218.96 337.53 218.69
  Q 348.29 212.09 358.17 204.14"
/>
<path stroke="#b2958e" vector-effect="non-scaling-stroke" d="
  M 358.17 204.14
  Q 359.30 205.91 360.35 205.96
  Q 360.92 205.99 361.12 205.45
  L 362.58 201.52"
/>
<path stroke="#d3a599" vector-effect="non-scaling-stroke" d="
  M 362.58 201.52
  Q 365.11 195.96 370.09 193.25"
/>
<path stroke="#a59191" vector-effect="non-scaling-stroke" d="
  M 370.09 193.25
  Q 360.76 204.25 364.11 217.99
  A 0.20 0.20 0.0 0 0 364.51 217.96
  Q 365.68 206.59 376.50 203.21
  Q 377.17 203.01 377.09 203.70
  Q 376.47 209.35 375.95 215.02
  C 375.04 224.81 360.37 227.62 364.71 238.21
  A 0.13 0.13 0.0 0 0 364.96 238.16
  C 364.94 230.93 371.72 228.12 377.02 225.24
  Q 377.66 224.90 377.30 225.53
  C 375.48 228.76 372.50 232.92 374.63 235.53
  C 376.34 237.63 378.34 236.28 378.32 240.33
  Q 378.31 242.97 379.20 245.31"
/>
<path stroke="#ffc0af" vector-effect="non-scaling-stroke" d="
  M 379.20 245.31
  L 373.81 248.51
  A 1.74 1.74 0.0 0 0 373.34 251.09
  Q 375.20 253.42 373.70 256.24"
/>
<path stroke="#f2c7b4" vector-effect="non-scaling-stroke" d="
  M 373.70 256.24
  Q 358.70 279.25 343.64 302.19
  C 342.33 304.19 341.58 306.02 341.75 308.23
  A 2.51 2.51 0.0 0 0 343.83 310.50
  Q 358.02 312.91 371.29 307.34
  Q 377.02 304.93 383.32 302.59"
/>
<path stroke="#fbbba9" vector-effect="non-scaling-stroke" d="
  M 383.32 302.59
  L 381.64 310.41"
/>
<path stroke="#ffc0af" vector-effect="non-scaling-stroke" d="
  M 381.64 310.41
  Q 374.86 322.45 371.18 335.08"
/>
<path stroke="#a09ea2" vector-effect="non-scaling-stroke" d="
  M 371.18 335.08
  Q 363.45 370.93 360.49 407.13
  C 359.69 416.88 357.86 427.88 368.68 433.02
  C 370.29 433.78 372.27 433.46 374.10 433.76"
/>
<path stroke="#a4a1a6" vector-effect="non-scaling-stroke" d="
  M 374.10 433.76
  C 374.89 441.37 382.27 445.64 388.50 448.77
  Q 393.70 451.38 397.98 449.01
  Q 428.62 432.03 458.73 424.71"
/>
<path stroke="#aea9ad" vector-effect="non-scaling-stroke" d="
  M 458.73 424.71
  Q 462.43 426.55 466.91 424.38"
/>
<path stroke="#ffaa96" vector-effect="non-scaling-stroke" d="
  M 466.91 424.38
  C 474.26 426.74 480.01 436.10 482.65 442.83
  A 0.93 0.93 0.0 0 0 484.20 443.12
  Q 484.93 442.34 484.84 440.73
  Q 483.97 424.62 473.55 412.45
  Q 470.54 408.93 466.65 411.39"
/>
<path stroke="#aea9ad" vector-effect="non-scaling-stroke" d="
  M 466.65 411.39
  L 458.61 415.19"
/>
<path stroke="#a4a1a6" vector-effect="non-scaling-stroke" d="
  M 458.61 415.19
  Q 441.45 416.92 423.37 415.32"
/>
<path stroke="#a09ea2" vector-effect="non-scaling-stroke" d="
  M 423.37 415.32
  Q 433.12 408.68 443.94 403.51"
/>
<path stroke="#aea9ad" vector-effect="non-scaling-stroke" d="
  M 443.94 403.51
  Q 446.47 402.98 448.30 403.46"
/>
<path stroke="#ffaa96" vector-effect="non-scaling-stroke" d="
  M 448.30 403.46
  Q 454.78 407.78 459.79 413.12
  A 0.84 0.84 0.0 0 0 461.24 412.54
  C 461.16 405.72 457.12 387.58 446.43 394.39"
/>
<path stroke="#aea9ad" vector-effect="non-scaling-stroke" d="
  M 446.43 394.39
  Q 443.77 393.69 440.07 395.90"
/>
<path stroke="#a09ea2" vector-effect="non-scaling-stroke" d="
  M 440.07 395.90
  L 423.12 402.30"
/>
<path stroke="#a4a1a6" vector-effect="non-scaling-stroke" d="
  M 423.12 402.30
  C 434.11 391.87 441.64 382.67 441.69 366.27
  Q 441.74 351.33 435.85 339.53"
/>
<path stroke="#ffc0af" vector-effect="non-scaling-stroke" d="
  M 435.85 339.53
  Q 436.55 339.39 436.56 337.89
  Q 436.57 337.15 436.24 336.21
  Q 431.34 322.36 426.47 308.49
  C 424.65 303.27 423.65 298.64 424.72 293.75
  Q 428.23 277.84 429.60 267.29
  Q 429.66 266.81 429.96 266.43
  L 433.27 262.21"
/>
<path stroke="#fbbba9" vector-effect="non-scaling-stroke" d="
  M 433.27 262.21
  Q 436.52 257.82 435.18 255.34"
/>
<path stroke="#f2c7b4" vector-effect="non-scaling-stroke" d="
  M 435.18 255.34
  C 462.01 225.60 486.63 193.99 511.19 162.43
  Q 512.60 160.62 516.53 158.71"
/>
<path stroke="#b9ab9f" vector-effect="non-scaling-stroke" d="
  M 516.53 158.71
  Q 516.22 160.55 516.62 161.40
  Q 516.87 161.93 517.45 161.79
  L 559.29 151.23
  Q 559.93 151.07 559.99 150.41
  C 562.13 126.04 555.87 100.69 548.51 77.93
  Q 548.35 77.42 547.83 77.57
  Q 523.04 84.58 500.45 96.95
  A 0.58 0.58 0.0 0 0 500.27 97.81
  Q 510.79 111.40 514.32 126.78"
/>
<path stroke="#f2c7b4" vector-effect="non-scaling-stroke" d="
  M 514.32 126.78
  L 507.35 157.50
  A 4.93 4.88 -16.0 0 1 505.98 159.94
  Q 481.47 183.74 457.02 207.52
  Q 456.18 208.33 455.34 208.53"
/>
<path stroke="#a59191" vector-effect="non-scaling-stroke" d="
  M 455.34 208.53
  C 453.12 203.41 450.30 201.26 446.74 197.89
  C 441.86 193.27 444.76 188.61 442.11 183.62
  Q 438.32 176.48 429.47 179.01
  Q 428.88 179.18 428.83 178.57
  L 428.56 175.11
  A 0.67 0.66 -72.2 0 0 428.33 174.65
  C 424.99 171.62 417.76 173.55 413.61 174.45
  A 1.28 1.24 52.4 0 1 412.71 174.32
  C 403.42 169.26 397.35 163.27 386.53 161.64"
/>
<path stroke="#d3a599" vector-effect="non-scaling-stroke" d="
  M 386.53 161.64
  Q 389.45 152.04 390.48 142.11
  Q 390.54 141.57 391.07 141.49
  C 398.80 140.30 407.51 133.12 414.01 128.48
  A 0.43 0.43 0.0 0 0 413.74 127.70
  Q 410.33 127.85 407.29 129.41
  A 0.40 0.39 -82.4 0 1 406.82 128.79
  L 416.75 117.74
  A 0.42 0.41 -80.7 0 0 416.28 117.08
  C 411.46 119.23 407.76 122.32 403.26 124.78
  Q 402.54 125.17 402.95 124.46
  Q 407.03 117.36 412.91 111.70
  Q 413.64 111.00 412.65 110.83
  Q 411.33 110.61 409.90 111.90
  Q 405.97 115.45 402.32 118.77
  A 0.63 0.63 0.0 0 1 401.37 117.97
  C 403.16 115.18 407.52 108.54 406.91 105.40
  Q 406.72 104.40 406.08 105.19
  L 389.20 126.43
  Q 388.87 126.84 388.42 126.56
  C 385.29 124.61 384.96 116.89 383.97 113.16
  A 0.61 0.60 -38.3 0 0 382.85 113.03
  Q 382.62 113.46 382.71 114.50
  Q 383.47 124.21 384.37 133.90
  C 384.63 136.75 386.19 138.23 385.39 141.34
  Q 382.58 152.21 377.28 162.11
  Q 377.04 162.55 376.61 162.80
  L 375.96 163.17"
/>
<path stroke="#a59191" vector-effect="non-scaling-stroke" d="
  M 375.96 163.17
  Q 364.95 168.13 363.00 179.99"
/>
<path stroke="#d3a599" vector-effect="non-scaling-stroke" d="
  M 363.00 179.99
  C 362.74 180.63 362.71 181.07 362.18 181.57
  Q 347.16 195.56 327.64 200.69"
/>
<path stroke="#ffaa96" vector-effect="non-scaling-stroke" d="
  M 327.64 200.69
  L 308.21 203.05"
/>
<path stroke="#d3a599" vector-effect="non-scaling-stroke" d="
  M 308.21 203.05
  L 302.26 203.90
  Q 301.70 203.98 301.82 203.43
  L 302.70 199.18"
/>
<path stroke="#ce9b91" vector-effect="non-scaling-stroke" d="
  M 302.70 199.18
  Q 303.91 195.82 303.68 192.68"
/>
<path stroke="#d3a599" vector-effect="non-scaling-stroke" d="
  M 303.68 192.68
  Q 311.17 190.81 314.67 184.74
  C 317.54 179.78 322.61 177.82 319.64 171.28"
/>
<path stroke="#9a8c8d" vector-effect="non-scaling-stroke" d="
  M 319.64 171.28
  L 321.57 163.02
  Q 321.69 162.50 322.22 162.50
  L 324.76 162.50
  A 0.60 0.60 0.0 0 0 325.33 161.72
  L 324.47 158.99
  A 0.42 0.42 0.0 0 1 325.05 158.49
  Q 327.48 159.62 330.22 159.20
  A 0.55 0.54 -4.8 0 0 330.69 158.65
  C 330.62 154.30 327.53 151.61 324.32 149.21
  Q 323.66 148.72 324.47 148.59
  L 327.97 148.05
  A 0.70 0.70 0.0 0 0 328.34 146.84
  Q 323.64 142.60 317.49 142.50
  Q 317.28 142.50 317.18 142.40
  Q 316.98 142.19 317.22 142.05
  L 319.57 140.69
  A 0.74 0.73 62.1 0 0 319.86 139.73
  C 317.85 135.71 303.13 137.86 299.72 138.39
  Q 298.85 138.52 299.25 137.73
  L 299.93 136.41
  Q 300.32 135.63 299.45 135.69
  Q 290.64 136.22 285.26 143.12
  Q 284.91 143.58 284.34 143.47
  C 277.02 142.01 275.52 152.37 277.07 157.12
  Q 278.72 162.21 278.66 167.29"
/>
<path stroke="#d3a599" vector-effect="non-scaling-stroke" d="
  M 278.66 167.29
  C 273.93 170.87 277.66 176.89 281.48 179.14
  Q 281.91 179.39 282.10 179.85
  C 283.87 184.09 286.42 188.46 290.76 190.41
  Q 291.29 190.65 291.17 191.23
  L 288.98 201.72
  A 0.87 0.86 -77.8 0 1 287.95 202.39
  Q 282.78 201.22 277.23 198.37"
/>
<path stroke="#ffaa96" vector-effect="non-scaling-stroke" d="
  M 277.23 198.37
  C 267.81 191.92 260.79 181.54 255.79 171.41
  Q 255.58 170.98 255.11 171.03
  Q 254.03 171.16 253.73 172.09"
/>
<path stroke="#d3a599" vector-effect="non-scaling-stroke" d="
  M 253.73 172.09
  Q 252.26 172.43 251.61 171.09
  C 239.37 145.99 237.12 113.88 239.52 86.21"
/>
<path stroke="#d2dbe2" vector-effect="non-scaling-stroke" d="
  M 239.52 86.21
  C 240.14 86.24 240.58 86.37 241.13 86.08
  Q 267.54 72.49 295.58 62.68
  A 0.76 0.74 -12.9 0 0 296.08 61.90
  L 294.50 46.28
  A 0.92 0.91 -14.6 0 0 293.22 45.53
  L 248.75 65.03"
/>
<path stroke="#a6807c" vector-effect="non-scaling-stroke" d="
  M 239.52 86.21
  Q 239.91 83.39 241.65 81.41
  Q 241.92 81.10 241.95 80.69
  L 242.08 79.06
  A 0.67 0.67 0.0 0 1 242.79 78.44
  C 245.70 78.61 245.57 74.52 245.82 72.54
  Q 245.89 72.03 246.36 71.83
  Q 250.37 70.08 248.75 65.03"
/>
<path stroke="#d34f30" vector-effect="non-scaling-stroke" d="
  M 253.73 172.09
  C 250.26 185.67 245.49 198.83 242.00 212.36
  Q 240.77 217.11 237.17 219.87"
/>
<path stroke="#f7835b" vector-effect="non-scaling-stroke" d="
  M 321.28 238.05
  Q 319.84 237.30 318.22 238.19"
/>
<path stroke="#fd773f" vector-effect="non-scaling-stroke" d="
  M 317.98 238.41
  C 306.51 236.48 296.67 234.99 283.65 232.56
  C 272.22 230.44 259.55 228.43 248.47 232.90"
/>
<path stroke="#fd773f" vector-effect="non-scaling-stroke" d="
  M 317.93 239.95
  C 299.72 237.81 280.90 234.12 263.25 232.77
  Q 255.92 232.20 247.65 235.09"
/>
<path stroke="#a2402a" vector-effect="non-scaling-stroke" d="
  M 303.68 192.68
  L 294.21 192.53
  Q 293.51 192.52 293.84 193.13
  C 296.21 197.47 299.05 196.82 302.70 199.18"
/>
<path stroke="#d34f30" vector-effect="non-scaling-stroke" d="
  M 308.21 203.05
  Q 309.11 204.91 307.19 205.87
  Q 299.35 209.80 291.59 208.75
  Q 282.50 207.52 277.23 198.37"
/>
<path stroke="#79372b" vector-effect="non-scaling-stroke" d="
  M 386.53 161.64
  C 384.49 166.49 382.78 173.79 379.67 177.82
  C 377.46 180.68 376.10 183.69 373.75 186.66
  Q 371.25 189.83 370.09 193.25"
/>
<path stroke="#863a28" vector-effect="non-scaling-stroke" d="
  M 362.58 201.52
  Q 361.68 200.75 360.50 202.00
  Q 358.79 203.80 358.17 204.14"
/>
<path stroke="#d34f30" vector-effect="non-scaling-stroke" d="
  M 335.58 235.08
  Q 335.23 234.78 334.88 234.73
  Q 334.55 234.69 334.52 234.36
  Q 333.98 228.27 332.35 222.41
  C 330.02 214.04 328.93 208.06 327.64 200.69"
/>
<path stroke="#79372b" vector-effect="non-scaling-stroke" d="
  M 363.00 179.99
  Q 363.17 180.00 363.31 180.00
  Q 363.68 180.00 363.93 179.74
  Q 369.62 173.73 375.20 165.47
  Q 376.05 164.21 375.96 163.17"
/>
<path stroke="#ec502e" vector-effect="non-scaling-stroke" d="
  M 327.33 315.70
  Q 317.06 316.56 308.44 310.81
  Q 308.13 310.61 307.48 310.82"
/>
<path stroke="#ce4528" vector-effect="non-scaling-stroke" d="
  M 307.48 310.82
  C 294.66 305.06 284.34 300.47 269.76 301.61
  Q 263.86 302.07 245.94 304.71
  Q 240.54 305.50 238.49 306.26"
/>
<path stroke="#d34f30" vector-effect="non-scaling-stroke" d="
  M 238.49 306.26
  L 230.66 306.56"
/>
<path stroke="#6e3226" vector-effect="non-scaling-stroke" d="
  M 319.64 171.28
  Q 318.47 171.41 318.49 170.69
  C 318.61 166.71 319.85 160.71 314.80 159.30
  Q 314.02 159.09 314.34 159.83
  L 315.55 162.62
  A 1.46 1.46 0.0 0 1 313.80 164.61
  Q 306.60 162.50 300.84 157.69
  A 0.53 0.52 -84.0 0 0 300.04 158.34
  L 300.28 158.80
  A 0.71 0.70 -6.0 0 1 299.46 159.81
  Q 294.15 158.26 290.06 154.63
  A 0.48 0.48 0.0 0 0 289.26 154.98
  L 289.23 156.78
  A 0.53 0.52 83.5 0 1 288.84 157.28
  Q 287.72 157.58 286.53 156.84
  Q 283.11 154.69 283.51 159.27
  Q 284.00 164.90 281.90 170.14
  A 0.61 0.60 -59.4 0 1 280.96 170.39
  Q 279.57 169.24 278.66 167.29"
/>
<path stroke="#a55241" vector-effect="non-scaling-stroke" d="
  M 430.36 233.47
  L 416.44 237.08"
/>
<path stroke="#a04d3b" vector-effect="non-scaling-stroke" d="
  M 416.44 237.08
  L 413.71 236.65"
/>
<path stroke="#985946" vector-effect="non-scaling-stroke" d="
  M 413.71 236.65
  Q 411.72 237.22 412.24 232.79"
/>
<path stroke="#8e5142" vector-effect="non-scaling-stroke" d="
  M 412.24 232.79
  L 411.68 226.87"
/>
<path stroke="#985946" vector-effect="non-scaling-stroke" d="
  M 411.68 226.87
  Q 419.53 224.61 424.53 218.34
  A 1.12 1.08 -74.2 0 1 425.25 217.92
  Q 427.96 217.54 428.90 215.00
  Q 429.10 214.48 428.93 213.95
  C 428.39 212.21 428.34 211.30 428.97 209.48
  Q 431.32 202.76 430.79 195.74
  A 0.40 0.40 0.0 0 0 430.07 195.53
  Q 426.67 200.18 420.89 200.56
  A 0.78 0.78 0.0 0 1 420.14 199.44
  L 421.98 195.72
  Q 422.61 194.44 421.40 195.19
  Q 413.68 199.95 404.65 201.23
  A 0.36 0.36 0.0 0 1 404.47 200.54
  L 406.28 199.87
  A 0.31 0.31 0.0 0 0 406.32 199.31
  L 405.05 198.64
  A 0.39 0.39 0.0 0 1 405.10 197.93
  C 408.27 196.81 417.00 193.92 419.08 190.59
  A 0.34 0.34 0.0 0 0 418.63 190.12
  Q 410.92 194.47 402.27 196.27
  A 1.87 1.87 0.0 0 0 400.81 197.79
  Q 400.03 202.55 400.94 207.28
  A 0.63 0.63 0.0 0 1 399.85 207.81
  L 396.94 204.49
  A 0.41 0.40 39.3 0 0 396.28 204.55
  Q 393.86 208.74 397.70 210.83
  A 1.03 1.03 0.0 0 1 398.23 211.60
  Q 398.81 216.36 401.11 220.52
  A 0.50 0.47 -57.2 0 1 401.17 220.85
  L 398.93 236.51
  A 0.55 0.55 0.0 0 1 398.64 236.92
  Q 397.42 237.55 396.02 237.61"
/>
<path stroke="#a55241" vector-effect="non-scaling-stroke" d="
  M 396.02 237.61
  L 379.20 245.31"
/>
<path stroke="#bb4129" vector-effect="non-scaling-stroke" d="
  M 307.48 310.82
  L 307.49 311.25"
/>
<path stroke="#763a27" vector-effect="non-scaling-stroke" d="
  M 307.49 311.25
  L 306.28 311.20
  Q 305.81 311.18 305.35 311.31
  L 299.28 312.99"
/>
<path stroke="#a2402a" vector-effect="non-scaling-stroke" d="
  M 299.28 312.99
  Q 299.77 310.88 297.75 310.49
  Q 289.00 308.82 280.22 307.52
  Q 260.81 304.65 242.00 310.01
  C 239.69 310.66 237.65 308.64 238.49 306.26"
/>
<path stroke="#7b442f" vector-effect="non-scaling-stroke" d="
  M 299.28 312.99
  C 287.88 315.07 276.99 318.62 264.68 316.82
  Q 251.36 314.87 238.04 313.19"
/>
<path stroke="#94442e" vector-effect="non-scaling-stroke" d="
  M 309.48 320.29
  L 307.49 311.25"
/>
<path stroke="#dc8765" vector-effect="non-scaling-stroke" d="
  M 411.68 226.87
  Q 410.47 226.97 409.21 225.67
  A 1.23 1.22 -21.9 0 0 408.33 225.30
  Q 405.85 225.30 403.93 223.79
  A 0.77 0.77 0.0 0 0 402.70 224.53
  Q 404.03 231.61 411.29 230.70
  A 0.59 0.58 -8.9 0 1 411.94 231.17
  L 412.24 232.79"
/>
<path stroke="#ee835e" vector-effect="non-scaling-stroke" d="
  M 413.71 236.65
  C 412.13 245.93 408.40 264.66 393.78 257.60
  A 2.28 2.28 0.0 0 1 392.59 254.91
  L 396.82 240.57"
/>
<path stroke="#f28864" vector-effect="non-scaling-stroke" d="
  M 396.82 240.57
  Q 397.78 237.65 396.02 237.61"
/>
<path stroke="#fb7b59" vector-effect="non-scaling-stroke" d="
  M 429.80 235.84
  Q 426.91 236.61 424.75 238.54
  Q 424.38 238.87 424.41 239.37
  Q 425.26 251.96 433.27 262.21"
/>
<path stroke="#a46256" vector-effect="non-scaling-stroke" d="
  M 435.85 339.53
  C 418.44 347.14 397.76 350.10 380.52 341.36"
/>
<path stroke="#a05f52" vector-effect="non-scaling-stroke" d="
  M 380.52 341.36
  L 372.79 335.95
  Q 372.48 335.73 372.13 335.56
  L 371.18 335.08"
/>
<path stroke="#fb7b59" vector-effect="non-scaling-stroke" d="
  M 381.64 310.41
  Q 385.45 309.00 389.05 306.65
  Q 390.98 305.39 393.21 304.88
  Q 402.87 302.64 410.37 296.07"
/>
<path stroke="#f28864" vector-effect="non-scaling-stroke" d="
  M 410.37 296.07
  Q 410.98 291.97 409.83 287.43
  Q 409.71 286.95 409.23 286.85
  Q 406.50 286.30 403.74 285.72
  C 401.06 285.15 398.93 287.75 397.22 288.90
  Q 393.26 291.55 388.68 293.69
  A 1.86 1.71 -8.9 0 1 386.05 291.93
  Q 386.34 290.24 383.61 288.37"
/>
<path stroke="#ffc0af" vector-effect="non-scaling-stroke" d="
  M 383.61 288.37
  Q 381.55 277.32 383.29 267.25"
/>
<path stroke="#f28864" vector-effect="non-scaling-stroke" d="
  M 383.29 267.25
  C 383.54 266.13 382.47 265.18 381.42 264.70
  Q 376.65 262.56 375.48 257.33
  Q 375.37 256.84 374.87 256.79
  Q 373.92 256.69 373.70 256.24"
/>
<path stroke="#fb7b59" vector-effect="non-scaling-stroke" d="
  M 396.82 240.57
  L 395.83 240.01
  Q 395.42 239.77 395.09 240.12
  C 389.46 246.00 388.03 251.91 387.83 259.76
  C 387.78 261.42 388.56 262.67 389.61 263.83
  Q 389.94 264.21 390.44 264.30
  C 399.04 265.93 407.82 267.51 412.40 258.15
  Q 417.17 248.39 416.44 237.08"
/>
<path stroke="#ee835e" vector-effect="non-scaling-stroke" d="
  M 435.18 255.34
  C 430.58 250.09 430.22 242.95 429.80 235.84"
/>
<path stroke="#f28864" vector-effect="non-scaling-stroke" d="
  M 429.80 235.84
  L 430.36 233.47"
/>
<path stroke="#985946" vector-effect="non-scaling-stroke" d="
  M 430.36 233.47
  Q 442.36 222.02 454.67 210.00
  C 455.07 209.61 455.21 209.03 455.34 208.53"
/>
<path stroke="#422b23" vector-effect="non-scaling-stroke" d="
  M 359.58 522.13
  Q 353.90 524.14 349.16 523.47"
/>
<path stroke="#422b23" vector-effect="non-scaling-stroke" d="
  M 210.86 538.31
  Q 206.32 538.61 201.16 535.71"
/>
<path stroke="#f2c7b4" vector-effect="non-scaling-stroke" d="
  M 383.29 267.25
  L 365.08 296.07
  A 0.50 0.50 0.0 0 0 365.55 296.83
  L 383.00 294.98
  Q 383.71 294.91 383.70 294.19
  L 383.61 288.37"
/>
<path stroke="#ee835e" vector-effect="non-scaling-stroke" d="
  M 410.37 296.07
  C 405.53 297.23 401.32 299.32 396.50 299.82
  Q 389.41 300.55 383.32 302.59"
/>
<path stroke="#454049" vector-effect="non-scaling-stroke" d="
  M 380.52 341.36
  L 379.89 343.24
  Q 379.74 343.70 379.94 344.14
  C 384.38 353.95 386.84 361.48 395.79 368.36
  A 1.93 1.92 -57.0 0 1 396.31 370.81
  C 387.53 386.92 382.13 403.47 376.15 420.66
  C 374.55 425.25 374.26 429.07 374.10 433.76"
/>
<path stroke="#454049" vector-effect="non-scaling-stroke" d="
  M 423.12 402.30
  Q 420.09 406.58 416.32 411.05
  C 415.23 412.35 415.14 413.66 415.68 415.14
  Q 415.88 415.69 416.45 415.58
  C 418.80 415.15 420.36 416.42 422.02 416.23
  Q 423.20 416.09 423.37 415.32"
/>
<path stroke="#534b54" vector-effect="non-scaling-stroke" d="
  M 458.61 415.19
  C 459.70 417.48 461.56 422.55 458.73 424.71"
/>
<path stroke="#ac7354" vector-effect="non-scaling-stroke" d="
  M 516.53 158.71
  C 521.10 151.00 524.21 144.77 522.68 135.50
  A 0.61 0.61 0.0 0 0 521.55 135.29
  L 518.46 140.41
  Q 516.57 143.55 516.44 139.89
  Q 516.22 133.46 514.32 126.78"
/>
<path stroke="#6d6870" vector-effect="non-scaling-stroke" d="
  M 208.18 554.93
  C 208.51 559.47 207.49 572.83 200.84 572.19
  C 195.41 571.67 196.12 559.04 196.29 555.42"
/>
<path stroke="#ae5444" vector-effect="non-scaling-stroke" d="
  M 466.91 424.38
  Q 465.48 418.15 466.65 411.39"
/>
<path stroke="#4f484f" vector-effect="non-scaling-stroke" d="
  M 443.94 403.51
  Q 442.88 399.52 440.07 395.90"
/>
<path stroke="#ae5444" vector-effect="non-scaling-stroke" d="
  M 448.30 403.46
  Q 449.33 398.83 446.43 394.39"
/>
<path stroke="#ce896d" vector-effect="non-scaling-stroke" d="
  M 165.8056 179.8581
  A 1.71 0.58 9.7 0 0 164.2177 178.9983
  A 1.71 0.58 9.7 0 0 162.4344 179.2819
  A 1.71 0.58 9.7 0 0 164.0223 180.1417
  A 1.71 0.58 9.7 0 0 165.8056 179.8581"
/>
<path stroke="#ce896d" vector-effect="non-scaling-stroke" d="
  M 148.64 184.59
  L 152.47 181.16
  A 0.14 0.14 0.0 0 0 152.48 180.96
  L 152.43 180.90
  A 2.53 1.24 -41.9 0 0 149.72 181.67
  L 149.45 181.91
  A 2.53 1.24 -41.9 0 0 148.39 184.52
  L 148.45 184.58
  A 0.14 0.14 0.0 0 0 148.64 184.59"
/>
<path stroke="#b48f73" vector-effect="non-scaling-stroke" d="
  M 164.2750 185.8533
  A 1.28 1.06 117.7 0 0 165.8085 185.2127
  A 1.28 1.06 117.7 0 0 165.4650 183.5867
  A 1.28 1.06 117.7 0 0 163.9315 184.2273
  A 1.28 1.06 117.7 0 0 164.2750 185.8533"
/>
<path stroke="#efb395" vector-effect="non-scaling-stroke" d="
  M 165.04 189.06
  Q 160.92 188.26 159.48 184.45
  Q 159.11 183.48 158.92 184.50
  C 158.38 187.28 161.88 189.31 164.20 190.32
  A 0.63 0.63 0.0 0 1 164.55 191.08
  L 163.98 193.00
  A 1.04 0.81 72.1 0 0 165.52 194.05
  Q 166.43 191.94 165.87 189.83
  A 1.08 1.06 -1.6 0 0 165.04 189.06"
/>
<path stroke="#b48f73" vector-effect="non-scaling-stroke" d="
  M 154.70 187.54
  A 1.26 1.26 0.0 0 0 153.44 186.28
  A 1.26 1.26 0.0 0 0 152.18 187.54
  A 1.26 1.26 0.0 0 0 153.44 188.80
  A 1.26 1.26 0.0 0 0 154.70 187.54"
/>
<path stroke="#e4a485" vector-effect="non-scaling-stroke" d="
  M 163.82 197.76
  Q 160.57 198.87 157.83 196.93
  A 0.40 0.39 -5.8 0 0 157.33 197.54
  Q 160.33 200.33 164.14 198.56
  A 0.43 0.43 0.0 0 0 163.82 197.76"
/>
<path stroke="#f2bd98" vector-effect="non-scaling-stroke" d="
  M 161.62 212.11
  Q 160.94 211.21 160.08 210.49
  A 1.17 1.17 0.0 0 0 159.23 210.22
  Q 154.74 210.56 150.57 208.99
  Q 148.79 208.33 149.56 210.06
  Q 151.55 214.54 156.78 216.09
  C 159.78 216.99 162.55 216.42 161.95 212.49
  Q 161.93 212.33 161.79 212.26
  Q 161.68 212.20 161.62 212.11"
/>
<path stroke="#863a28" vector-effect="non-scaling-stroke" d="
  M 294.1599 164.1833
  A 2.80 0.78 -24.4 0 0 291.2878 164.6297
  A 2.80 0.78 -24.4 0 0 289.0601 166.4967
  A 2.80 0.78 -24.4 0 0 291.9322 166.0503
  A 2.80 0.78 -24.4 0 0 294.1599 164.1833"
/>
<path stroke="#863a28" vector-effect="non-scaling-stroke" d="
  M 312.2149 167.3836
  A 1.20 0.80 26.4 0 0 311.4957 166.1334
  A 1.20 0.80 26.4 0 0 310.0651 166.3164
  A 1.20 0.80 26.4 0 0 310.7843 167.5666
  A 1.20 0.80 26.4 0 0 312.2149 167.3836"
/>
<path stroke="#6e3226" vector-effect="non-scaling-stroke" d="
  M 293.7289 173.1140
  A 1.64 1.45 64.0 0 0 294.3133 171.0044
  A 1.64 1.45 64.0 0 0 292.2911 170.1660
  A 1.64 1.45 64.0 0 0 291.7067 172.2756
  A 1.64 1.45 64.0 0 0 293.7289 173.1140"
/>
<path stroke="#79372b" vector-effect="non-scaling-stroke" d="
  M 310.69 172.57
  A 1.31 1.31 0.0 0 0 309.38 171.26
  A 1.31 1.31 0.0 0 0 308.07 172.57
  A 1.31 1.31 0.0 0 0 309.38 173.88
  A 1.31 1.31 0.0 0 0 310.69 172.57"
/>
<path stroke="#863a28" vector-effect="non-scaling-stroke" d="
  M 300.19 188.02
  C 303.28 186.90 305.24 184.62 306.14 181.66
  Q 306.33 181.04 305.70 181.19
  Q 301.36 182.22 297.34 180.46
  A 0.42 0.41 -85.9 0 0 296.78 180.95
  L 298.47 187.12
  A 1.32 1.32 0.0 0 0 300.19 188.02"
/>
<path stroke="#ac7354" vector-effect="non-scaling-stroke" d="
  M 426.9511 205.1546
  A 2.78 0.78 34.5 0 0 425.1018 202.9372
  A 2.78 0.78 34.5 0 0 422.3689 202.0054
  A 2.78 0.78 34.5 0 0 424.2182 204.2228
  A 2.78 0.78 34.5 0 0 426.9511 205.1546"
/>
<path stroke="#ac7354" vector-effect="non-scaling-stroke" d="
  M 404.99 205.79
  A 0.35 0.35 0.0 0 0 405.47 206.23
  Q 408.07 205.00 409.71 207.33
  A 0.47 0.47 0.0 0 0 410.54 206.94
  C 409.87 204.48 405.99 203.04 404.99 205.79"
/>
<path stroke="#c66d4e" vector-effect="non-scaling-stroke" d="
  M 415.27 211.11
  L 414.49 211.88
  Q 414.03 212.35 414.67 212.47
  Q 415.86 212.71 416.71 211.93
  Q 417.20 211.48 417.07 210.83
  Q 416.58 208.33 417.74 206.23
  A 0.37 0.36 -53.4 0 0 417.68 205.80
  L 417.38 205.51
  A 0.43 0.42 28.5 0 0 416.66 205.72
  L 415.70 210.30
  Q 415.61 210.77 415.27 211.11"
/>
<path stroke="#ac7354" vector-effect="non-scaling-stroke" d="
  M 419.19 208.99
  L 424.28 210.86
  A 0.04 0.04 0.0 0 0 424.33 210.84
  L 424.34 210.81
  A 2.07 1.71 20.2 0 0 422.99 208.49
  L 421.71 208.02
  A 2.07 1.71 20.2 0 0 419.18 208.91
  L 419.17 208.94
  A 0.04 0.04 0.0 0 0 419.19 208.99"
/>
<path stroke="#a55d43" vector-effect="non-scaling-stroke" d="
  M 416.99 216.24
  A 0.51 0.51 0.0 0 0 416.50 215.47
  Q 413.08 215.86 410.18 214.06
  A 0.49 0.49 0.0 0 0 409.44 214.54
  L 410.19 220.18
  A 0.75 0.75 0.0 0 0 411.15 220.80
  Q 414.94 219.67 416.99 216.24"
/>
<path stroke="#fd773f" vector-effect="non-scaling-stroke" d="
  M 317.74 249.13
  Q 298.89 245.89 279.98 244.01
  C 267.87 242.81 257.46 243.60 246.00 245.81
  Q 245.53 245.89 245.32 246.32
  L 245.07 246.85
  Q 244.77 247.49 245.47 247.45
  C 253.90 246.98 262.56 245.45 270.76 245.91
  C 286.08 246.78 301.45 249.34 315.15 250.41
  Q 315.24 250.42 316.35 250.60
  Q 317.75 250.83 318.09 249.72
  A 0.46 0.45 -76.1 0 0 317.74 249.13"
/>
<path stroke="#fd773f" vector-effect="non-scaling-stroke" d="
  M 308.94 256.03
  Q 313.77 256.72 318.24 258.54
  Q 318.69 258.73 318.74 258.25
  Q 318.81 257.59 318.19 257.31
  C 309.26 253.33 298.68 252.67 288.91 251.27
  C 273.68 249.09 258.86 249.28 244.16 253.29
  Q 242.96 253.61 243.05 254.85
  Q 243.10 255.38 243.61 255.27
  C 254.60 253.09 263.45 252.92 275.30 252.82
  C 286.61 252.73 297.82 254.46 308.94 256.03"
/>
<path stroke="#fb7b59" vector-effect="non-scaling-stroke" d="
  M 389.04 259.80
  C 390.53 265.24 399.53 264.10 403.55 263.54
  Q 410.15 262.61 411.15 256.24
  A 0.44 0.44 0.0 0 0 410.39 255.88
  C 405.75 261.15 396.87 264.05 391.14 258.56
  A 1.27 1.26 14.4 0 0 389.04 259.80"
/>
<path stroke="#534b54" vector-effect="non-scaling-stroke" d="
  M 448.68 420.02
  Q 448.81 419.98 448.94 419.94
  A 0.11 0.11 0.0 0 0 448.96 419.74
  C 446.79 418.50 440.46 420.95 437.93 421.58
  C 432.08 423.03 425.64 423.14 419.50 423.86
  C 412.18 424.71 404.97 427.49 397.69 429.40
  A 0.20 0.20 0.0 0 0 397.57 429.70
  Q 397.65 429.82 397.77 429.90
  Q 397.93 430.00 398.21 429.93
  C 404.33 428.48 410.54 426.46 416.45 425.60
  C 427.06 424.04 437.66 423.67 447.75 421.47
  Q 448.68 421.27 448.58 420.19
  Q 448.56 420.06 448.68 420.02"
/>
</g>
<g fill="#ffffff">
<path d="
  M 0.00 0.00
  L 601.00 0.00
  L 601.00 592.00
  L 0.00 592.00
  L 0.00 0.00
  Z
  M 136.43 72.88
  C 130.61 79.11 130.66 90.06 129.46 98.07
  C 127.98 108.03 124.16 118.11 121.97 127.50
  Q 109.30 181.81 125.23 235.75
  Q 129.14 248.97 133.67 262.55
  C 133.73 272.42 129.77 282.05 123.54 290.18
  C 118.92 302.01 132.41 304.01 140.15 300.76
  Q 140.95 300.84 141.24 300.62
  Q 142.41 300.70 142.23 301.25
  Q 141.79 302.62 141.79 303.63
  C 132.77 322.21 126.90 339.50 135.75 359.79
  Q 146.91 385.35 163.48 407.71
  A 0.34 0.34 0.0 0 1 163.24 408.25
  L 136.67 410.82
  Q 136.14 410.87 135.99 411.38
  Q 135.48 413.13 135.77 415.29
  L 116.23 414.00
  C 112.50 407.82 109.51 399.86 101.41 408.41
  Q 96.88 413.19 91.29 416.55
  C 86.88 419.19 80.36 420.75 76.30 422.78
  C 71.96 424.95 76.38 430.54 80.69 429.16
  C 91.53 425.71 100.00 424.77 110.13 423.47
  C 111.25 423.33 112.35 422.53 113.32 421.97
  L 117.82 422.85
  C 114.41 427.13 102.17 444.51 110.18 447.64
  Q 110.79 447.88 111.09 447.82
  A 1.74 1.74 0.0 0 0 112.48 446.08
  Q 112.36 441.27 116.56 438.80
  Q 122.86 435.11 126.56 429.61
  L 137.53 427.69
  C 152.42 432.93 169.08 436.52 184.45 429.66
  C 189.94 427.20 197.37 429.42 201.84 426.00
  C 206.43 422.49 206.36 415.83 205.94 410.81
  C 203.05 376.52 198.13 342.53 193.88 308.34
  L 193.29 298.63
  L 193.90 294.72
  Q 203.59 294.19 209.49 287.96
  L 211.39 283.67
  Q 211.61 283.18 211.21 282.81
  Q 200.98 273.31 197.97 259.78
  C 196.78 254.41 197.95 248.55 195.45 243.75
  C 192.57 238.23 185.43 233.72 181.07 230.88
  C 181.99 225.66 182.05 220.67 183.69 215.69
  Q 202.39 159.16 187.61 101.98
  Q 187.15 100.19 185.54 100.04
  L 184.90 90.24
  Q 189.12 87.88 191.27 83.75
  C 192.35 81.68 197.99 66.10 190.49 68.95
  A 1.18 1.18 0.0 0 1 188.95 67.46
  C 190.21 63.74 186.67 60.11 185.32 56.57
  Q 186.41 53.06 178.25 54.45
  C 178.75 46.36 180.43 30.95 178.05 26.39
  A 1.17 1.16 83.4 0 0 177.31 25.80
  Q 174.87 25.13 172.32 25.07
  Q 151.27 24.58 130.37 25.18
  A 0.54 0.54 0.0 0 0 129.85 25.76
  Q 131.74 49.24 136.43 72.88
  Z
  M 248.75 65.03
  Q 246.94 62.94 244.25 63.72
  Q 238.64 65.36 233.42 65.08
  A 2.02 2.01 -74.7 0 0 231.52 66.17
  C 227.12 74.63 223.68 84.82 229.65 93.42
  A 1.37 1.35 -60.4 0 1 229.89 94.31
  Q 225.93 143.58 239.28 191.05
  C 240.18 194.23 238.99 196.14 237.98 199.23
  Q 235.19 207.74 237.17 219.87
  Q 241.81 224.29 249.38 226.86
  Q 249.94 227.05 249.80 227.62
  L 248.47 232.90
  L 247.65 235.09
  Q 246.26 239.00 243.84 247.57
  Q 235.21 278.03 230.66 306.56
  L 237.92 311.42
  Q 238.34 311.70 238.24 312.20
  L 238.04 313.19
  C 219.52 385.44 205.19 458.90 201.89 533.68
  Q 201.85 534.76 201.16 535.71
  C 198.15 539.13 196.58 550.98 196.29 555.42
  Q 146.30 556.23 96.68 560.34
  Q 78.72 561.83 61.04 565.18
  Q 57.17 565.92 52.62 567.76
  Q 50.48 568.63 52.04 570.33
  C 55.42 574.02 69.74 575.47 74.77 576.07
  Q 108.74 580.16 142.93 581.75
  C 226.96 585.65 311.38 585.51 395.43 582.32
  C 427.48 581.10 460.37 579.76 491.98 574.15
  Q 496.48 573.35 500.78 571.82
  Q 502.56 571.19 502.75 570.88
  Q 504.39 568.26 501.44 567.30
  Q 493.39 564.69 485.24 563.58
  Q 456.20 559.66 426.94 558.04
  C 354.14 554.02 281.13 553.69 208.18 554.93
  C 210.19 548.54 213.98 546.05 210.86 538.31
  Q 212.79 529.06 215.50 520.25
  Q 239.63 441.78 265.28 363.77
  Q 265.45 363.24 266.00 363.17
  L 279.75 361.53
  A 0.95 0.95 0.0 0 1 280.74 362.10
  L 349.16 523.47
  Q 346.94 525.84 348.51 528.95
  A 1.10 1.10 0.0 0 0 349.24 529.53
  C 358.24 531.60 359.75 537.02 365.77 541.50
  Q 369.21 544.05 375.39 544.23
  Q 375.81 544.24 376.08 543.93
  Q 377.89 541.87 375.96 540.29
  C 371.87 536.94 369.62 535.56 366.97 530.95
  C 364.99 527.50 363.68 523.98 359.58 522.13
  L 309.48 320.29
  C 313.12 320.89 328.90 323.07 327.33 315.70
  Q 326.09 295.65 323.51 276.12
  C 322.24 266.46 318.99 256.71 318.33 246.95
  Q 318.08 243.34 317.93 239.95
  L 317.98 238.41
  Q 318.10 238.30 318.22 238.19
  Q 319.87 238.44 321.28 238.05
  L 334.77 237.98
  Q 335.32 237.98 335.37 237.43
  L 335.58 235.08
  L 337.04 219.47
  Q 337.09 218.96 337.53 218.69
  Q 348.29 212.09 358.17 204.14
  Q 359.30 205.91 360.35 205.96
  Q 360.92 205.99 361.12 205.45
  L 362.58 201.52
  Q 365.11 195.96 370.09 193.25
  Q 360.76 204.25 364.11 217.99
  A 0.20 0.20 0.0 0 0 364.51 217.96
  Q 365.68 206.59 376.50 203.21
  Q 377.17 203.01 377.09 203.70
  Q 376.47 209.35 375.95 215.02
  C 375.04 224.81 360.37 227.62 364.71 238.21
  A 0.13 0.13 0.0 0 0 364.96 238.16
  C 364.94 230.93 371.72 228.12 377.02 225.24
  Q 377.66 224.90 377.30 225.53
  C 375.48 228.76 372.50 232.92 374.63 235.53
  C 376.34 237.63 378.34 236.28 378.32 240.33
  Q 378.31 242.97 379.20 245.31
  L 373.81 248.51
  A 1.74 1.74 0.0 0 0 373.34 251.09
  Q 375.20 253.42 373.70 256.24
  Q 358.70 279.25 343.64 302.19
  C 342.33 304.19 341.58 306.02 341.75 308.23
  A 2.51 2.51 0.0 0 0 343.83 310.50
  Q 358.02 312.91 371.29 307.34
  Q 377.02 304.93 383.32 302.59
  L 381.64 310.41
  Q 374.86 322.45 371.18 335.08
  Q 363.45 370.93 360.49 407.13
  C 359.69 416.88 357.86 427.88 368.68 433.02
  C 370.29 433.78 372.27 433.46 374.10 433.76
  C 374.89 441.37 382.27 445.64 388.50 448.77
  Q 393.70 451.38 397.98 449.01
  Q 428.62 432.03 458.73 424.71
  Q 462.43 426.55 466.91 424.38
  C 474.26 426.74 480.01 436.10 482.65 442.83
  A 0.93 0.93 0.0 0 0 484.20 443.12
  Q 484.93 442.34 484.84 440.73
  Q 483.97 424.62 473.55 412.45
  Q 470.54 408.93 466.65 411.39
  L 458.61 415.19
  Q 441.45 416.92 423.37 415.32
  Q 433.12 408.68 443.94 403.51
  Q 446.47 402.98 448.30 403.46
  Q 454.78 407.78 459.79 413.12
  A 0.84 0.84 0.0 0 0 461.24 412.54
  C 461.16 405.72 457.12 387.58 446.43 394.39
  Q 443.77 393.69 440.07 395.90
  L 423.12 402.30
  C 434.11 391.87 441.64 382.67 441.69 366.27
  Q 441.74 351.33 435.85 339.53
  Q 436.55 339.39 436.56 337.89
  Q 436.57 337.15 436.24 336.21
  Q 431.34 322.36 426.47 308.49
  C 424.65 303.27 423.65 298.64 424.72 293.75
  Q 428.23 277.84 429.60 267.29
  Q 429.66 266.81 429.96 266.43
  L 433.27 262.21
  Q 436.52 257.82 435.18 255.34
  C 462.01 225.60 486.63 193.99 511.19 162.43
  Q 512.60 160.62 516.53 158.71
  Q 516.22 160.55 516.62 161.40
  Q 516.87 161.93 517.45 161.79
  L 559.29 151.23
  Q 559.93 151.07 559.99 150.41
  C 562.13 126.04 555.87 100.69 548.51 77.93
  Q 548.35 77.42 547.83 77.57
  Q 523.04 84.58 500.45 96.95
  A 0.58 0.58 0.0 0 0 500.27 97.81
  Q 510.79 111.40 514.32 126.78
  L 507.35 157.50
  A 4.93 4.88 -16.0 0 1 505.98 159.94
  Q 481.47 183.74 457.02 207.52
  Q 456.18 208.33 455.34 208.53
  C 453.12 203.41 450.30 201.26 446.74 197.89
  C 441.86 193.27 444.76 188.61 442.11 183.62
  Q 438.32 176.48 429.47 179.01
  Q 428.88 179.18 428.83 178.57
  L 428.56 175.11
  A 0.67 0.66 -72.2 0 0 428.33 174.65
  C 424.99 171.62 417.76 173.55 413.61 174.45
  A 1.28 1.24 52.4 0 1 412.71 174.32
  C 403.42 169.26 397.35 163.27 386.53 161.64
  Q 389.45 152.04 390.48 142.11
  Q 390.54 141.57 391.07 141.49
  C 398.80 140.30 407.51 133.12 414.01 128.48
  A 0.43 0.43 0.0 0 0 413.74 127.70
  Q 410.33 127.85 407.29 129.41
  A 0.40 0.39 -82.4 0 1 406.82 128.79
  L 416.75 117.74
  A 0.42 0.41 -80.7 0 0 416.28 117.08
  C 411.46 119.23 407.76 122.32 403.26 124.78
  Q 402.54 125.17 402.95 124.46
  Q 407.03 117.36 412.91 111.70
  Q 413.64 111.00 412.65 110.83
  Q 411.33 110.61 409.90 111.90
  Q 405.97 115.45 402.32 118.77
  A 0.63 0.63 0.0 0 1 401.37 117.97
  C 403.16 115.18 407.52 108.54 406.91 105.40
  Q 406.72 104.40 406.08 105.19
  L 389.20 126.43
  Q 388.87 126.84 388.42 126.56
  C 385.29 124.61 384.96 116.89 383.97 113.16
  A 0.61 0.60 -38.3 0 0 382.85 113.03
  Q 382.62 113.46 382.71 114.50
  Q 383.47 124.21 384.37 133.90
  C 384.63 136.75 386.19 138.23 385.39 141.34
  Q 382.58 152.21 377.28 162.11
  Q 377.04 162.55 376.61 162.80
  L 375.96 163.17
  Q 364.95 168.13 363.00 179.99
  C 362.74 180.63 362.71 181.07 362.18 181.57
  Q 347.16 195.56 327.64 200.69
  L 308.21 203.05
  L 302.26 203.90
  Q 301.70 203.98 301.82 203.43
  L 302.70 199.18
  Q 303.91 195.82 303.68 192.68
  Q 311.17 190.81 314.67 184.74
  C 317.54 179.78 322.61 177.82 319.64 171.28
  L 321.57 163.02
  Q 321.69 162.50 322.22 162.50
  L 324.76 162.50
  A 0.60 0.60 0.0 0 0 325.33 161.72
  L 324.47 158.99
  A 0.42 0.42 0.0 0 1 325.05 158.49
  Q 327.48 159.62 330.22 159.20
  A 0.55 0.54 -4.8 0 0 330.69 158.65
  C 330.62 154.30 327.53 151.61 324.32 149.21
  Q 323.66 148.72 324.47 148.59
  L 327.97 148.05
  A 0.70 0.70 0.0 0 0 328.34 146.84
  Q 323.64 142.60 317.49 142.50
  Q 317.28 142.50 317.18 142.40
  Q 316.98 142.19 317.22 142.05
  L 319.57 140.69
  A 0.74 0.73 62.1 0 0 319.86 139.73
  C 317.85 135.71 303.13 137.86 299.72 138.39
  Q 298.85 138.52 299.25 137.73
  L 299.93 136.41
  Q 300.32 135.63 299.45 135.69
  Q 290.64 136.22 285.26 143.12
  Q 284.91 143.58 284.34 143.47
  C 277.02 142.01 275.52 152.37 277.07 157.12
  Q 278.72 162.21 278.66 167.29
  C 273.93 170.87 277.66 176.89 281.48 179.14
  Q 281.91 179.39 282.10 179.85
  C 283.87 184.09 286.42 188.46 290.76 190.41
  Q 291.29 190.65 291.17 191.23
  L 288.98 201.72
  A 0.87 0.86 -77.8 0 1 287.95 202.39
  Q 282.78 201.22 277.23 198.37
  C 267.81 191.92 260.79 181.54 255.79 171.41
  Q 255.58 170.98 255.11 171.03
  Q 254.03 171.16 253.73 172.09
  Q 252.26 172.43 251.61 171.09
  C 239.37 145.99 237.12 113.88 239.52 86.21
  C 240.14 86.24 240.58 86.37 241.13 86.08
  Q 267.54 72.49 295.58 62.68
  A 0.76 0.74 -12.9 0 0 296.08 61.90
  L 294.50 46.28
  A 0.92 0.91 -14.6 0 0 293.22 45.53
  L 248.75 65.03
  Z"
/>
<path d="
  M 139.91 89.79
  Q 142.06 99.00 145.28 106.71
  Q 145.49 107.21 146.01 107.09
  Q 154.75 105.06 163.89 101.24
  L 182.64 101.28
  Q 183.52 119.08 184.27 137.00
  Q 184.57 144.29 183.03 152.76
  Q 180.47 166.73 179.03 173.01
  L 169.15 177.80
  L 165.53 170.45
  C 167.98 169.95 172.66 168.54 172.22 165.47
  Q 172.12 164.80 171.46 164.95
  L 168.51 165.60
  A 0.38 0.38 0.0 0 1 168.23 164.91
  Q 170.14 163.74 171.04 161.69
  A 1.44 1.44 0.0 0 0 169.52 159.69
  Q 165.95 160.20 162.95 162.18
  A 0.47 0.47 0.0 0 1 162.27 161.58
  Q 163.57 159.01 163.38 156.06
  C 163.27 154.28 161.89 153.17 160.21 153.94
  C 158.98 154.51 158.26 156.21 157.31 157.31
  A 0.28 0.28 0.0 0 1 156.83 157.04
  Q 157.52 154.87 156.99 152.71
  A 1.32 1.32 0.0 0 0 154.47 152.57
  C 149.95 164.73 138.81 159.24 132.74 166.72
  C 131.72 167.98 130.88 168.00 129.47 167.42
  Q 129.36 167.03 129.18 166.59
  Q 129.01 166.16 129.02 165.74
  Q 129.63 141.01 132.02 116.35
  Q 132.25 113.95 133.46 111.54
  Q 137.04 104.39 137.65 98.68
  Q 138.24 93.16 139.91 89.79
  Z"
/>
<path d="
  M 171.19 198.94
  L 173.33 199.01
  Q 170.94 209.89 166.40 219.73
  A 0.51 0.50 -49.4 0 1 165.52 219.80
  Q 163.27 216.41 162.24 212.50
  A 2.54 2.53 63.4 0 1 163.11 209.86
  C 164.55 208.72 166.23 208.01 167.20 206.28
  Q 169.23 202.68 171.19 198.94
  Z"
/>
<path d="
  M 142.28 205.83
  Q 143.16 207.34 144.58 208.03
  A 2.35 2.33 7.0 0 1 145.85 209.64
  L 148.37 221.22
  Q 148.47 221.67 148.23 222.06
  L 147.95 222.53
  L 141.62 221.87
  Q 137.51 222.22 136.56 219.94
  Q 134.85 215.81 133.86 210.20
  C 137.27 211.33 140.81 210.41 140.23 206.31
  Q 140.15 205.75 140.71 205.77
  L 142.28 205.83
  Z"
/>
<path d="
  M 383.29 267.25
  Q 381.55 277.32 383.61 288.37
  L 383.70 294.19
  Q 383.71 294.91 383.00 294.98
  L 365.55 296.83
  A 0.50 0.50 0.0 0 1 365.08 296.07
  L 383.29 267.25
  Z"
/>
</g>
<g fill="#4f3d2c">
<path d="
  M 307.49 311.25
  L 309.48 320.29
  L 359.58 522.13
  Q 353.90 524.14 349.16 523.47
  L 280.74 362.10
  A 0.95 0.95 0.0 0 0 279.75 361.53
  L 266.00 363.17
  Q 265.45 363.24 265.28 363.77
  Q 239.63 441.78 215.50 520.25
  Q 212.79 529.06 210.86 538.31
  Q 206.32 538.61 201.16 535.71
  Q 201.85 534.76 201.89 533.68
  C 205.19 458.90 219.52 385.44 238.04 313.19
  Q 251.36 314.87 264.68 316.82
  C 276.99 318.62 287.88 315.07 299.28 312.99
  L 305.35 311.31
  Q 305.81 311.18 306.28 311.20
  L 307.49 311.25
  Z"
/>
<path d="
  M 116.23 414.00
  Q 115.62 418.61 113.32 421.97
  C 112.35 422.53 111.25 423.33 110.13 423.47
  C 100.00 424.77 91.53 425.71 80.69 429.16
  C 76.38 430.54 71.96 424.95 76.30 422.78
  C 80.36 420.75 86.88 419.19 91.29 416.55
  Q 96.88 413.19 101.41 408.41
  C 109.51 399.86 112.50 407.82 116.23 414.00
  Z"
/>
<path d="
  M 127.36 424.72
  Q 126.21 427.63 126.56 429.61
  Q 122.86 435.11 116.56 438.80
  Q 112.36 441.27 112.48 446.08
  A 1.74 1.74 0.0 0 1 111.09 447.82
  Q 110.79 447.88 110.18 447.64
  C 102.17 444.51 114.41 427.13 117.82 422.85
  L 127.36 424.72
  Z"
/>
</g>
<g fill="#ff542d">
<path d="
  M 178.25 54.45
  Q 174.90 53.22 173.66 54.86
  Q 173.36 55.25 172.87 55.25
  L 154.52 55.10
  A 0.96 0.96 0.0 0 0 153.55 55.98
  L 150.30 95.41
  A 2.29 2.28 -74.8 0 0 151.59 97.66
  C 153.85 98.74 155.65 99.08 158.62 99.17
  Q 161.96 99.28 163.89 101.24
  Q 154.75 105.06 146.01 107.09
  Q 145.49 107.21 145.28 106.71
  Q 142.06 99.00 139.91 89.79
  Q 140.10 89.43 139.97 88.12
  A 0.74 0.72 -30.3 0 1 140.11 87.61
  L 146.44 79.33
  A 0.99 0.99 0.0 0 0 145.05 77.94
  L 140.20 81.67
  A 0.17 0.17 0.0 0 1 139.96 81.44
  L 147.49 71.11
  A 0.79 0.79 0.0 0 0 146.41 69.98
  L 141.81 73.04
  Q 141.30 73.38 141.51 72.80
  C 142.22 70.86 145.58 67.90 144.74 66.07
  Q 144.45 65.44 143.94 65.91
  L 136.43 72.88
  Q 131.74 49.24 129.85 25.76
  A 0.54 0.54 0.0 0 1 130.37 25.18
  Q 151.27 24.58 172.32 25.07
  Q 174.87 25.13 177.31 25.80
  A 1.17 1.16 83.4 0 1 178.05 26.39
  C 180.43 30.95 178.75 46.36 178.25 54.45
  Z"
/>
<path d="
  M 277.23 198.37
  Q 282.50 207.52 291.59 208.75
  Q 299.35 209.80 307.19 205.87
  Q 309.11 204.91 308.21 203.05
  L 327.64 200.69
  C 328.93 208.06 330.02 214.04 332.35 222.41
  Q 333.98 228.27 334.52 234.36
  Q 334.55 234.69 334.88 234.73
  Q 335.23 234.78 335.58 235.08
  L 335.37 237.43
  Q 335.32 237.98 334.77 237.98
  L 321.28 238.05
  Q 319.84 237.30 318.22 238.19
  Q 318.10 238.30 317.98 238.41
  C 306.51 236.48 296.67 234.99 283.65 232.56
  C 272.22 230.44 259.55 228.43 248.47 232.90
  L 249.80 227.62
  Q 249.94 227.05 249.38 226.86
  Q 241.81 224.29 237.17 219.87
  Q 240.77 217.11 242.00 212.36
  C 245.49 198.83 250.26 185.67 253.73 172.09
  Q 254.03 171.16 255.11 171.03
  Q 255.58 170.98 255.79 171.41
  C 260.79 181.54 267.81 191.92 277.23 198.37
  Z"
/>
<path d="
  M 317.93 239.95
  Q 318.08 243.34 318.33 246.95
  C 318.99 256.71 322.24 266.46 323.51 276.12
  Q 326.09 295.65 327.33 315.70
  Q 317.06 316.56 308.44 310.81
  Q 308.13 310.61 307.48 310.82
  C 294.66 305.06 284.34 300.47 269.76 301.61
  Q 263.86 302.07 245.94 304.71
  Q 240.54 305.50 238.49 306.26
  L 230.66 306.56
  Q 235.21 278.03 243.84 247.57
  Q 246.26 239.00 247.65 235.09
  Q 255.92 232.20 263.25 232.77
  C 280.90 234.12 299.72 237.81 317.93 239.95
  Z
  M 317.74 249.13
  Q 298.89 245.89 279.98 244.01
  C 267.87 242.81 257.46 243.60 246.00 245.81
  Q 245.53 245.89 245.32 246.32
  L 245.07 246.85
  Q 244.77 247.49 245.47 247.45
  C 253.90 246.98 262.56 245.45 270.76 245.91
  C 286.08 246.78 301.45 249.34 315.15 250.41
  Q 315.24 250.42 316.35 250.60
  Q 317.75 250.83 318.09 249.72
  A 0.46 0.45 -76.1 0 0 317.74 249.13
  Z
  M 308.94 256.03
  Q 313.77 256.72 318.24 258.54
  Q 318.69 258.73 318.74 258.25
  Q 318.81 257.59 318.19 257.31
  C 309.26 253.33 298.68 252.67 288.91 251.27
  C 273.68 249.09 258.86 249.28 244.16 253.29
  Q 242.96 253.61 243.05 254.85
  Q 243.10 255.38 243.61 255.27
  C 254.60 253.09 263.45 252.92 275.30 252.82
  C 286.61 252.73 297.82 254.46 308.94 256.03
  Z"
/>
<path d="
  M 448.30 403.46
  Q 449.33 398.83 446.43 394.39
  C 457.12 387.58 461.16 405.72 461.24 412.54
  A 0.84 0.84 0.0 0 1 459.79 413.12
  Q 454.78 407.78 448.30 403.46
  Z"
/>
<path d="
  M 466.91 424.38
  Q 465.48 418.15 466.65 411.39
  Q 470.54 408.93 473.55 412.45
  Q 483.97 424.62 484.84 440.73
  Q 484.93 442.34 484.20 443.12
  A 0.93 0.93 0.0 0 1 482.65 442.83
  C 480.01 436.10 474.26 426.74 466.91 424.38
  Z"
/>
</g>
<g fill="#a5b6c5">
<path d="
  M 239.52 86.21
  Q 239.91 83.39 241.65 81.41
  Q 241.92 81.10 241.95 80.69
  L 242.08 79.06
  A 0.67 0.67 0.0 0 1 242.79 78.44
  C 245.70 78.61 245.57 74.52 245.82 72.54
  Q 245.89 72.03 246.36 71.83
  Q 250.37 70.08 248.75 65.03
  L 293.22 45.53
  A 0.92 0.91 -14.6 0 1 294.50 46.28
  L 296.08 61.90
  A 0.76 0.74 -12.9 0 1 295.58 62.68
  Q 267.54 72.49 241.13 86.08
  C 240.58 86.37 240.14 86.24 239.52 86.21
  Z"
/>
<path d="
  M 196.29 555.42
  C 196.12 559.04 195.41 571.67 200.84 572.19
  C 207.49 572.83 208.51 559.47 208.18 554.93
  C 281.13 553.69 354.14 554.02 426.94 558.04
  Q 456.20 559.66 485.24 563.58
  Q 493.39 564.69 501.44 567.30
  Q 504.39 568.26 502.75 570.88
  Q 502.56 571.19 500.78 571.82
  Q 496.48 573.35 491.98 574.15
  C 460.37 579.76 427.48 581.10 395.43 582.32
  C 311.38 585.51 226.96 585.65 142.93 581.75
  Q 108.74 580.16 74.77 576.07
  C 69.74 575.47 55.42 574.02 52.04 570.33
  Q 50.48 568.63 52.62 567.76
  Q 57.17 565.92 61.04 565.18
  Q 78.72 561.83 96.68 560.34
  Q 146.30 556.23 196.29 555.42
  Z"
/>
</g>
<g fill="#f5c8a8">
<path d="
  M 185.32 56.57
  C 186.67 60.11 190.21 63.74 188.95 67.46
  A 1.18 1.18 0.0 0 0 190.49 68.95
  C 197.99 66.10 192.35 81.68 191.27 83.75
  Q 189.12 87.88 184.90 90.24
  L 185.07 74.64
  Q 185.08 73.80 184.24 73.77
  L 174.42 73.32
  A 1.07 1.07 0.0 0 1 173.98 71.30
  L 180.84 67.74
  A 0.22 0.22 0.0 0 0 180.75 67.32
  L 173.37 67.07
  A 0.88 0.88 0.0 0 1 172.90 65.47
  Q 175.63 63.58 179.19 62.45
  Q 179.39 62.39 179.46 62.23
  Q 179.63 61.85 179.22 61.83
  L 174.00 61.59
  A 0.68 0.67 34.2 0 1 173.75 60.30
  Q 178.75 58.03 184.22 58.55
  Q 184.71 58.60 184.94 58.17
  Q 185.33 57.42 185.32 56.57
  Z"
/>
<path d="
  M 139.91 89.79
  Q 138.24 93.16 137.65 98.68
  Q 137.04 104.39 133.46 111.54
  Q 132.25 113.95 132.02 116.35
  Q 129.63 141.01 129.02 165.74
  Q 129.01 166.16 129.18 166.59
  Q 129.36 167.03 129.47 167.42
  Q 129.34 167.46 129.23 167.51
  Q 129.11 167.56 129.11 167.69
  Q 129.11 189.45 133.86 210.20
  Q 134.85 215.81 136.56 219.94
  Q 137.51 222.22 141.62 221.87
  Q 144.13 231.73 143.35 241.82
  C 142.65 250.84 138.10 255.45 133.67 262.55
  Q 129.14 248.97 125.23 235.75
  Q 109.30 181.81 121.97 127.50
  C 124.16 118.11 127.98 108.03 129.46 98.07
  C 130.66 90.06 130.61 79.11 136.43 72.88
  L 143.94 65.91
  Q 144.45 65.44 144.74 66.07
  C 145.58 67.90 142.22 70.86 141.51 72.80
  Q 141.30 73.38 141.81 73.04
  L 146.41 69.98
  A 0.79 0.79 0.0 0 1 147.49 71.11
  L 139.96 81.44
  A 0.17 0.17 0.0 0 0 140.20 81.67
  L 145.05 77.94
  A 0.99 0.99 0.0 0 1 146.44 79.33
  L 140.11 87.61
  A 0.74 0.72 -30.3 0 0 139.97 88.12
  Q 140.10 89.43 139.91 89.79
  Z"
/>
<path d="
  M 185.54 100.04
  Q 187.15 100.19 187.61 101.98
  Q 202.39 159.16 183.69 215.69
  C 182.05 220.67 181.99 225.66 181.07 230.88
  L 171.60 225.41
  Q 170.03 224.62 168.48 223.80
  Q 168.22 223.66 168.02 223.75
  Q 167.68 223.91 168.01 224.09
  L 171.50 225.95
  C 173.65 227.32 181.41 233.20 178.49 236.28
  Q 172.01 243.13 163.63 237.30
  C 157.74 233.21 154.33 225.65 147.95 222.53
  L 148.23 222.06
  Q 148.47 221.67 148.37 221.22
  L 145.85 209.64
  A 2.35 2.33 7.0 0 0 144.58 208.03
  Q 143.16 207.34 142.28 205.83
  C 144.48 205.52 149.18 203.69 148.75 200.61
  Q 148.68 200.07 148.14 200.00
  L 142.46 199.31
  C 143.03 198.30 143.26 197.76 142.62 196.64
  Q 141.25 194.28 142.93 193.59
  Q 135.37 183.93 139.65 174.07
  Q 139.87 173.55 140.39 173.78
  Q 145.87 176.16 151.85 175.72
  Q 152.53 175.67 152.50 174.99
  L 152.43 173.10
  Q 152.41 172.64 152.85 172.75
  Q 157.78 173.97 162.86 173.37
  A 0.61 0.60 62.7 0 0 163.19 172.32
  L 162.10 171.34
  Q 161.63 170.91 162.26 170.84
  L 165.53 170.45
  L 169.15 177.80
  Q 173.01 188.37 171.19 198.94
  Q 169.23 202.68 167.20 206.28
  C 166.23 208.01 164.55 208.72 163.11 209.86
  A 2.54 2.53 63.4 0 0 162.24 212.50
  Q 163.27 216.41 165.52 219.80
  A 0.51 0.50 -49.4 0 0 166.40 219.73
  Q 170.94 209.89 173.33 199.01
  L 176.44 186.52
  Q 176.59 185.92 175.98 185.91
  L 173.45 185.84
  A 0.81 0.81 0.0 0 1 173.26 184.25
  C 176.07 183.49 177.32 182.35 177.94 179.37
  Q 178.55 176.41 179.03 173.01
  Q 180.47 166.73 183.03 152.76
  Q 184.57 144.29 184.27 137.00
  Q 183.52 119.08 182.64 101.28
  Q 186.30 100.93 185.54 100.04
  Z
  M 165.8056 179.8581
  A 1.71 0.58 9.7 0 0 164.2177 178.9983
  A 1.71 0.58 9.7 0 0 162.4344 179.2819
  A 1.71 0.58 9.7 0 0 164.0223 180.1417
  A 1.71 0.58 9.7 0 0 165.8056 179.8581
  Z
  M 148.64 184.59
  L 152.47 181.16
  A 0.14 0.14 0.0 0 0 152.48 180.96
  L 152.43 180.90
  A 2.53 1.24 -41.9 0 0 149.72 181.67
  L 149.45 181.91
  A 2.53 1.24 -41.9 0 0 148.39 184.52
  L 148.45 184.58
  A 0.14 0.14 0.0 0 0 148.64 184.59
  Z
  M 164.2750 185.8533
  A 1.28 1.06 117.7 0 0 165.8085 185.2127
  A 1.28 1.06 117.7 0 0 165.4650 183.5867
  A 1.28 1.06 117.7 0 0 163.9315 184.2273
  A 1.28 1.06 117.7 0 0 164.2750 185.8533
  Z
  M 165.04 189.06
  Q 160.92 188.26 159.48 184.45
  Q 159.11 183.48 158.92 184.50
  C 158.38 187.28 161.88 189.31 164.20 190.32
  A 0.63 0.63 0.0 0 1 164.55 191.08
  L 163.98 193.00
  A 1.04 0.81 72.1 0 0 165.52 194.05
  Q 166.43 191.94 165.87 189.83
  A 1.08 1.06 -1.6 0 0 165.04 189.06
  Z
  M 154.70 187.54
  A 1.26 1.26 0.0 0 0 153.44 186.28
  A 1.26 1.26 0.0 0 0 152.18 187.54
  A 1.26 1.26 0.0 0 0 153.44 188.80
  A 1.26 1.26 0.0 0 0 154.70 187.54
  Z
  M 163.82 197.76
  Q 160.57 198.87 157.83 196.93
  A 0.40 0.39 -5.8 0 0 157.33 197.54
  Q 160.33 200.33 164.14 198.56
  A 0.43 0.43 0.0 0 0 163.82 197.76
  Z
  M 161.62 212.11
  Q 160.94 211.21 160.08 210.49
  A 1.17 1.17 0.0 0 0 159.23 210.22
  Q 154.74 210.56 150.57 208.99
  Q 148.79 208.33 149.56 210.06
  Q 151.55 214.54 156.78 216.09
  C 159.78 216.99 162.55 216.42 161.95 212.49
  Q 161.93 212.33 161.79 212.26
  Q 161.68 212.20 161.62 212.11
  Z"
/>
<path d="
  M 193.29 298.63
  L 193.88 308.34
  C 182.50 319.15 152.21 312.06 141.79 303.63
  Q 141.79 302.62 142.23 301.25
  Q 142.41 300.70 141.24 300.62
  Q 143.18 300.06 145.41 301.00
  L 147.79 304.47
  Q 148.06 304.85 148.49 305.03
  Q 156.12 308.16 163.03 305.55
  Q 178.96 299.53 193.29 298.63
  Z"
/>
<path d="
  M 116.23 414.00
  L 135.77 415.29
  L 137.25 426.72
  Q 136.21 427.03 135.76 426.10
  Q 135.55 425.68 135.09 425.63
  L 127.36 424.72
  L 117.82 422.85
  L 113.32 421.97
  Q 115.62 418.61 116.23 414.00
  Z"
/>
</g>
<g fill="#35191a">
<path d="
  M 319.64 171.28
  Q 318.47 171.41 318.49 170.69
  C 318.61 166.71 319.85 160.71 314.80 159.30
  Q 314.02 159.09 314.34 159.83
  L 315.55 162.62
  A 1.46 1.46 0.0 0 1 313.80 164.61
  Q 306.60 162.50 300.84 157.69
  A 0.53 0.52 -84.0 0 0 300.04 158.34
  L 300.28 158.80
  A 0.71 0.70 -6.0 0 1 299.46 159.81
  Q 294.15 158.26 290.06 154.63
  A 0.48 0.48 0.0 0 0 289.26 154.98
  L 289.23 156.78
  A 0.53 0.52 83.5 0 1 288.84 157.28
  Q 287.72 157.58 286.53 156.84
  Q 283.11 154.69 283.51 159.27
  Q 284.00 164.90 281.90 170.14
  A 0.61 0.60 -59.4 0 1 280.96 170.39
  Q 279.57 169.24 278.66 167.29
  Q 278.72 162.21 277.07 157.12
  C 275.52 152.37 277.02 142.01 284.34 143.47
  Q 284.91 143.58 285.26 143.12
  Q 290.64 136.22 299.45 135.69
  Q 300.32 135.63 299.93 136.41
  L 299.25 137.73
  Q 298.85 138.52 299.72 138.39
  C 303.13 137.86 317.85 135.71 319.86 139.73
  A 0.74 0.73 62.1 0 1 319.57 140.69
  L 317.22 142.05
  Q 316.98 142.19 317.18 142.40
  Q 317.28 142.50 317.49 142.50
  Q 323.64 142.60 328.34 146.84
  A 0.70 0.70 0.0 0 1 327.97 148.05
  L 324.47 148.59
  Q 323.66 148.72 324.32 149.21
  C 327.53 151.61 330.62 154.30 330.69 158.65
  A 0.55 0.54 -4.8 0 1 330.22 159.20
  Q 327.48 159.62 325.05 158.49
  A 0.42 0.42 0.0 0 0 324.47 158.99
  L 325.33 161.72
  A 0.60 0.60 0.0 0 1 324.76 162.50
  L 322.22 162.50
  Q 321.69 162.50 321.57 163.02
  L 319.64 171.28
  Z"
/>
<ellipse cx="0.00" cy="0.00" transform="translate(293.01,171.64) rotate(64.0)" rx="1.64" ry="1.45"/>
<path d="
  M 141.79 303.63
  C 152.21 312.06 182.50 319.15 193.88 308.34
  C 198.13 342.53 203.05 376.52 205.94 410.81
  C 206.36 415.83 206.43 422.49 201.84 426.00
  C 197.37 429.42 189.94 427.20 184.45 429.66
  C 169.08 436.52 152.42 432.93 137.53 427.69
  Q 137.14 427.35 137.25 426.72
  L 135.77 415.29
  Q 135.48 413.13 135.99 411.38
  Q 136.14 410.87 136.67 410.82
  L 163.24 408.25
  A 0.34 0.34 0.0 0 0 163.48 407.71
  Q 146.91 385.35 135.75 359.79
  C 126.90 339.50 132.77 322.21 141.79 303.63
  Z"
/>
<path d="
  M 359.58 522.13
  C 363.68 523.98 364.99 527.50 366.97 530.95
  C 369.62 535.56 371.87 536.94 375.96 540.29
  Q 377.89 541.87 376.08 543.93
  Q 375.81 544.24 375.39 544.23
  Q 369.21 544.05 365.77 541.50
  C 359.75 537.02 358.24 531.60 349.24 529.53
  A 1.10 1.10 0.0 0 1 348.51 528.95
  Q 346.94 525.84 349.16 523.47
  Q 353.90 524.14 359.58 522.13
  Z"
/>
<path d="
  M 201.16 535.71
  Q 206.32 538.61 210.86 538.31
  C 213.98 546.05 210.19 548.54 208.18 554.93
  C 208.51 559.47 207.49 572.83 200.84 572.19
  C 195.41 571.67 196.12 559.04 196.29 555.42
  C 196.58 550.98 198.15 539.13 201.16 535.71
  Z"
/>
</g>
<g fill="#a74a32">
<path d="
  M 248.75 65.03
  Q 250.37 70.08 246.36 71.83
  Q 245.89 72.03 245.82 72.54
  C 245.57 74.52 245.70 78.61 242.79 78.44
  A 0.67 0.67 0.0 0 0 242.08 79.06
  L 241.95 80.69
  Q 241.92 81.10 241.65 81.41
  Q 239.91 83.39 239.52 86.21
  C 237.12 113.88 239.37 145.99 251.61 171.09
  Q 252.26 172.43 253.73 172.09
  C 250.26 185.67 245.49 198.83 242.00 212.36
  Q 240.77 217.11 237.17 219.87
  Q 235.19 207.74 237.98 199.23
  C 238.99 196.14 240.18 194.23 239.28 191.05
  Q 225.93 143.58 229.89 94.31
  A 1.37 1.35 -60.4 0 0 229.65 93.42
  C 223.68 84.82 227.12 74.63 231.52 66.17
  A 2.02 2.01 -74.7 0 1 233.42 65.08
  Q 238.64 65.36 244.25 63.72
  Q 246.94 62.94 248.75 65.03
  Z"
/>
<path d="
  M 386.53 161.64
  C 384.49 166.49 382.78 173.79 379.67 177.82
  C 377.46 180.68 376.10 183.69 373.75 186.66
  Q 371.25 189.83 370.09 193.25
  Q 365.11 195.96 362.58 201.52
  Q 361.68 200.75 360.50 202.00
  Q 358.79 203.80 358.17 204.14
  Q 348.29 212.09 337.53 218.69
  Q 337.09 218.96 337.04 219.47
  L 335.58 235.08
  Q 335.23 234.78 334.88 234.73
  Q 334.55 234.69 334.52 234.36
  Q 333.98 228.27 332.35 222.41
  C 330.02 214.04 328.93 208.06 327.64 200.69
  Q 347.16 195.56 362.18 181.57
  C 362.71 181.07 362.74 180.63 363.00 179.99
  Q 363.17 180.00 363.31 180.00
  Q 363.68 180.00 363.93 179.74
  Q 369.62 173.73 375.20 165.47
  Q 376.05 164.21 375.96 163.17
  L 376.61 162.80
  Q 377.04 162.55 377.28 162.11
  Q 382.58 152.21 385.39 141.34
  C 386.19 138.23 384.63 136.75 384.37 133.90
  Q 383.47 124.21 382.71 114.50
  Q 382.62 113.46 382.85 113.03
  A 0.61 0.60 -38.3 0 1 383.97 113.16
  C 384.96 116.89 385.29 124.61 388.42 126.56
  Q 388.87 126.84 389.20 126.43
  L 406.08 105.19
  Q 406.72 104.40 406.91 105.40
  C 407.52 108.54 403.16 115.18 401.37 117.97
  A 0.63 0.63 0.0 0 0 402.32 118.77
  Q 405.97 115.45 409.90 111.90
  Q 411.33 110.61 412.65 110.83
  Q 413.64 111.00 412.91 111.70
  Q 407.03 117.36 402.95 124.46
  Q 402.54 125.17 403.26 124.78
  C 407.76 122.32 411.46 119.23 416.28 117.08
  A 0.42 0.41 -80.7 0 1 416.75 117.74
  L 406.82 128.79
  A 0.40 0.39 -82.4 0 0 407.29 129.41
  Q 410.33 127.85 413.74 127.70
  A 0.43 0.43 0.0 0 1 414.01 128.48
  C 407.51 133.12 398.80 140.30 391.07 141.49
  Q 390.54 141.57 390.48 142.11
  Q 389.45 152.04 386.53 161.64
  Z"
/>
<path d="
  M 165.53 170.45
  L 162.26 170.84
  Q 161.63 170.91 162.10 171.34
  L 163.19 172.32
  A 0.61 0.60 62.7 0 1 162.86 173.37
  Q 157.78 173.97 152.85 172.75
  Q 152.41 172.64 152.43 173.10
  L 152.50 174.99
  Q 152.53 175.67 151.85 175.72
  Q 145.87 176.16 140.39 173.78
  Q 139.87 173.55 139.65 174.07
  Q 135.37 183.93 142.93 193.59
  L 137.87 190.90
  A 0.91 0.90 -44.0 0 0 137.04 190.89
  Q 135.36 191.73 135.87 193.61
  Q 137.00 197.77 142.46 199.31
  L 148.14 200.00
  Q 148.68 200.07 148.75 200.61
  C 149.18 203.69 144.48 205.52 142.28 205.83
  L 140.71 205.77
  Q 140.15 205.75 140.23 206.31
  C 140.81 210.41 137.27 211.33 133.86 210.20
  Q 129.11 189.45 129.11 167.69
  Q 129.11 167.56 129.23 167.51
  Q 129.34 167.46 129.47 167.42
  C 130.88 168.00 131.72 167.98 132.74 166.72
  C 138.81 159.24 149.95 164.73 154.47 152.57
  A 1.32 1.32 0.0 0 1 156.99 152.71
  Q 157.52 154.87 156.83 157.04
  A 0.28 0.28 0.0 0 0 157.31 157.31
  C 158.26 156.21 158.98 154.51 160.21 153.94
  C 161.89 153.17 163.27 154.28 163.38 156.06
  Q 163.57 159.01 162.27 161.58
  A 0.47 0.47 0.0 0 0 162.95 162.18
  Q 165.95 160.20 169.52 159.69
  A 1.44 1.44 0.0 0 1 171.04 161.69
  Q 170.14 163.74 168.23 164.91
  A 0.38 0.38 0.0 0 0 168.51 165.60
  L 171.46 164.95
  Q 172.12 164.80 172.22 165.47
  C 172.66 168.54 167.98 169.95 165.53 170.45
  Z"
/>
<path d="
  M 319.64 171.28
  C 322.61 177.82 317.54 179.78 314.67 184.74
  Q 311.17 190.81 303.68 192.68
  L 294.21 192.53
  Q 293.51 192.52 293.84 193.13
  C 296.21 197.47 299.05 196.82 302.70 199.18
  L 301.82 203.43
  Q 301.70 203.98 302.26 203.90
  L 308.21 203.05
  Q 309.11 204.91 307.19 205.87
  Q 299.35 209.80 291.59 208.75
  Q 282.50 207.52 277.23 198.37
  Q 282.78 201.22 287.95 202.39
  A 0.87 0.86 -77.8 0 0 288.98 201.72
  L 291.17 191.23
  Q 291.29 190.65 290.76 190.41
  C 286.42 188.46 283.87 184.09 282.10 179.85
  Q 281.91 179.39 281.48 179.14
  C 277.66 176.89 273.93 170.87 278.66 167.29
  Q 279.57 169.24 280.96 170.39
  A 0.61 0.60 -59.4 0 0 281.90 170.14
  Q 284.00 164.90 283.51 159.27
  Q 283.11 154.69 286.53 156.84
  Q 287.72 157.58 288.84 157.28
  A 0.53 0.52 83.5 0 0 289.23 156.78
  L 289.26 154.98
  A 0.48 0.48 0.0 0 1 290.06 154.63
  Q 294.15 158.26 299.46 159.81
  A 0.71 0.70 -6.0 0 0 300.28 158.80
  L 300.04 158.34
  A 0.53 0.52 -84.0 0 1 300.84 157.69
  Q 306.60 162.50 313.80 164.61
  A 1.46 1.46 0.0 0 0 315.55 162.62
  L 314.34 159.83
  Q 314.02 159.09 314.80 159.30
  C 319.85 160.71 318.61 166.71 318.49 170.69
  Q 318.47 171.41 319.64 171.28
  Z
  M 294.1599 164.1833
  A 2.80 0.78 -24.4 0 0 291.2878 164.6297
  A 2.80 0.78 -24.4 0 0 289.0601 166.4967
  A 2.80 0.78 -24.4 0 0 291.9322 166.0503
  A 2.80 0.78 -24.4 0 0 294.1599 164.1833
  Z
  M 312.2149 167.3836
  A 1.20 0.80 26.4 0 0 311.4957 166.1334
  A 1.20 0.80 26.4 0 0 310.0651 166.3164
  A 1.20 0.80 26.4 0 0 310.7843 167.5666
  A 1.20 0.80 26.4 0 0 312.2149 167.3836
  Z
  M 293.7289 173.1140
  A 1.64 1.45 64.0 0 0 294.3133 171.0044
  A 1.64 1.45 64.0 0 0 292.2911 170.1660
  A 1.64 1.45 64.0 0 0 291.7067 172.2756
  A 1.64 1.45 64.0 0 0 293.7289 173.1140
  Z
  M 310.69 172.57
  A 1.31 1.31 0.0 0 0 309.38 171.26
  A 1.31 1.31 0.0 0 0 308.07 172.57
  A 1.31 1.31 0.0 0 0 309.38 173.88
  A 1.31 1.31 0.0 0 0 310.69 172.57
  Z
  M 300.19 188.02
  C 303.28 186.90 305.24 184.62 306.14 181.66
  Q 306.33 181.04 305.70 181.19
  Q 301.36 182.22 297.34 180.46
  A 0.42 0.41 -85.9 0 0 296.78 180.95
  L 298.47 187.12
  A 1.32 1.32 0.0 0 0 300.19 188.02
  Z"
/>
<path d="
  M 179.03 173.01
  Q 178.55 176.41 177.94 179.37
  C 177.32 182.35 176.07 183.49 173.26 184.25
  A 0.81 0.81 0.0 0 0 173.45 185.84
  L 175.98 185.91
  Q 176.59 185.92 176.44 186.52
  L 173.33 199.01
  L 171.19 198.94
  Q 173.01 188.37 169.15 177.80
  L 179.03 173.01
  Z"
/>
<ellipse cx="0.00" cy="0.00" transform="translate(164.12,179.57) rotate(9.7)" rx="1.71" ry="0.58"/>
<path d="
  M 148.64 184.59
  A 0.14 0.14 0.0 0 1 148.45 184.58
  L 148.39 184.52
  A 2.53 1.24 -41.9 0 1 149.45 181.91
  L 149.72 181.67
  A 2.53 1.24 -41.9 0 1 152.43 180.90
  L 152.48 180.96
  A 0.14 0.14 0.0 0 1 152.47 181.16
  L 148.64 184.59
  Z"
/>
<path d="
  M 415.70 210.30
  L 416.66 205.72
  A 0.43 0.42 28.5 0 1 417.38 205.51
  L 417.68 205.80
  A 0.37 0.36 -53.4 0 1 417.74 206.23
  Q 416.58 208.33 417.07 210.83
  Q 417.20 211.48 416.71 211.93
  Q 415.86 212.71 414.67 212.47
  Q 414.03 212.35 414.49 211.88
  L 415.27 211.11
  Q 415.61 210.77 415.70 210.30
  Z"
/>
<path d="
  M 238.49 306.26
  C 237.65 308.64 239.69 310.66 242.00 310.01
  Q 260.81 304.65 280.22 307.52
  Q 289.00 308.82 297.75 310.49
  Q 299.77 310.88 299.28 312.99
  C 287.88 315.07 276.99 318.62 264.68 316.82
  Q 251.36 314.87 238.04 313.19
  L 238.24 312.20
  Q 238.34 311.70 237.92 311.42
  L 230.66 306.56
  L 238.49 306.26
  Z"
/>
</g>
<path fill="#49434d" d="
  M 435.85 339.53
  Q 441.74 351.33 441.69 366.27
  C 441.64 382.67 434.11 391.87 423.12 402.30
  Q 420.09 406.58 416.32 411.05
  C 415.23 412.35 415.14 413.66 415.68 415.14
  Q 415.88 415.69 416.45 415.58
  C 418.80 415.15 420.36 416.42 422.02 416.23
  Q 423.20 416.09 423.37 415.32
  Q 441.45 416.92 458.61 415.19
  C 459.70 417.48 461.56 422.55 458.73 424.71
  Q 428.62 432.03 397.98 449.01
  Q 393.70 451.38 388.50 448.77
  C 382.27 445.64 374.89 441.37 374.10 433.76
  C 374.26 429.07 374.55 425.25 376.15 420.66
  C 382.13 403.47 387.53 386.92 396.31 370.81
  A 1.93 1.92 -57.0 0 0 395.79 368.36
  C 386.84 361.48 384.38 353.95 379.94 344.14
  Q 379.74 343.70 379.89 343.24
  L 380.52 341.36
  C 397.76 350.10 418.44 347.14 435.85 339.53
  Z
  M 448.68 420.02
  Q 448.81 419.98 448.94 419.94
  A 0.11 0.11 0.0 0 0 448.96 419.74
  C 446.79 418.50 440.46 420.95 437.93 421.58
  C 432.08 423.03 425.64 423.14 419.50 423.86
  C 412.18 424.71 404.97 427.49 397.69 429.40
  A 0.20 0.20 0.0 0 0 397.57 429.70
  Q 397.65 429.82 397.77 429.90
  Q 397.93 430.00 398.21 429.93
  C 404.33 428.48 410.54 426.46 416.45 425.60
  C 427.06 424.04 437.66 423.67 447.75 421.47
  Q 448.68 421.27 448.58 420.19
  Q 448.56 420.06 448.68 420.02
  Z"
/>
<path fill="#ff9b2c" d="
  M 141.62 221.87
  L 147.95 222.53
  C 154.33 225.65 157.74 233.21 163.63 237.30
  Q 172.01 243.13 178.49 236.28
  C 181.41 233.20 173.65 227.32 171.50 225.95
  Q 171.45 225.73 171.60 225.41
  L 181.07 230.88
  C 185.43 233.72 192.57 238.23 195.45 243.75
  C 197.95 248.55 196.78 254.41 197.97 259.78
  Q 200.98 273.31 211.21 282.81
  Q 211.61 283.18 211.39 283.67
  L 209.49 287.96
  C 208.84 286.53 208.16 285.92 206.51 286.04
  Q 200.03 286.48 193.59 285.94
  Q 193.28 285.91 193.04 286.11
  Q 192.80 286.31 192.71 286.23
  C 188.04 286.21 181.92 289.92 177.97 292.25
  C 167.22 298.58 157.91 302.89 145.41 301.00
  Q 143.18 300.06 141.24 300.62
  Q 140.95 300.84 140.15 300.76
  Q 139.83 300.45 139.70 299.54
  Q 139.63 299.04 139.23 298.73
  Q 132.27 293.21 123.54 290.18
  C 129.77 282.05 133.73 272.42 133.67 262.55
  C 138.10 255.45 142.65 250.84 143.35 241.82
  Q 144.13 231.73 141.62 221.87
  Z"
/>
<path fill="#807851" d="
  M 178.25 54.45
  Q 186.41 53.06 185.32 56.57
  Q 185.33 57.42 184.94 58.17
  Q 184.71 58.60 184.22 58.55
  Q 178.75 58.03 173.75 60.30
  A 0.68 0.67 34.2 0 0 174.00 61.59
  L 179.22 61.83
  Q 179.63 61.85 179.46 62.23
  Q 179.39 62.39 179.19 62.45
  Q 175.63 63.58 172.90 65.47
  A 0.88 0.88 0.0 0 0 173.37 67.07
  L 180.75 67.32
  A 0.22 0.22 0.0 0 1 180.84 67.74
  L 173.98 71.30
  A 1.07 1.07 0.0 0 0 174.42 73.32
  L 184.24 73.77
  Q 185.08 73.80 185.07 74.64
  L 184.90 90.24
  L 185.54 100.04
  Q 186.30 100.93 182.64 101.28
  L 163.89 101.24
  Q 161.96 99.28 158.62 99.17
  C 155.65 99.08 153.85 98.74 151.59 97.66
  A 2.29 2.28 -74.8 0 1 150.30 95.41
  L 153.55 55.98
  A 0.96 0.96 0.0 0 1 154.52 55.10
  L 172.87 55.25
  Q 173.36 55.25 173.66 54.86
  Q 174.90 53.22 178.25 54.45
  Z"
/>
<g fill="#ff805f">
<path d="
  M 430.36 233.47
  L 429.80 235.84
  Q 426.91 236.61 424.75 238.54
  Q 424.38 238.87 424.41 239.37
  Q 425.26 251.96 433.27 262.21
  L 429.96 266.43
  Q 429.66 266.81 429.60 267.29
  Q 428.23 277.84 424.72 293.75
  C 423.65 298.64 424.65 303.27 426.47 308.49
  Q 431.34 322.36 436.24 336.21
  Q 436.57 337.15 436.56 337.89
  Q 436.55 339.39 435.85 339.53
  C 418.44 347.14 397.76 350.10 380.52 341.36
  L 372.79 335.95
  Q 372.48 335.73 372.13 335.56
  L 371.18 335.08
  Q 374.86 322.45 381.64 310.41
  Q 385.45 309.00 389.05 306.65
  Q 390.98 305.39 393.21 304.88
  Q 402.87 302.64 410.37 296.07
  Q 410.98 291.97 409.83 287.43
  Q 409.71 286.95 409.23 286.85
  Q 406.50 286.30 403.74 285.72
  C 401.06 285.15 398.93 287.75 397.22 288.90
  Q 393.26 291.55 388.68 293.69
  A 1.86 1.71 -8.9 0 1 386.05 291.93
  Q 386.34 290.24 383.61 288.37
  Q 381.55 277.32 383.29 267.25
  C 383.54 266.13 382.47 265.18 381.42 264.70
  Q 376.65 262.56 375.48 257.33
  Q 375.37 256.84 374.87 256.79
  Q 373.92 256.69 373.70 256.24
  Q 375.20 253.42 373.34 251.09
  A 1.74 1.74 0.0 0 1 373.81 248.51
  L 379.20 245.31
  L 396.02 237.61
  Q 397.78 237.65 396.82 240.57
  L 395.83 240.01
  Q 395.42 239.77 395.09 240.12
  C 389.46 246.00 388.03 251.91 387.83 259.76
  C 387.78 261.42 388.56 262.67 389.61 263.83
  Q 389.94 264.21 390.44 264.30
  C 399.04 265.93 407.82 267.51 412.40 258.15
  Q 417.17 248.39 416.44 237.08
  L 430.36 233.47
  Z"
/>
<path d="
  M 403.55 263.54
  C 399.53 264.10 390.53 265.24 389.04 259.80
  A 1.27 1.26 14.4 0 1 391.14 258.56
  C 396.87 264.05 405.75 261.15 410.39 255.88
  A 0.44 0.44 0.0 0 1 411.15 256.24
  Q 410.15 262.61 403.55 263.54
  Z"
/>
</g>
<g fill="#72563e">
<path d="
  M 516.53 158.71
  C 521.10 151.00 524.21 144.77 522.68 135.50
  A 0.61 0.61 0.0 0 0 521.55 135.29
  L 518.46 140.41
  Q 516.57 143.55 516.44 139.89
  Q 516.22 133.46 514.32 126.78
  Q 510.79 111.40 500.27 97.81
  A 0.58 0.58 0.0 0 1 500.45 96.95
  Q 523.04 84.58 547.83 77.57
  Q 548.35 77.42 548.51 77.93
  C 555.87 100.69 562.13 126.04 559.99 150.41
  Q 559.93 151.07 559.29 151.23
  L 517.45 161.79
  Q 516.87 161.93 516.62 161.40
  Q 516.22 160.55 516.53 158.71
  Z"
/>
<ellipse cx="0.00" cy="0.00" transform="translate(164.87,184.72) rotate(117.7)" rx="1.28" ry="1.06"/>
<circle cx="153.44" cy="187.54" r="1.26"/>
<ellipse cx="0.00" cy="0.00" transform="translate(424.66,203.58) rotate(34.5)" rx="2.78" ry="0.78"/>
<path d="
  M 404.99 205.79
  C 405.99 203.04 409.87 204.48 410.54 206.94
  A 0.47 0.47 0.0 0 1 409.71 207.33
  Q 408.07 205.00 405.47 206.23
  A 0.35 0.35 0.0 0 1 404.99 205.79
  Z"
/>
<path d="
  M 419.19 208.99
  A 0.04 0.04 0.0 0 1 419.17 208.94
  L 419.18 208.91
  A 2.07 1.71 20.2 0 1 421.71 208.02
  L 422.99 208.49
  A 2.07 1.71 20.2 0 1 424.34 210.81
  L 424.33 210.84
  A 0.04 0.04 0.0 0 1 424.28 210.86
  L 419.19 208.99
  Z"
/>
</g>
<g fill="#e58f69">
<path d="
  M 514.32 126.78
  Q 516.22 133.46 516.44 139.89
  Q 516.57 143.55 518.46 140.41
  L 521.55 135.29
  A 0.61 0.61 0.0 0 1 522.68 135.50
  C 524.21 144.77 521.10 151.00 516.53 158.71
  Q 512.60 160.62 511.19 162.43
  C 486.63 193.99 462.01 225.60 435.18 255.34
  C 430.58 250.09 430.22 242.95 429.80 235.84
  L 430.36 233.47
  Q 442.36 222.02 454.67 210.00
  C 455.07 209.61 455.21 209.03 455.34 208.53
  Q 456.18 208.33 457.02 207.52
  Q 481.47 183.74 505.98 159.94
  A 4.93 4.88 -16.0 0 0 507.35 157.50
  L 514.32 126.78
  Z"
/>
<path d="
  M 411.68 226.87
  Q 410.47 226.97 409.21 225.67
  A 1.23 1.22 -21.9 0 0 408.33 225.30
  Q 405.85 225.30 403.93 223.79
  A 0.77 0.77 0.0 0 0 402.70 224.53
  Q 404.03 231.61 411.29 230.70
  A 0.59 0.58 -8.9 0 1 411.94 231.17
  L 412.24 232.79
  Q 411.72 237.22 413.71 236.65
  C 412.13 245.93 408.40 264.66 393.78 257.60
  A 2.28 2.28 0.0 0 1 392.59 254.91
  L 396.82 240.57
  Q 397.78 237.65 396.02 237.61
  Q 397.42 237.55 398.64 236.92
  A 0.55 0.55 0.0 0 0 398.93 236.51
  L 401.17 220.85
  A 0.50 0.47 -57.2 0 0 401.11 220.52
  Q 398.81 216.36 398.23 211.60
  A 1.03 1.03 0.0 0 0 397.70 210.83
  Q 393.86 208.74 396.28 204.55
  A 0.41 0.40 39.3 0 1 396.94 204.49
  L 399.85 207.81
  A 0.63 0.63 0.0 0 0 400.94 207.28
  Q 400.03 202.55 400.81 197.79
  A 1.87 1.87 0.0 0 1 402.27 196.27
  Q 410.92 194.47 418.63 190.12
  A 0.34 0.34 0.0 0 1 419.08 190.59
  C 417.00 193.92 408.27 196.81 405.10 197.93
  A 0.39 0.39 0.0 0 0 405.05 198.64
  L 406.32 199.31
  A 0.31 0.31 0.0 0 1 406.28 199.87
  L 404.47 200.54
  A 0.36 0.36 0.0 0 0 404.65 201.23
  Q 413.68 199.95 421.40 195.19
  Q 422.61 194.44 421.98 195.72
  L 420.14 199.44
  A 0.78 0.78 0.0 0 0 420.89 200.56
  Q 426.67 200.18 430.07 195.53
  A 0.40 0.40 0.0 0 1 430.79 195.74
  Q 431.32 202.76 428.97 209.48
  C 428.34 211.30 428.39 212.21 428.93 213.95
  Q 429.10 214.48 428.90 215.00
  Q 427.96 217.54 425.25 217.92
  A 1.12 1.08 -74.2 0 0 424.53 218.34
  Q 419.53 224.61 411.68 226.87
  Z
  M 426.9511 205.1546
  A 2.78 0.78 34.5 0 0 425.1018 202.9372
  A 2.78 0.78 34.5 0 0 422.3689 202.0054
  A 2.78 0.78 34.5 0 0 424.2182 204.2228
  A 2.78 0.78 34.5 0 0 426.9511 205.1546
  Z
  M 404.99 205.79
  A 0.35 0.35 0.0 0 0 405.47 206.23
  Q 408.07 205.00 409.71 207.33
  A 0.47 0.47 0.0 0 0 410.54 206.94
  C 409.87 204.48 405.99 203.04 404.99 205.79
  Z
  M 415.27 211.11
  L 414.49 211.88
  Q 414.03 212.35 414.67 212.47
  Q 415.86 212.71 416.71 211.93
  Q 417.20 211.48 417.07 210.83
  Q 416.58 208.33 417.74 206.23
  A 0.37 0.36 -53.4 0 0 417.68 205.80
  L 417.38 205.51
  A 0.43 0.42 28.5 0 0 416.66 205.72
  L 415.70 210.30
  Q 415.61 210.77 415.27 211.11
  Z
  M 419.19 208.99
  L 424.28 210.86
  A 0.04 0.04 0.0 0 0 424.33 210.84
  L 424.34 210.81
  A 2.07 1.71 20.2 0 0 422.99 208.49
  L 421.71 208.02
  A 2.07 1.71 20.2 0 0 419.18 208.91
  L 419.17 208.94
  A 0.04 0.04 0.0 0 0 419.19 208.99
  Z
  M 416.99 216.24
  A 0.51 0.51 0.0 0 0 416.50 215.47
  Q 413.08 215.86 410.18 214.06
  A 0.49 0.49 0.0 0 0 409.44 214.54
  L 410.19 220.18
  A 0.75 0.75 0.0 0 0 411.15 220.80
  Q 414.94 219.67 416.99 216.24
  Z"
/>
<path d="
  M 373.70 256.24
  Q 373.92 256.69 374.87 256.79
  Q 375.37 256.84 375.48 257.33
  Q 376.65 262.56 381.42 264.70
  C 382.47 265.18 383.54 266.13 383.29 267.25
  L 365.08 296.07
  A 0.50 0.50 0.0 0 0 365.55 296.83
  L 383.00 294.98
  Q 383.71 294.91 383.70 294.19
  L 383.61 288.37
  Q 386.34 290.24 386.05 291.93
  A 1.86 1.71 -8.9 0 0 388.68 293.69
  Q 393.26 291.55 397.22 288.90
  C 398.93 287.75 401.06 285.15 403.74 285.72
  Q 406.50 286.30 409.23 286.85
  Q 409.71 286.95 409.83 287.43
  Q 410.98 291.97 410.37 296.07
  C 405.53 297.23 401.32 299.32 396.50 299.82
  Q 389.41 300.55 383.32 302.59
  Q 377.02 304.93 371.29 307.34
  Q 358.02 312.91 343.83 310.50
  A 2.51 2.51 0.0 0 1 341.75 308.23
  C 341.58 306.02 342.33 304.19 343.64 302.19
  Q 358.70 279.25 373.70 256.24
  Z"
/>
</g>
<g fill="#4a2323">
<path d="
  M 386.53 161.64
  C 397.35 163.27 403.42 169.26 412.71 174.32
  A 1.28 1.24 52.4 0 0 413.61 174.45
  C 417.76 173.55 424.99 171.62 428.33 174.65
  A 0.67 0.66 -72.2 0 1 428.56 175.11
  L 428.83 178.57
  Q 428.88 179.18 429.47 179.01
  Q 438.32 176.48 442.11 183.62
  C 444.76 188.61 441.86 193.27 446.74 197.89
  C 450.30 201.26 453.12 203.41 455.34 208.53
  C 455.21 209.03 455.07 209.61 454.67 210.00
  Q 442.36 222.02 430.36 233.47
  L 416.44 237.08
  L 413.71 236.65
  Q 411.72 237.22 412.24 232.79
  L 411.68 226.87
  Q 419.53 224.61 424.53 218.34
  A 1.12 1.08 -74.2 0 1 425.25 217.92
  Q 427.96 217.54 428.90 215.00
  Q 429.10 214.48 428.93 213.95
  C 428.39 212.21 428.34 211.30 428.97 209.48
  Q 431.32 202.76 430.79 195.74
  A 0.40 0.40 0.0 0 0 430.07 195.53
  Q 426.67 200.18 420.89 200.56
  A 0.78 0.78 0.0 0 1 420.14 199.44
  L 421.98 195.72
  Q 422.61 194.44 421.40 195.19
  Q 413.68 199.95 404.65 201.23
  A 0.36 0.36 0.0 0 1 404.47 200.54
  L 406.28 199.87
  A 0.31 0.31 0.0 0 0 406.32 199.31
  L 405.05 198.64
  A 0.39 0.39 0.0 0 1 405.10 197.93
  C 408.27 196.81 417.00 193.92 419.08 190.59
  A 0.34 0.34 0.0 0 0 418.63 190.12
  Q 410.92 194.47 402.27 196.27
  A 1.87 1.87 0.0 0 0 400.81 197.79
  Q 400.03 202.55 400.94 207.28
  A 0.63 0.63 0.0 0 1 399.85 207.81
  L 396.94 204.49
  A 0.41 0.40 39.3 0 0 396.28 204.55
  Q 393.86 208.74 397.70 210.83
  A 1.03 1.03 0.0 0 1 398.23 211.60
  Q 398.81 216.36 401.11 220.52
  A 0.50 0.47 -57.2 0 1 401.17 220.85
  L 398.93 236.51
  A 0.55 0.55 0.0 0 1 398.64 236.92
  Q 397.42 237.55 396.02 237.61
  L 379.20 245.31
  Q 378.31 242.97 378.32 240.33
  C 378.34 236.28 376.34 237.63 374.63 235.53
  C 372.50 232.92 375.48 228.76 377.30 225.53
  Q 377.66 224.90 377.02 225.24
  C 371.72 228.12 364.94 230.93 364.96 238.16
  A 0.13 0.13 0.0 0 1 364.71 238.21
  C 360.37 227.62 375.04 224.81 375.95 215.02
  Q 376.47 209.35 377.09 203.70
  Q 377.17 203.01 376.50 203.21
  Q 365.68 206.59 364.51 217.96
  A 0.20 0.20 0.0 0 1 364.11 217.99
  Q 360.76 204.25 370.09 193.25
  Q 371.25 189.83 373.75 186.66
  C 376.10 183.69 377.46 180.68 379.67 177.82
  C 382.78 173.79 384.49 166.49 386.53 161.64
  Z"
/>
<path d="
  M 375.96 163.17
  Q 376.05 164.21 375.20 165.47
  Q 369.62 173.73 363.93 179.74
  Q 363.68 180.00 363.31 180.00
  Q 363.17 180.00 363.00 179.99
  Q 364.95 168.13 375.96 163.17
  Z"
/>
<circle cx="309.38" cy="172.57" r="1.31"/>
</g>
<g fill="#403d44">
<path d="
  M 371.18 335.08
  L 372.13 335.56
  Q 372.48 335.73 372.79 335.95
  L 380.52 341.36
  L 379.89 343.24
  Q 379.74 343.70 379.94 344.14
  C 384.38 353.95 386.84 361.48 395.79 368.36
  A 1.93 1.92 -57.0 0 1 396.31 370.81
  C 387.53 386.92 382.13 403.47 376.15 420.66
  C 374.55 425.25 374.26 429.07 374.10 433.76
  C 372.27 433.46 370.29 433.78 368.68 433.02
  C 357.86 427.88 359.69 416.88 360.49 407.13
  Q 363.45 370.93 371.18 335.08
  Z"
/>
<path d="
  M 440.07 395.90
  Q 442.88 399.52 443.94 403.51
  Q 433.12 408.68 423.37 415.32
  Q 423.20 416.09 422.02 416.23
  C 420.36 416.42 418.80 415.15 416.45 415.58
  Q 415.88 415.69 415.68 415.14
  C 415.14 413.66 415.23 412.35 416.32 411.05
  Q 420.09 406.58 423.12 402.30
  L 440.07 395.90
  Z"
/>
</g>
<g fill="#eeb288">
<path d="
  M 161.79 212.26
  Q 161.93 212.33 161.95 212.49
  C 162.55 216.42 159.78 216.99 156.78 216.09
  Q 151.55 214.54 149.56 210.06
  Q 148.79 208.33 150.57 208.99
  Q 154.74 210.56 159.23 210.22
  A 1.17 1.17 0.0 0 1 160.08 210.49
  Q 160.94 211.21 161.62 212.11
  Q 161.68 212.20 161.79 212.26
  Z"
/>
<path d="
  M 321.28 238.05
  Q 319.87 238.44 318.22 238.19
  Q 319.84 237.30 321.28 238.05
  Z"
/>
<path d="
  M 192.71 286.23
  Q 192.49 291.04 193.90 294.72
  L 193.29 298.63
  Q 178.96 299.53 163.03 305.55
  Q 156.12 308.16 148.49 305.03
  Q 148.06 304.85 147.79 304.47
  L 145.41 301.00
  C 157.91 302.89 167.22 298.58 177.97 292.25
  C 181.92 289.92 188.04 286.21 192.71 286.23
  Z"
/>
<path d="
  M 137.25 426.72
  Q 137.14 427.35 137.53 427.69
  L 126.56 429.61
  Q 126.21 427.63 127.36 424.72
  L 135.09 425.63
  Q 135.55 425.68 135.76 426.10
  Q 136.21 427.03 137.25 426.72
  Z"
/>
</g>
<path fill="#d84b2f" d="
  M 307.48 310.82
  Q 308.13 310.61 308.44 310.81
  Q 317.06 316.56 327.33 315.70
  C 328.90 323.07 313.12 320.89 309.48 320.29
  L 307.49 311.25
  L 307.48 310.82
  Z"
/>
<g fill="#9d3622">
<path d="
  M 303.68 192.68
  Q 303.91 195.82 302.70 199.18
  C 299.05 196.82 296.21 197.47 293.84 193.13
  Q 293.51 192.52 294.21 192.53
  L 303.68 192.68
  Z"
/>
<path d="
  M 307.48 310.82
  L 307.49 311.25
  L 306.28 311.20
  Q 305.81 311.18 305.35 311.31
  L 299.28 312.99
  Q 299.77 310.88 297.75 310.49
  Q 289.00 308.82 280.22 307.52
  Q 260.81 304.65 242.00 310.01
  C 239.69 310.66 237.65 308.64 238.49 306.26
  Q 240.54 305.50 245.94 304.71
  Q 263.86 302.07 269.76 301.61
  C 284.34 300.47 294.66 305.06 307.48 310.82
  Z"
/>
</g>
<g fill="#fb9a50">
<path d="
  M 317.98 238.41
  L 317.93 239.95
  C 299.72 237.81 280.90 234.12 263.25 232.77
  Q 255.92 232.20 247.65 235.09
  L 248.47 232.90
  C 259.55 228.43 272.22 230.44 283.65 232.56
  C 296.67 234.99 306.51 236.48 317.98 238.41
  Z"
/>
<path d="
  M 317.74 249.13
  A 0.46 0.45 -76.1 0 1 318.09 249.72
  Q 317.75 250.83 316.35 250.60
  Q 315.24 250.42 315.15 250.41
  C 301.45 249.34 286.08 246.78 270.76 245.91
  C 262.56 245.45 253.90 246.98 245.47 247.45
  Q 244.77 247.49 245.07 246.85
  L 245.32 246.32
  Q 245.53 245.89 246.00 245.81
  C 257.46 243.60 267.87 242.81 279.98 244.01
  Q 298.89 245.89 317.74 249.13
  Z"
/>
<path d="
  M 308.94 256.03
  C 297.82 254.46 286.61 252.73 275.30 252.82
  C 263.45 252.92 254.60 253.09 243.61 255.27
  Q 243.10 255.38 243.05 254.85
  Q 242.96 253.61 244.16 253.29
  C 258.86 249.28 273.68 249.09 288.91 251.27
  C 298.68 252.67 309.26 253.33 318.19 257.31
  Q 318.81 257.59 318.74 258.25
  Q 318.69 258.73 318.24 258.54
  Q 313.77 256.72 308.94 256.03
  Z"
/>
</g>
<g fill="#642a1d">
<ellipse cx="0.00" cy="0.00" transform="translate(291.61,165.34) rotate(-24.4)" rx="2.80" ry="0.78"/>
<ellipse cx="0.00" cy="0.00" transform="translate(311.14,166.85) rotate(26.4)" rx="1.20" ry="0.80"/>
<path d="
  M 306.14 181.66
  C 305.24 184.62 303.28 186.90 300.19 188.02
  A 1.32 1.32 0.0 0 1 298.47 187.12
  L 296.78 180.95
  A 0.42 0.41 -85.9 0 1 297.34 180.46
  Q 301.36 182.22 305.70 181.19
  Q 306.33 181.04 306.14 181.66
  Z"
/>
<path d="
  M 362.58 201.52
  L 361.12 205.45
  Q 360.92 205.99 360.35 205.96
  Q 359.30 205.91 358.17 204.14
  Q 358.79 203.80 360.50 202.00
  Q 361.68 200.75 362.58 201.52
  Z"
/>
<path d="
  M 416.99 216.24
  Q 414.94 219.67 411.15 220.80
  A 0.75 0.75 0.0 0 1 410.19 220.18
  L 409.44 214.54
  A 0.49 0.49 0.0 0 1 410.18 214.06
  Q 413.08 215.86 416.50 215.47
  A 0.51 0.51 0.0 0 1 416.99 216.24
  Z"
/>
</g>
<g fill="#5d535a">
<path d="
  M 446.43 394.39
  Q 449.33 398.83 448.30 403.46
  Q 446.47 402.98 443.94 403.51
  Q 442.88 399.52 440.07 395.90
  Q 443.77 393.69 446.43 394.39
  Z"
/>
<path d="
  M 466.65 411.39
  Q 465.48 418.15 466.91 424.38
  Q 462.43 426.55 458.73 424.71
  C 461.56 422.55 459.70 417.48 458.61 415.19
  L 466.65 411.39
  Z"
/>
<path d="
  M 448.58 420.19
  Q 448.68 421.27 447.75 421.47
  C 437.66 423.67 427.06 424.04 416.45 425.60
  C 410.54 426.46 404.33 428.48 398.21 429.93
  Q 397.93 430.00 397.77 429.90
  Q 397.65 429.82 397.57 429.70
  A 0.20 0.20 0.0 0 1 397.69 429.40
  C 404.97 427.49 412.18 424.71 419.50 423.86
  C 425.64 423.14 432.08 423.03 437.93 421.58
  C 440.46 420.95 446.79 418.50 448.96 419.74
  A 0.11 0.11 0.0 0 1 448.94 419.94
  Q 448.81 419.98 448.68 420.02
  Q 448.56 420.06 448.58 420.19
  Z"
/>
</g>
<g fill="#e9902b">
<path d="
  M 209.49 287.96
  Q 203.59 294.19 193.90 294.72
  Q 192.49 291.04 192.71 286.23
  Q 192.80 286.31 193.04 286.11
  Q 193.28 285.91 193.59 285.94
  Q 200.03 286.48 206.51 286.04
  C 208.16 285.92 208.84 286.53 209.49 287.96
  Z"
/>
<path d="
  M 123.54 290.18
  Q 132.27 293.21 139.23 298.73
  Q 139.63 299.04 139.70 299.54
  Q 139.83 300.45 140.15 300.76
  C 132.41 304.01 118.92 302.01 123.54 290.18
  Z"
/>
</g>
<g fill="#f67653">
<path d="
  M 429.80 235.84
  C 430.22 242.95 430.58 250.09 435.18 255.34
  Q 436.52 257.82 433.27 262.21
  Q 425.26 251.96 424.41 239.37
  Q 424.38 238.87 424.75 238.54
  Q 426.91 236.61 429.80 235.84
  Z"
/>
<path d="
  M 413.71 236.65
  L 416.44 237.08
  Q 417.17 248.39 412.40 258.15
  C 407.82 267.51 399.04 265.93 390.44 264.30
  Q 389.94 264.21 389.61 263.83
  C 388.56 262.67 387.78 261.42 387.83 259.76
  C 388.03 251.91 389.46 246.00 395.09 240.12
  Q 395.42 239.77 395.83 240.01
  L 396.82 240.57
  L 392.59 254.91
  A 2.28 2.28 0.0 0 0 393.78 257.60
  C 408.40 264.66 412.13 245.93 413.71 236.65
  Z
  M 389.04 259.80
  C 390.53 265.24 399.53 264.10 403.55 263.54
  Q 410.15 262.61 411.15 256.24
  A 0.44 0.44 0.0 0 0 410.39 255.88
  C 405.75 261.15 396.87 264.05 391.14 258.56
  A 1.27 1.26 14.4 0 0 389.04 259.80
  Z"
/>
<path d="
  M 410.37 296.07
  Q 402.87 302.64 393.21 304.88
  Q 390.98 305.39 389.05 306.65
  Q 385.45 309.00 381.64 310.41
  L 383.32 302.59
  Q 389.41 300.55 396.50 299.82
  C 401.32 299.32 405.53 297.23 410.37 296.07
  Z"
/>
</g>
<g fill="#d27f61">
<path d="
  M 163.82 197.76
  A 0.43 0.43 0.0 0 1 164.14 198.56
  Q 160.33 200.33 157.33 197.54
  A 0.40 0.39 -5.8 0 1 157.83 196.93
  Q 160.57 198.87 163.82 197.76
  Z"
/>
<path d="
  M 411.68 226.87
  L 412.24 232.79
  L 411.94 231.17
  A 0.59 0.58 -8.9 0 0 411.29 230.70
  Q 404.03 231.61 402.70 224.53
  A 0.77 0.77 0.0 0 1 403.93 223.79
  Q 405.85 225.30 408.33 225.30
  A 1.23 1.22 -21.9 0 1 409.21 225.67
  Q 410.47 226.97 411.68 226.87
  Z"
/>
</g>
<g fill="#e99e81">
<path d="
  M 165.87 189.83
  Q 166.43 191.94 165.52 194.05
  A 1.04 0.81 72.1 0 1 163.98 193.00
  L 164.55 191.08
  A 0.63 0.63 0.0 0 0 164.20 190.32
  C 161.88 189.31 158.38 187.28 158.92 184.50
  Q 159.11 183.48 159.48 184.45
  Q 160.92 188.26 165.04 189.06
  A 1.08 1.06 -1.6 0 1 165.87 189.83
  Z"
/>
<path d="
  M 142.93 193.59
  Q 141.25 194.28 142.62 196.64
  C 143.26 197.76 143.03 198.30 142.46 199.31
  Q 137.00 197.77 135.87 193.61
  Q 135.36 191.73 137.04 190.89
  A 0.91 0.90 -44.0 0 1 137.87 190.90
  L 142.93 193.59
  Z"
/>
<path d="
  M 171.60 225.41
  Q 171.45 225.73 171.50 225.95
  L 168.01 224.09
  Q 167.68 223.91 168.02 223.75
  Q 168.22 223.66 168.48 223.80
  Q 170.03 224.62 171.60 225.41
  Z"
/>
</g>
</svg>
